M48
; DRILL file {KiCad 9.0.6} date 2026-08-07T20:57:00+0100
; FORMAT={-:-/ absolute / metric / decimal}
; #@! TF.CreationDate,2026-08-07T20:57:00+01:00
; #@! TF.GenerationSoftware,Kicad,Pcbnew,9.0.6
; #@! TF.FileFunction,Plated,1,2,PTH
FMAT,2
METRIC
; #@! TA.AperFunction,Plated,PTH,ViaDrill
T1C0.300
; #@! TA.AperFunction,Plated,PTH,ComponentDrill
T2C0.750
; #@! TA.AperFunction,Plated,PTH,ComponentDrill
T3C1.000
; #@! TA.AperFunction,Plated,PTH,ComponentDrill
T4C1.016
; #@! TA.AperFunction,Plated,PTH,ComponentDrill
T5C1.200
; #@! TA.AperFunction,Plated,PTH,ComponentDrill
T6C1.900
%
G90
G05
T1
X57.8Y-137.001
X100.25Y-130.0
X135.0Y-134.75
X138.91Y-137.25
X139.75Y-134.75
X160.3Y-135.97
T2
X49.0Y-134.3
X51.0Y-134.3
X53.0Y-134.3
X55.0Y-134.3
X76.25Y-116.04
X78.25Y-116.04
T3
X32.675Y-120.5
X32.675Y-131.5
X84.062Y-134.362
X86.602Y-134.362
X89.142Y-134.362
X91.682Y-134.362
X94.222Y-134.362
X96.762Y-134.362
X99.302Y-134.362
X101.843Y-134.362
X104.382Y-134.362
X159.82Y-116.805
X159.82Y-129.505
X162.36Y-116.805
X162.36Y-129.505
X164.9Y-116.805
X164.9Y-129.505
X167.44Y-116.805
X167.44Y-129.505
X169.98Y-116.805
X169.98Y-129.505
X172.52Y-116.805
X172.52Y-129.505
X183.47Y-128.92
X186.01Y-128.92
X188.55Y-128.92
X191.09Y-128.92
X193.63Y-128.92
X196.17Y-128.92
X198.71Y-128.92
X201.25Y-128.92
T4
X113.05Y-116.71
X113.05Y-131.71
X115.59Y-116.71
X115.59Y-131.71
X118.13Y-116.71
X118.13Y-131.71
X120.67Y-116.71
X120.67Y-131.71
X123.21Y-116.71
X123.21Y-131.71
X125.75Y-116.71
X125.75Y-131.71
X128.29Y-116.71
X128.29Y-131.71
X130.83Y-116.71
X130.83Y-131.71
X133.37Y-116.71
X133.37Y-131.71
X135.91Y-116.71
X135.91Y-131.71
X138.45Y-116.71
X138.45Y-131.71
X140.99Y-116.71
X140.99Y-131.71
X143.53Y-116.71
X143.53Y-131.71
X146.07Y-116.71
X146.07Y-131.71
X148.61Y-116.71
X148.61Y-131.71
T5
X52.25Y-125.75
X55.75Y-125.75
X60.72Y-122.34
X60.72Y-124.88
X60.72Y-132.5
X60.72Y-135.04
X78.5Y-122.34
X78.5Y-124.88
X78.5Y-132.5
X78.5Y-135.04
T6
X42.675Y-123.5
X42.675Y-128.5
M30
