%TF.GenerationSoftware,KiCad,Pcbnew,9.0.6*%
%TF.CreationDate,2026-08-07T20:57:12+01:00*%
%TF.ProjectId,fc3,6663332e-6b69-4636-9164-5f7063625858,rev?*%
%TF.SameCoordinates,Original*%
%TF.FileFunction,Copper,L2,Bot*%
%TF.FilePolarity,Positive*%
%FSLAX46Y46*%
G04 Gerber Fmt 4.6, Leading zero omitted, Abs format (unit mm)*
G04 Created by KiCad (PCBNEW 9.0.6) date 2026-08-07 20:57:12*
%MOMM*%
%LPD*%
G01*
G04 APERTURE LIST*
G04 Aperture macros list*
%AMRoundRect*
0 Rectangle with rounded corners*
0 $1 Rounding radius*
0 $2 $3 $4 $5 $6 $7 $8 $9 X,Y pos of 4 corners*
0 Add a 4 corners polygon primitive as box body*
4,1,4,$2,$3,$4,$5,$6,$7,$8,$9,$2,$3,0*
0 Add four circle primitives for the rounded corners*
1,1,$1+$1,$2,$3*
1,1,$1+$1,$4,$5*
1,1,$1+$1,$6,$7*
1,1,$1+$1,$8,$9*
0 Add four rect primitives between the rounded corners*
20,1,$1+$1,$2,$3,$4,$5,0*
20,1,$1+$1,$4,$5,$6,$7,0*
20,1,$1+$1,$6,$7,$8,$9,0*
20,1,$1+$1,$8,$9,$2,$3,0*%
G04 Aperture macros list end*
%TA.AperFunction,ComponentPad*%
%ADD10C,1.700000*%
%TD*%
%TA.AperFunction,ComponentPad*%
%ADD11RoundRect,0.250000X0.350000X0.625000X-0.350000X0.625000X-0.350000X-0.625000X0.350000X-0.625000X0*%
%TD*%
%TA.AperFunction,ComponentPad*%
%ADD12O,1.200000X1.750000*%
%TD*%
%TA.AperFunction,ComponentPad*%
%ADD13C,1.778000*%
%TD*%
%TA.AperFunction,ComponentPad*%
%ADD14RoundRect,0.250000X-0.350000X-0.625000X0.350000X-0.625000X0.350000X0.625000X-0.350000X0.625000X0*%
%TD*%
%TA.AperFunction,ComponentPad*%
%ADD15O,2.500000X2.000000*%
%TD*%
%TA.AperFunction,ComponentPad*%
%ADD16RoundRect,0.250001X-0.949999X-0.949999X0.949999X-0.949999X0.949999X0.949999X-0.949999X0.949999X0*%
%TD*%
%TA.AperFunction,ComponentPad*%
%ADD17C,2.400000*%
%TD*%
%TA.AperFunction,ComponentPad*%
%ADD18RoundRect,0.255000X-0.595000X-0.595000X0.595000X-0.595000X0.595000X0.595000X-0.595000X0.595000X0*%
%TD*%
%TA.AperFunction,ComponentPad*%
%ADD19RoundRect,0.250000X-0.600000X-0.600000X0.600000X-0.600000X0.600000X0.600000X-0.600000X0.600000X0*%
%TD*%
%TA.AperFunction,ComponentPad*%
%ADD20C,1.400000*%
%TD*%
%TA.AperFunction,ComponentPad*%
%ADD21RoundRect,0.770000X0.980000X-0.980000X0.980000X0.980000X-0.980000X0.980000X-0.980000X-0.980000X0*%
%TD*%
%TA.AperFunction,ComponentPad*%
%ADD22C,3.500000*%
%TD*%
%TA.AperFunction,ViaPad*%
%ADD23C,1.000000*%
%TD*%
%TA.AperFunction,ViaPad*%
%ADD24C,0.600000*%
%TD*%
%TA.AperFunction,ViaPad*%
%ADD25C,0.500000*%
%TD*%
%TA.AperFunction,Conductor*%
%ADD26C,0.400000*%
%TD*%
%TA.AperFunction,Conductor*%
%ADD27C,0.800000*%
%TD*%
%TA.AperFunction,Conductor*%
%ADD28C,0.250000*%
%TD*%
G04 APERTURE END LIST*
D10*
%TO.P,U4,1,VIN*%
%TO.N,unconnected-(U4-VIN-Pad1)*%
X183470000Y-128920000D03*
%TO.P,U4,2,3V0*%
%TO.N,3.3V*%
X186010000Y-128920000D03*
%TO.P,U4,3,GND*%
%TO.N,GND*%
X188550000Y-128920000D03*
%TO.P,U4,4,SCL*%
%TO.N,SCL*%
X191090000Y-128920000D03*
%TO.P,U4,5,SDO*%
%TO.N,unconnected-(U4-SDO-Pad5)*%
X193630000Y-128920000D03*
%TO.P,U4,6,SDA*%
%TO.N,SDA*%
X196170000Y-128920000D03*
%TO.P,U4,7,CS*%
%TO.N,unconnected-(U4-CS-Pad7)*%
X198710000Y-128920000D03*
%TO.P,U4,8,INT*%
%TO.N,unconnected-(U4-INT-Pad8)*%
X201250000Y-128920000D03*
%TD*%
D11*
%TO.P,I2,1,Pin_1*%
%TO.N,3.3V*%
X55000000Y-134300000D03*
D12*
%TO.P,I2,2,Pin_2*%
%TO.N,GND*%
X53000000Y-134300000D03*
%TO.P,I2,3,Pin_3*%
%TO.N,SCL*%
X51000000Y-134300000D03*
%TO.P,I2,4,Pin_4*%
%TO.N,SDA*%
X49000000Y-134300000D03*
%TD*%
D13*
%TO.P,U1,1,D13*%
%TO.N,Net-(U1-D13)*%
X113050000Y-131710000D03*
%TO.P,U1,2,+3V3*%
%TO.N,3.3V*%
X115590000Y-131710000D03*
%TO.P,U1,3,B0*%
%TO.N,unconnected-(U1-B0-Pad3)*%
X118130000Y-131710000D03*
%TO.P,U1,4,A0*%
%TO.N,unconnected-(U1-A0-Pad4)*%
X120670000Y-131710000D03*
%TO.P,U1,5,A1*%
%TO.N,unconnected-(U1-A1-Pad5)*%
X123210000Y-131710000D03*
%TO.P,U1,6,A2*%
%TO.N,unconnected-(U1-A2-Pad6)*%
X125750000Y-131710000D03*
%TO.P,U1,7,A3*%
%TO.N,unconnected-(U1-A3-Pad7)*%
X128290000Y-131710000D03*
%TO.P,U1,8,A4*%
%TO.N,SDA*%
X130830000Y-131710000D03*
%TO.P,U1,9,A5*%
%TO.N,SCL*%
X133370000Y-131710000D03*
%TO.P,U1,10,A6*%
%TO.N,unconnected-(U1-A6-Pad10)*%
X135910000Y-131710000D03*
%TO.P,U1,11,A7*%
%TO.N,unconnected-(U1-A7-Pad11)*%
X138450000Y-131710000D03*
%TO.P,U1,12,VUSB*%
%TO.N,unconnected-(U1-VUSB-Pad12)*%
X140990000Y-131710000D03*
%TO.P,U1,13,B1*%
%TO.N,unconnected-(U1-B1-Pad13)*%
X143530000Y-131710000D03*
%TO.P,U1,14,GND*%
%TO.N,GND*%
X146070000Y-131710000D03*
%TO.P,U1,15,VIN*%
%TO.N,unconnected-(U1-VIN-Pad15)*%
X148610000Y-131710000D03*
%TO.P,U1,16,D1*%
%TO.N,unconnected-(U1-D1-Pad16)*%
X148610000Y-116710000D03*
%TO.P,U1,17,D0*%
%TO.N,unconnected-(U1-D0-Pad17)*%
X146070000Y-116710000D03*
%TO.P,U1,18,~{RESET}*%
%TO.N,unconnected-(U1-~{RESET}-Pad18)*%
X143530000Y-116710000D03*
%TO.P,U1,19,GND*%
%TO.N,GND*%
X140990000Y-116710000D03*
%TO.P,U1,20,D2*%
%TO.N,unconnected-(U1-D2-Pad20)*%
X138450000Y-116710000D03*
%TO.P,U1,21,D3*%
%TO.N,unconnected-(U1-D3-Pad21)*%
X135910000Y-116710000D03*
%TO.P,U1,22,D4*%
%TO.N,Net-(U1-D4)*%
X133370000Y-116710000D03*
%TO.P,U1,23,D5*%
%TO.N,unconnected-(U1-D5-Pad23)*%
X130830000Y-116710000D03*
%TO.P,U1,24,D6*%
%TO.N,unconnected-(U1-D6-Pad24)*%
X128290000Y-116710000D03*
%TO.P,U1,25,D7*%
%TO.N,unconnected-(U1-D7-Pad25)*%
X125750000Y-116710000D03*
%TO.P,U1,26,D8*%
%TO.N,unconnected-(U1-D8-Pad26)*%
X123210000Y-116710000D03*
%TO.P,U1,27,D9*%
%TO.N,unconnected-(U1-D9-Pad27)*%
X120670000Y-116710000D03*
%TO.P,U1,28,D10*%
%TO.N,Net-(U1-D10)*%
X118130000Y-116710000D03*
%TO.P,U1,29,D11*%
%TO.N,Net-(U1-D11)*%
X115590000Y-116710000D03*
%TO.P,U1,30,D12*%
%TO.N,Net-(U1-D12)*%
X113050000Y-116710000D03*
%TD*%
D14*
%TO.P,1.5A\u002C3.3V1,1,Pin_2*%
%TO.N,3.3V(com)*%
X76250000Y-116040000D03*
D12*
%TO.P,1.5A\u002C3.3V1,2,Pin_1*%
%TO.N,GND*%
X78250000Y-116040000D03*
%TD*%
D15*
%TO.P,U2,1,GND*%
%TO.N,GND*%
X78500000Y-122340000D03*
%TO.P,U2,2,GND*%
X78500000Y-124880000D03*
%TO.P,U2,3,+Vo*%
%TO.N,3.3V(com)*%
X78500000Y-132500000D03*
%TO.P,U2,4,+Vo*%
%TO.N,3.3V*%
X78500000Y-135040000D03*
%TO.P,U2,5,+Vin*%
%TO.N,7.4V*%
X60720000Y-135040000D03*
%TO.P,U2,6,+Vin*%
X60720000Y-132500000D03*
%TO.P,U2,7,GND*%
%TO.N,GND*%
X60720000Y-124880000D03*
%TO.P,U2,8,GND*%
X60720000Y-122340000D03*
%TD*%
D16*
%TO.P,S1,1,Pin_1*%
%TO.N,7.4V*%
X52250000Y-125750000D03*
D17*
%TO.P,S1,2,Pin_2*%
X55750000Y-125750000D03*
%TD*%
D18*
%TO.P,U5,1,VIN*%
%TO.N,unconnected-(U5-VIN-Pad1)*%
X159820000Y-129505000D03*
D10*
%TO.P,U5,2,3Vo*%
%TO.N,3.3V*%
X162360000Y-129505000D03*
%TO.P,U5,3,GND*%
%TO.N,GND*%
X164900000Y-129505000D03*
%TO.P,U5,4,SCL*%
%TO.N,SCL*%
X167440000Y-129505000D03*
%TO.P,U5,5,SDA*%
%TO.N,SDA*%
X169980000Y-129505000D03*
%TO.P,U5,6,INT*%
%TO.N,unconnected-(U5-INT-Pad6)*%
X172520000Y-129505000D03*
%TO.P,U5,7,AUX_CL*%
%TO.N,unconnected-(U5-AUX_CL-Pad7)*%
X159820000Y-116805000D03*
%TO.P,U5,8,AUX_DA*%
%TO.N,unconnected-(U5-AUX_DA-Pad8)*%
X162360000Y-116805000D03*
%TO.P,U5,9,ADO*%
%TO.N,unconnected-(U5-ADO-Pad9)*%
X164900000Y-116805000D03*
%TO.P,U5,10,NC*%
%TO.N,unconnected-(U5-NC-Pad10)*%
X167440000Y-116805000D03*
%TO.P,U5,11,NC*%
%TO.N,unconnected-(U5-NC-Pad11)*%
X169980000Y-116805000D03*
%TO.P,U5,12,NC*%
%TO.N,unconnected-(U5-NC-Pad12)*%
X172520000Y-116805000D03*
%TD*%
D19*
%TO.P,Ur2,1,3V*%
%TO.N,3.3V*%
X84062500Y-134362500D03*
D10*
%TO.P,Ur2,2,GND*%
%TO.N,GND*%
X86602500Y-134362500D03*
%TO.P,Ur2,3,CLK*%
%TO.N,Net-(U1-D13)*%
X89142500Y-134362500D03*
%TO.P,Ur2,4,SO*%
%TO.N,Net-(U1-D12)*%
X91682500Y-134362500D03*
%TO.P,Ur2,5,SI*%
%TO.N,Net-(U1-D11)*%
X94222500Y-134362500D03*
%TO.P,Ur2,6,CS*%
%TO.N,Net-(U1-D10)*%
X96762500Y-134362500D03*
%TO.P,Ur2,7,D1*%
%TO.N,unconnected-(Ur2-D1-Pad7)*%
X99302500Y-134362500D03*
%TO.P,Ur2,8,DAT2*%
%TO.N,unconnected-(Ur2-DAT2-Pad8)*%
X101842500Y-134362500D03*
%TO.P,Ur2,9,DET*%
%TO.N,unconnected-(Ur2-DET-Pad9)*%
X104382500Y-134362500D03*
%TD*%
D20*
%TO.P,J1,*%
%TO.N,*%
X32675000Y-131500000D03*
X32675000Y-120500000D03*
D21*
%TO.P,J1,1,Pin_1*%
%TO.N,GND*%
X42675000Y-123500000D03*
D22*
%TO.P,J1,2,Pin_2*%
%TO.N,7.4V*%
X42675000Y-128500000D03*
%TD*%
D23*
%TO.N,3.3V*%
X160300000Y-135970000D03*
D24*
X57800000Y-137001000D03*
D25*
%TO.N,Net-(U1-D13)*%
X100250000Y-130000000D03*
D24*
%TO.N,SDA*%
X139750000Y-134750000D03*
X135000000Y-134750000D03*
%TO.N,SCL*%
X138910000Y-137250000D03*
%TD*%
D26*
%TO.N,3.3V*%
X57800000Y-137000000D02*
X81270000Y-137000000D01*
D27*
X108955000Y-135970000D02*
X85670000Y-135970000D01*
X79430000Y-135970000D02*
X78500000Y-135040000D01*
D26*
X82300000Y-135970000D02*
X82500000Y-135970000D01*
D27*
X160300000Y-135970000D02*
X156900000Y-135970000D01*
D26*
X85670000Y-135970000D02*
X84062500Y-134362500D01*
D28*
X155895000Y-135970000D02*
X162360000Y-129505000D01*
D27*
X156900000Y-135970000D02*
X119850000Y-135970000D01*
D26*
X57800000Y-137001000D02*
X57800000Y-137000000D01*
D27*
X82500000Y-135970000D02*
X79430000Y-135970000D01*
X119850000Y-135970000D02*
X108955000Y-135970000D01*
X119850000Y-135970000D02*
X115590000Y-131710000D01*
X85670000Y-135970000D02*
X82500000Y-135970000D01*
D26*
X81270000Y-137000000D02*
X82300000Y-135970000D01*
D28*
%TO.N,Net-(U1-D13)*%
X93500000Y-130000000D02*
X92255000Y-131245000D01*
X100250000Y-130000000D02*
X93500000Y-130000000D01*
X92255000Y-131245000D02*
X92255000Y-131250000D01*
X92255000Y-131250000D02*
X89142500Y-134362500D01*
%TO.N,SDA*%
X139750000Y-134750000D02*
X135000000Y-134750000D01*
%TO.N,SCL*%
X51000000Y-134500000D02*
X51000000Y-134300000D01*
X138534000Y-137626000D02*
X54126000Y-137626000D01*
X138910000Y-137250000D02*
X138534000Y-137626000D01*
X54126000Y-137626000D02*
X51000000Y-134500000D01*
%TD*%
%TA.AperFunction,Conductor*%
%TO.N,GND*%
G36*
X60970000Y-124331517D02*
G01*
X60951591Y-124320889D01*
X60798991Y-124280000D01*
X60641009Y-124280000D01*
X60488409Y-124320889D01*
X60470000Y-124331517D01*
X60470000Y-122888482D01*
X60488409Y-122899111D01*
X60641009Y-122940000D01*
X60798991Y-122940000D01*
X60951591Y-122899111D01*
X60970000Y-122888482D01*
X60970000Y-124331517D01*
G37*
%TD.AperFunction*%
%TA.AperFunction,Conductor*%
G36*
X78750000Y-124331517D02*
G01*
X78731591Y-124320889D01*
X78578991Y-124280000D01*
X78421009Y-124280000D01*
X78268409Y-124320889D01*
X78250000Y-124331517D01*
X78250000Y-122888482D01*
X78268409Y-122899111D01*
X78421009Y-122940000D01*
X78578991Y-122940000D01*
X78731591Y-122899111D01*
X78750000Y-122888482D01*
X78750000Y-124331517D01*
G37*
%TD.AperFunction*%
%TA.AperFunction,Conductor*%
G36*
X207630936Y-114020185D02*
G01*
X207676691Y-114072989D01*
X207686635Y-114142147D01*
X207657610Y-114205703D01*
X207651578Y-114212181D01*
X207632583Y-114231175D01*
X207457476Y-114450753D01*
X207308053Y-114688557D01*
X207186200Y-114941588D01*
X207093443Y-115206670D01*
X207093439Y-115206682D01*
X207030945Y-115480487D01*
X207030942Y-115480505D01*
X206999500Y-115759568D01*
X206999500Y-116040431D01*
X207030942Y-116319494D01*
X207030945Y-116319512D01*
X207093439Y-116593317D01*
X207093443Y-116593329D01*
X207186200Y-116858411D01*
X207308053Y-117111442D01*
X207318597Y-117128223D01*
X207457477Y-117349248D01*
X207632584Y-117568825D01*
X207831175Y-117767416D01*
X208050752Y-117942523D01*
X208269292Y-118079841D01*
X208288557Y-118091946D01*
X208332777Y-118113241D01*
X208541592Y-118213801D01*
X208740680Y-118283465D01*
X208806670Y-118306556D01*
X208806682Y-118306560D01*
X209080491Y-118369055D01*
X209080497Y-118369055D01*
X209080505Y-118369057D01*
X209235196Y-118386486D01*
X209359569Y-118400499D01*
X209359572Y-118400500D01*
X209359575Y-118400500D01*
X209640428Y-118400500D01*
X209640429Y-118400499D01*
X209783055Y-118384429D01*
X209919494Y-118369057D01*
X209919499Y-118369056D01*
X209919509Y-118369055D01*
X210193318Y-118306560D01*
X210458408Y-118213801D01*
X210711445Y-118091945D01*
X210949248Y-117942523D01*
X211148187Y-117783873D01*
X211212874Y-117757465D01*
X211281569Y-117770222D01*
X211332463Y-117818092D01*
X211349500Y-117880821D01*
X211349500Y-134619178D01*
X211329815Y-134686217D01*
X211277011Y-134731972D01*
X211207853Y-134741916D01*
X211148187Y-134716125D01*
X211027213Y-134619652D01*
X210949248Y-134557477D01*
X210711445Y-134408055D01*
X210711442Y-134408053D01*
X210458411Y-134286200D01*
X210193329Y-134193443D01*
X210193317Y-134193439D01*
X209919512Y-134130945D01*
X209919494Y-134130942D01*
X209640431Y-134099500D01*
X209640425Y-134099500D01*
X209359575Y-134099500D01*
X209359568Y-134099500D01*
X209080505Y-134130942D01*
X209080487Y-134130945D01*
X208806682Y-134193439D01*
X208806670Y-134193443D01*
X208541588Y-134286200D01*
X208288557Y-134408053D01*
X208050753Y-134557476D01*
X207831175Y-134732583D01*
X207632583Y-134931175D01*
X207457476Y-135150753D01*
X207308053Y-135388557D01*
X207186200Y-135641588D01*
X207093443Y-135906670D01*
X207093439Y-135906682D01*
X207030945Y-136180487D01*
X207030942Y-136180505D01*
X206999500Y-136459568D01*
X206999500Y-136740431D01*
X207030942Y-137019494D01*
X207030945Y-137019512D01*
X207093439Y-137293317D01*
X207093443Y-137293329D01*
X207186200Y-137558411D01*
X207308053Y-137811442D01*
X207314392Y-137821531D01*
X207457477Y-138049248D01*
X207464512Y-138058069D01*
X207632583Y-138268824D01*
X207651578Y-138287819D01*
X207685063Y-138349142D01*
X207680079Y-138418834D01*
X207638207Y-138474767D01*
X207572743Y-138499184D01*
X207563897Y-138499500D01*
X35406777Y-138499500D01*
X35339738Y-138479815D01*
X35293983Y-138427011D01*
X35284039Y-138357853D01*
X35313064Y-138294297D01*
X35329464Y-138278553D01*
X35356641Y-138256879D01*
X35468825Y-138167416D01*
X35667416Y-137968825D01*
X35842523Y-137749248D01*
X35991945Y-137511445D01*
X36113801Y-137258408D01*
X36206560Y-136993318D01*
X36269055Y-136719509D01*
X36269885Y-136712147D01*
X36292197Y-136514114D01*
X36300500Y-136440425D01*
X36300500Y-136159575D01*
X36277528Y-135955690D01*
X36269057Y-135880505D01*
X36269054Y-135880487D01*
X36242849Y-135765677D01*
X36206560Y-135606682D01*
X36113801Y-135341592D01*
X35991945Y-135088555D01*
X35842523Y-134850752D01*
X35667416Y-134631175D01*
X35468825Y-134432584D01*
X35249248Y-134257477D01*
X35011445Y-134108055D01*
X35011442Y-134108053D01*
X34894602Y-134051786D01*
X34894600Y-134051784D01*
X34758419Y-133986203D01*
X34758411Y-133986200D01*
X34643964Y-133946153D01*
X48199500Y-133946153D01*
X48199500Y-134653846D01*
X48230261Y-134808489D01*
X48230264Y-134808501D01*
X48290602Y-134954172D01*
X48290609Y-134954185D01*
X48378210Y-135085288D01*
X48378213Y-135085292D01*
X48489707Y-135196786D01*
X48489711Y-135196789D01*
X48620814Y-135284390D01*
X48620827Y-135284397D01*
X48758910Y-135341592D01*
X48766503Y-135344737D01*
X48906810Y-135372646D01*
X48921153Y-135375499D01*
X48921156Y-135375500D01*
X48921158Y-135375500D01*
X49078844Y-135375500D01*
X49078845Y-135375499D01*
X49233497Y-135344737D01*
X49350150Y-135296418D01*
X49379172Y-135284397D01*
X49379172Y-135284396D01*
X49379179Y-135284394D01*
X49510289Y-135196789D01*
X49621789Y-135085289D01*
X49709394Y-134954179D01*
X49718923Y-134931175D01*
X49747368Y-134862500D01*
X49769737Y-134808497D01*
X49800500Y-134653842D01*
X49800500Y-133946158D01*
X49800500Y-133946155D01*
X49800499Y-133946153D01*
X50199500Y-133946153D01*
X50199500Y-134653846D01*
X50230261Y-134808489D01*
X50230264Y-134808501D01*
X50290602Y-134954172D01*
X50290609Y-134954185D01*
X50378210Y-135085288D01*
X50378213Y-135085292D01*
X50489707Y-135196786D01*
X50489711Y-135196789D01*
X50620814Y-135284390D01*
X50620827Y-135284397D01*
X50758910Y-135341592D01*
X50766503Y-135344737D01*
X50906810Y-135372646D01*
X50921153Y-135375499D01*
X50921156Y-135375500D01*
X50921158Y-135375500D01*
X51078844Y-135375500D01*
X51078845Y-135375499D01*
X51233497Y-135344737D01*
X51263662Y-135332241D01*
X51333129Y-135324773D01*
X51395609Y-135356047D01*
X51398795Y-135359122D01*
X53861194Y-137821520D01*
X53861204Y-137821531D01*
X53865534Y-137825861D01*
X53865535Y-137825862D01*
X53926138Y-137886465D01*
X53926140Y-137886466D01*
X53926141Y-137886467D01*
X54000358Y-137929316D01*
X54000359Y-137929317D01*
X54000361Y-137929317D01*
X54000362Y-137929318D01*
X54083147Y-137951501D01*
X54083149Y-137951501D01*
X54176449Y-137951501D01*
X54176465Y-137951500D01*
X138576851Y-137951500D01*
X138576853Y-137951500D01*
X138659639Y-137929318D01*
X138733862Y-137886465D01*
X138833508Y-137786819D01*
X138894831Y-137753334D01*
X138921189Y-137750500D01*
X138975890Y-137750500D01*
X138975892Y-137750500D01*
X139103186Y-137716392D01*
X139217314Y-137650500D01*
X139310500Y-137557314D01*
X139376392Y-137443186D01*
X139410500Y-137315892D01*
X139410500Y-137184108D01*
X139376392Y-137056814D01*
X139310500Y-136942686D01*
X139217314Y-136849500D01*
X139134845Y-136801886D01*
X139086631Y-136751319D01*
X139073409Y-136682712D01*
X139099377Y-136617848D01*
X139156291Y-136577320D01*
X139196847Y-136570500D01*
X156820943Y-136570500D01*
X159900230Y-136570500D01*
X159962369Y-136588746D01*
X159962819Y-136587905D01*
X159966859Y-136590064D01*
X159967269Y-136590185D01*
X159968087Y-136590721D01*
X159968190Y-136590776D01*
X160094245Y-136642989D01*
X160095672Y-136643580D01*
X160095676Y-136643580D01*
X160095677Y-136643581D01*
X160231004Y-136670500D01*
X160231007Y-136670500D01*
X160368995Y-136670500D01*
X160471796Y-136650051D01*
X160504328Y-136643580D01*
X160631811Y-136590775D01*
X160746542Y-136514114D01*
X160844114Y-136416542D01*
X160920775Y-136301811D01*
X160973580Y-136174328D01*
X161000500Y-136038993D01*
X161000500Y-135901007D01*
X161000500Y-135901004D01*
X160973581Y-135765677D01*
X160973580Y-135765676D01*
X160973580Y-135765672D01*
X160925301Y-135649115D01*
X160920778Y-135638195D01*
X160920771Y-135638182D01*
X160844114Y-135523458D01*
X160844111Y-135523454D01*
X160746545Y-135425888D01*
X160746541Y-135425885D01*
X160631817Y-135349228D01*
X160631804Y-135349221D01*
X160504332Y-135296421D01*
X160504322Y-135296418D01*
X160368995Y-135269500D01*
X160368993Y-135269500D01*
X160231007Y-135269500D01*
X160231005Y-135269500D01*
X160095677Y-135296418D01*
X160095667Y-135296421D01*
X159968190Y-135349223D01*
X159962819Y-135352095D01*
X159962123Y-135350794D01*
X159902438Y-135369480D01*
X159900230Y-135369500D01*
X157255189Y-135369500D01*
X157188150Y-135349815D01*
X157142395Y-135297011D01*
X157132451Y-135227853D01*
X157161476Y-135164297D01*
X157167508Y-135157819D01*
X157937146Y-134388181D01*
X161822896Y-130502428D01*
X161884217Y-130468945D01*
X161953909Y-130473929D01*
X161957964Y-130475524D01*
X162053580Y-130515130D01*
X162242026Y-130552614D01*
X162256530Y-130555499D01*
X162256534Y-130555500D01*
X162256535Y-130555500D01*
X162463466Y-130555500D01*
X162463467Y-130555499D01*
X162666420Y-130515130D01*
X162857598Y-130435941D01*
X163029655Y-130320977D01*
X163175977Y-130174655D01*
X163290941Y-130002598D01*
X163359165Y-129837889D01*
X163403004Y-129783488D01*
X163469298Y-129761423D01*
X163536998Y-129778702D01*
X163584609Y-129829839D01*
X163591656Y-129847026D01*
X163648904Y-130023216D01*
X163745375Y-130212550D01*
X163784728Y-130266716D01*
X164417037Y-129634408D01*
X164434075Y-129697993D01*
X164499901Y-129812007D01*
X164592993Y-129905099D01*
X164707007Y-129970925D01*
X164770590Y-129987962D01*
X164138282Y-130620269D01*
X164138282Y-130620270D01*
X164192449Y-130659624D01*
X164381782Y-130756095D01*
X164583870Y-130821757D01*
X164793754Y-130855000D01*
X165006246Y-130855000D01*
X165216127Y-130821757D01*
X165216130Y-130821757D01*
X165418217Y-130756095D01*
X165607554Y-130659622D01*
X165661716Y-130620270D01*
X165661717Y-130620270D01*
X165029408Y-129987962D01*
X165092993Y-129970925D01*
X165207007Y-129905099D01*
X165300099Y-129812007D01*
X165365925Y-129697993D01*
X165382962Y-129634408D01*
X166015270Y-130266717D01*
X166015270Y-130266716D01*
X166054622Y-130212554D01*
X166151095Y-130023217D01*
X166208343Y-129847026D01*
X166247780Y-129789351D01*
X166312139Y-129762152D01*
X166380985Y-129774066D01*
X166432461Y-129821310D01*
X166440835Y-129837891D01*
X166495939Y-129970925D01*
X166509059Y-130002598D01*
X166522836Y-130023217D01*
X166624024Y-130174657D01*
X166770342Y-130320975D01*
X166770345Y-130320977D01*
X166942402Y-130435941D01*
X167133580Y-130515130D01*
X167322026Y-130552614D01*
X167336530Y-130555499D01*
X167336534Y-130555500D01*
X167336535Y-130555500D01*
X167543466Y-130555500D01*
X167543467Y-130555499D01*
X167746420Y-130515130D01*
X167937598Y-130435941D01*
X168109655Y-130320977D01*
X168255977Y-130174655D01*
X168370941Y-130002598D01*
X168450130Y-129811420D01*
X168490500Y-129608465D01*
X168490500Y-129401535D01*
X168490499Y-129401530D01*
X168929500Y-129401530D01*
X168929500Y-129608469D01*
X168969868Y-129811412D01*
X168969870Y-129811420D01*
X169035939Y-129970925D01*
X169049059Y-130002598D01*
X169062836Y-130023217D01*
X169164024Y-130174657D01*
X169310342Y-130320975D01*
X169310345Y-130320977D01*
X169482402Y-130435941D01*
X169673580Y-130515130D01*
X169862026Y-130552614D01*
X169876530Y-130555499D01*
X169876534Y-130555500D01*
X169876535Y-130555500D01*
X170083466Y-130555500D01*
X170083467Y-130555499D01*
X170286420Y-130515130D01*
X170477598Y-130435941D01*
X170649655Y-130320977D01*
X170795977Y-130174655D01*
X170910941Y-130002598D01*
X170990130Y-129811420D01*
X171030500Y-129608465D01*
X171030500Y-129401535D01*
X171030499Y-129401530D01*
X171469500Y-129401530D01*
X171469500Y-129608469D01*
X171509868Y-129811412D01*
X171509870Y-129811420D01*
X171575939Y-129970925D01*
X171589059Y-130002598D01*
X171602836Y-130023217D01*
X171704024Y-130174657D01*
X171850342Y-130320975D01*
X171850345Y-130320977D01*
X172022402Y-130435941D01*
X172213580Y-130515130D01*
X172402026Y-130552614D01*
X172416530Y-130555499D01*
X172416534Y-130555500D01*
X172416535Y-130555500D01*
X172623466Y-130555500D01*
X172623467Y-130555499D01*
X172826420Y-130515130D01*
X173017598Y-130435941D01*
X173189655Y-130320977D01*
X173335977Y-130174655D01*
X173450941Y-130002598D01*
X173530130Y-129811420D01*
X173570500Y-129608465D01*
X173570500Y-129401535D01*
X173568014Y-129389038D01*
X174729500Y-129389038D01*
X174729500Y-129640962D01*
X174752918Y-129788818D01*
X174768910Y-129889785D01*
X174846760Y-130129383D01*
X174916736Y-130266717D01*
X174959654Y-130350949D01*
X174961132Y-130353848D01*
X175109201Y-130557649D01*
X175109205Y-130557654D01*
X175287345Y-130735794D01*
X175287350Y-130735798D01*
X175420904Y-130832830D01*
X175491155Y-130883870D01*
X175613522Y-130946219D01*
X175715616Y-130998239D01*
X175715618Y-130998239D01*
X175715621Y-130998241D01*
X175955215Y-131076090D01*
X176204038Y-131115500D01*
X176204039Y-131115500D01*
X176455961Y-131115500D01*
X176455962Y-131115500D01*
X176704785Y-131076090D01*
X176944379Y-130998241D01*
X177168845Y-130883870D01*
X177372656Y-130735793D01*
X177550793Y-130557656D01*
X177698870Y-130353845D01*
X177813241Y-130129379D01*
X177891090Y-129889785D01*
X177930500Y-129640962D01*
X177930500Y-129389038D01*
X177891090Y-129140215D01*
X177813241Y-128900621D01*
X177770395Y-128816530D01*
X182419500Y-128816530D01*
X182419500Y-129023469D01*
X182459868Y-129226412D01*
X182459870Y-129226420D01*
X182525939Y-129385925D01*
X182539059Y-129417598D01*
X182552836Y-129438217D01*
X182654024Y-129589657D01*
X182800342Y-129735975D01*
X182800345Y-129735977D01*
X182972402Y-129850941D01*
X183163580Y-129930130D01*
X183362036Y-129969605D01*
X183366530Y-129970499D01*
X183366534Y-129970500D01*
X183366535Y-129970500D01*
X183573466Y-129970500D01*
X183573467Y-129970499D01*
X183776420Y-129930130D01*
X183967598Y-129850941D01*
X184139655Y-129735977D01*
X184285977Y-129589655D01*
X184400941Y-129417598D01*
X184480130Y-129226420D01*
X184520500Y-129023465D01*
X184520500Y-128816535D01*
X184520499Y-128816530D01*
X184959500Y-128816530D01*
X184959500Y-129023469D01*
X184999868Y-129226412D01*
X184999870Y-129226420D01*
X185065939Y-129385925D01*
X185079059Y-129417598D01*
X185092836Y-129438217D01*
X185194024Y-129589657D01*
X185340342Y-129735975D01*
X185340345Y-129735977D01*
X185512402Y-129850941D01*
X185703580Y-129930130D01*
X185902036Y-129969605D01*
X185906530Y-129970499D01*
X185906534Y-129970500D01*
X185906535Y-129970500D01*
X186113466Y-129970500D01*
X186113467Y-129970499D01*
X186316420Y-129930130D01*
X186507598Y-129850941D01*
X186679655Y-129735977D01*
X186825977Y-129589655D01*
X186940941Y-129417598D01*
X187009165Y-129252889D01*
X187053004Y-129198488D01*
X187119298Y-129176423D01*
X187186998Y-129193702D01*
X187234609Y-129244839D01*
X187241656Y-129262026D01*
X187298904Y-129438216D01*
X187395375Y-129627550D01*
X187434728Y-129681716D01*
X188067037Y-129049408D01*
X188084075Y-129112993D01*
X188149901Y-129227007D01*
X188242993Y-129320099D01*
X188357007Y-129385925D01*
X188420590Y-129402962D01*
X187788282Y-130035269D01*
X187788282Y-130035270D01*
X187842449Y-130074624D01*
X188031782Y-130171095D01*
X188233870Y-130236757D01*
X188443754Y-130270000D01*
X188656246Y-130270000D01*
X188866127Y-130236757D01*
X188866130Y-130236757D01*
X189068217Y-130171095D01*
X189257554Y-130074622D01*
X189311716Y-130035270D01*
X189311717Y-130035270D01*
X188679408Y-129402962D01*
X188742993Y-129385925D01*
X188857007Y-129320099D01*
X188950099Y-129227007D01*
X189015925Y-129112993D01*
X189032962Y-129049409D01*
X189665270Y-129681717D01*
X189665270Y-129681716D01*
X189704622Y-129627554D01*
X189801095Y-129438217D01*
X189858343Y-129262026D01*
X189897780Y-129204351D01*
X189962139Y-129177152D01*
X190030985Y-129189066D01*
X190082461Y-129236310D01*
X190090835Y-129252891D01*
X190145939Y-129385925D01*
X190159059Y-129417598D01*
X190172836Y-129438217D01*
X190274024Y-129589657D01*
X190420342Y-129735975D01*
X190420345Y-129735977D01*
X190592402Y-129850941D01*
X190783580Y-129930130D01*
X190982036Y-129969605D01*
X190986530Y-129970499D01*
X190986534Y-129970500D01*
X190986535Y-129970500D01*
X191193466Y-129970500D01*
X191193467Y-129970499D01*
X191396420Y-129930130D01*
X191587598Y-129850941D01*
X191759655Y-129735977D01*
X191905977Y-129589655D01*
X192020941Y-129417598D01*
X192100130Y-129226420D01*
X192140500Y-129023465D01*
X192140500Y-128816535D01*
X192140499Y-128816530D01*
X192579500Y-128816530D01*
X192579500Y-129023469D01*
X192619868Y-129226412D01*
X192619870Y-129226420D01*
X192685939Y-129385925D01*
X192699059Y-129417598D01*
X192712836Y-129438217D01*
X192814024Y-129589657D01*
X192960342Y-129735975D01*
X192960345Y-129735977D01*
X193132402Y-129850941D01*
X193323580Y-129930130D01*
X193522036Y-129969605D01*
X193526530Y-129970499D01*
X193526534Y-129970500D01*
X193526535Y-129970500D01*
X193733466Y-129970500D01*
X193733467Y-129970499D01*
X193936420Y-129930130D01*
X194127598Y-129850941D01*
X194299655Y-129735977D01*
X194445977Y-129589655D01*
X194560941Y-129417598D01*
X194640130Y-129226420D01*
X194680500Y-129023465D01*
X194680500Y-128816535D01*
X194680499Y-128816530D01*
X195119500Y-128816530D01*
X195119500Y-129023469D01*
X195159868Y-129226412D01*
X195159870Y-129226420D01*
X195225939Y-129385925D01*
X195239059Y-129417598D01*
X195252836Y-129438217D01*
X195354024Y-129589657D01*
X195500342Y-129735975D01*
X195500345Y-129735977D01*
X195672402Y-129850941D01*
X195863580Y-129930130D01*
X196062036Y-129969605D01*
X196066530Y-129970499D01*
X196066534Y-129970500D01*
X196066535Y-129970500D01*
X196273466Y-129970500D01*
X196273467Y-129970499D01*
X196476420Y-129930130D01*
X196667598Y-129850941D01*
X196839655Y-129735977D01*
X196985977Y-129589655D01*
X197100941Y-129417598D01*
X197180130Y-129226420D01*
X197220500Y-129023465D01*
X197220500Y-128816535D01*
X197220499Y-128816530D01*
X197659500Y-128816530D01*
X197659500Y-129023469D01*
X197699868Y-129226412D01*
X197699870Y-129226420D01*
X197765939Y-129385925D01*
X197779059Y-129417598D01*
X197792836Y-129438217D01*
X197894024Y-129589657D01*
X198040342Y-129735975D01*
X198040345Y-129735977D01*
X198212402Y-129850941D01*
X198403580Y-129930130D01*
X198602036Y-129969605D01*
X198606530Y-129970499D01*
X198606534Y-129970500D01*
X198606535Y-129970500D01*
X198813466Y-129970500D01*
X198813467Y-129970499D01*
X199016420Y-129930130D01*
X199207598Y-129850941D01*
X199379655Y-129735977D01*
X199525977Y-129589655D01*
X199640941Y-129417598D01*
X199720130Y-129226420D01*
X199760500Y-129023465D01*
X199760500Y-128816535D01*
X199760499Y-128816530D01*
X200199500Y-128816530D01*
X200199500Y-129023469D01*
X200239868Y-129226412D01*
X200239870Y-129226420D01*
X200305939Y-129385925D01*
X200319059Y-129417598D01*
X200332836Y-129438217D01*
X200434024Y-129589657D01*
X200580342Y-129735975D01*
X200580345Y-129735977D01*
X200752402Y-129850941D01*
X200943580Y-129930130D01*
X201142036Y-129969605D01*
X201146530Y-129970499D01*
X201146534Y-129970500D01*
X201146535Y-129970500D01*
X201353466Y-129970500D01*
X201353467Y-129970499D01*
X201556420Y-129930130D01*
X201747598Y-129850941D01*
X201919655Y-129735977D01*
X202065977Y-129589655D01*
X202180941Y-129417598D01*
X202260130Y-129226420D01*
X202300500Y-129023465D01*
X202300500Y-128816535D01*
X202260130Y-128613580D01*
X202180941Y-128422402D01*
X202065977Y-128250345D01*
X202065975Y-128250342D01*
X201919657Y-128104024D01*
X201811505Y-128031760D01*
X201747598Y-127989059D01*
X201662741Y-127953910D01*
X201556420Y-127909870D01*
X201556412Y-127909868D01*
X201353469Y-127869500D01*
X201353465Y-127869500D01*
X201146535Y-127869500D01*
X201146530Y-127869500D01*
X200943587Y-127909868D01*
X200943579Y-127909870D01*
X200752403Y-127989058D01*
X200580342Y-128104024D01*
X200434024Y-128250342D01*
X200319058Y-128422403D01*
X200239870Y-128613579D01*
X200239868Y-128613587D01*
X200199500Y-128816530D01*
X199760499Y-128816530D01*
X199720130Y-128613580D01*
X199640941Y-128422402D01*
X199525977Y-128250345D01*
X199525975Y-128250342D01*
X199379657Y-128104024D01*
X199271505Y-128031760D01*
X199207598Y-127989059D01*
X199122741Y-127953910D01*
X199016420Y-127909870D01*
X199016412Y-127909868D01*
X198813469Y-127869500D01*
X198813465Y-127869500D01*
X198606535Y-127869500D01*
X198606530Y-127869500D01*
X198403587Y-127909868D01*
X198403579Y-127909870D01*
X198212403Y-127989058D01*
X198040342Y-128104024D01*
X197894024Y-128250342D01*
X197779058Y-128422403D01*
X197699870Y-128613579D01*
X197699868Y-128613587D01*
X197659500Y-128816530D01*
X197220499Y-128816530D01*
X197180130Y-128613580D01*
X197100941Y-128422402D01*
X196985977Y-128250345D01*
X196985975Y-128250342D01*
X196839657Y-128104024D01*
X196731505Y-128031760D01*
X196667598Y-127989059D01*
X196582741Y-127953910D01*
X196476420Y-127909870D01*
X196476412Y-127909868D01*
X196273469Y-127869500D01*
X196273465Y-127869500D01*
X196066535Y-127869500D01*
X196066530Y-127869500D01*
X195863587Y-127909868D01*
X195863579Y-127909870D01*
X195672403Y-127989058D01*
X195500342Y-128104024D01*
X195354024Y-128250342D01*
X195239058Y-128422403D01*
X195159870Y-128613579D01*
X195159868Y-128613587D01*
X195119500Y-128816530D01*
X194680499Y-128816530D01*
X194640130Y-128613580D01*
X194560941Y-128422402D01*
X194445977Y-128250345D01*
X194445975Y-128250342D01*
X194299657Y-128104024D01*
X194191505Y-128031760D01*
X194127598Y-127989059D01*
X194042741Y-127953910D01*
X193936420Y-127909870D01*
X193936412Y-127909868D01*
X193733469Y-127869500D01*
X193733465Y-127869500D01*
X193526535Y-127869500D01*
X193526530Y-127869500D01*
X193323587Y-127909868D01*
X193323579Y-127909870D01*
X193132403Y-127989058D01*
X192960342Y-128104024D01*
X192814024Y-128250342D01*
X192699058Y-128422403D01*
X192619870Y-128613579D01*
X192619868Y-128613587D01*
X192579500Y-128816530D01*
X192140499Y-128816530D01*
X192100130Y-128613580D01*
X192020941Y-128422402D01*
X191905977Y-128250345D01*
X191905975Y-128250342D01*
X191759657Y-128104024D01*
X191651505Y-128031760D01*
X191587598Y-127989059D01*
X191502741Y-127953910D01*
X191396420Y-127909870D01*
X191396412Y-127909868D01*
X191193469Y-127869500D01*
X191193465Y-127869500D01*
X190986535Y-127869500D01*
X190986530Y-127869500D01*
X190783587Y-127909868D01*
X190783579Y-127909870D01*
X190592403Y-127989058D01*
X190420342Y-128104024D01*
X190274024Y-128250342D01*
X190159057Y-128422403D01*
X190090835Y-128587108D01*
X190046994Y-128641511D01*
X189980700Y-128663576D01*
X189913000Y-128646297D01*
X189865390Y-128595159D01*
X189858343Y-128577973D01*
X189801095Y-128401782D01*
X189704624Y-128212449D01*
X189665270Y-128158282D01*
X189665269Y-128158282D01*
X189032962Y-128790590D01*
X189015925Y-128727007D01*
X188950099Y-128612993D01*
X188857007Y-128519901D01*
X188742993Y-128454075D01*
X188679409Y-128437037D01*
X189311716Y-127804728D01*
X189257550Y-127765375D01*
X189068217Y-127668904D01*
X188866129Y-127603242D01*
X188656246Y-127570000D01*
X188443754Y-127570000D01*
X188233872Y-127603242D01*
X188233869Y-127603242D01*
X188031782Y-127668904D01*
X187842439Y-127765380D01*
X187788282Y-127804727D01*
X187788282Y-127804728D01*
X188420591Y-128437037D01*
X188357007Y-128454075D01*
X188242993Y-128519901D01*
X188149901Y-128612993D01*
X188084075Y-128727007D01*
X188067037Y-128790591D01*
X187434728Y-128158282D01*
X187434727Y-128158282D01*
X187395380Y-128212439D01*
X187298905Y-128401781D01*
X187241656Y-128577974D01*
X187202218Y-128635649D01*
X187137859Y-128662847D01*
X187069013Y-128650932D01*
X187017537Y-128603688D01*
X187009164Y-128587107D01*
X187003759Y-128574059D01*
X186974217Y-128502736D01*
X186940943Y-128422405D01*
X186825975Y-128250342D01*
X186679657Y-128104024D01*
X186571505Y-128031760D01*
X186507598Y-127989059D01*
X186316420Y-127909870D01*
X186316412Y-127909868D01*
X186113469Y-127869500D01*
X186113465Y-127869500D01*
X185906535Y-127869500D01*
X185906530Y-127869500D01*
X185703587Y-127909868D01*
X185703579Y-127909870D01*
X185512403Y-127989058D01*
X185340342Y-128104024D01*
X185194024Y-128250342D01*
X185079058Y-128422403D01*
X184999870Y-128613579D01*
X184999868Y-128613587D01*
X184959500Y-128816530D01*
X184520499Y-128816530D01*
X184480130Y-128613580D01*
X184400941Y-128422402D01*
X184285977Y-128250345D01*
X184285975Y-128250342D01*
X184139657Y-128104024D01*
X184031505Y-128031760D01*
X183967598Y-127989059D01*
X183882741Y-127953910D01*
X183776420Y-127909870D01*
X183776412Y-127909868D01*
X183573469Y-127869500D01*
X183573465Y-127869500D01*
X183366535Y-127869500D01*
X183366530Y-127869500D01*
X183163587Y-127909868D01*
X183163579Y-127909870D01*
X182972403Y-127989058D01*
X182800342Y-128104024D01*
X182654024Y-128250342D01*
X182539058Y-128422403D01*
X182459870Y-128613579D01*
X182459868Y-128613587D01*
X182419500Y-128816530D01*
X177770395Y-128816530D01*
X177698870Y-128676155D01*
X177669441Y-128635649D01*
X177550798Y-128472350D01*
X177550794Y-128472345D01*
X177372654Y-128294205D01*
X177372649Y-128294201D01*
X177168848Y-128146132D01*
X177168847Y-128146131D01*
X177168845Y-128146130D01*
X177086205Y-128104023D01*
X176944383Y-128031760D01*
X176704785Y-127953910D01*
X176546942Y-127928910D01*
X176455962Y-127914500D01*
X176204038Y-127914500D01*
X176113058Y-127928910D01*
X175955214Y-127953910D01*
X175715616Y-128031760D01*
X175491151Y-128146132D01*
X175287350Y-128294201D01*
X175287345Y-128294205D01*
X175109205Y-128472345D01*
X175109201Y-128472350D01*
X174961132Y-128676151D01*
X174846760Y-128900616D01*
X174768910Y-129140214D01*
X174749617Y-129262026D01*
X174729500Y-129389038D01*
X173568014Y-129389038D01*
X173537635Y-129236310D01*
X173530130Y-129198580D01*
X173450941Y-129007402D01*
X173335977Y-128835345D01*
X173335975Y-128835342D01*
X173189657Y-128689024D01*
X173061941Y-128603688D01*
X173017598Y-128574059D01*
X172826420Y-128494870D01*
X172826412Y-128494868D01*
X172623469Y-128454500D01*
X172623465Y-128454500D01*
X172416535Y-128454500D01*
X172416530Y-128454500D01*
X172213587Y-128494868D01*
X172213579Y-128494870D01*
X172022403Y-128574058D01*
X171850342Y-128689024D01*
X171704024Y-128835342D01*
X171589058Y-129007403D01*
X171509870Y-129198579D01*
X171509868Y-129198587D01*
X171469500Y-129401530D01*
X171030499Y-129401530D01*
X170990130Y-129198580D01*
X170910941Y-129007402D01*
X170795977Y-128835345D01*
X170795975Y-128835342D01*
X170649657Y-128689024D01*
X170521941Y-128603688D01*
X170477598Y-128574059D01*
X170286420Y-128494870D01*
X170286412Y-128494868D01*
X170083469Y-128454500D01*
X170083465Y-128454500D01*
X169876535Y-128454500D01*
X169876530Y-128454500D01*
X169673587Y-128494868D01*
X169673579Y-128494870D01*
X169482403Y-128574058D01*
X169310342Y-128689024D01*
X169164024Y-128835342D01*
X169049058Y-129007403D01*
X168969870Y-129198579D01*
X168969868Y-129198587D01*
X168929500Y-129401530D01*
X168490499Y-129401530D01*
X168450130Y-129198580D01*
X168370941Y-129007402D01*
X168255977Y-128835345D01*
X168255975Y-128835342D01*
X168109657Y-128689024D01*
X167981941Y-128603688D01*
X167937598Y-128574059D01*
X167746420Y-128494870D01*
X167746412Y-128494868D01*
X167543469Y-128454500D01*
X167543465Y-128454500D01*
X167336535Y-128454500D01*
X167336530Y-128454500D01*
X167133587Y-128494868D01*
X167133579Y-128494870D01*
X166942403Y-128574058D01*
X166770342Y-128689024D01*
X166624024Y-128835342D01*
X166509057Y-129007403D01*
X166440835Y-129172108D01*
X166396994Y-129226511D01*
X166330700Y-129248576D01*
X166263000Y-129231297D01*
X166215390Y-129180159D01*
X166208343Y-129162973D01*
X166151095Y-128986782D01*
X166054624Y-128797449D01*
X166015270Y-128743282D01*
X166015269Y-128743282D01*
X165382962Y-129375590D01*
X165365925Y-129312007D01*
X165300099Y-129197993D01*
X165207007Y-129104901D01*
X165092993Y-129039075D01*
X165029409Y-129022037D01*
X165661716Y-128389728D01*
X165607550Y-128350375D01*
X165418217Y-128253904D01*
X165216129Y-128188242D01*
X165006246Y-128155000D01*
X164793754Y-128155000D01*
X164583872Y-128188242D01*
X164583869Y-128188242D01*
X164381782Y-128253904D01*
X164192439Y-128350380D01*
X164138282Y-128389727D01*
X164138282Y-128389728D01*
X164770591Y-129022037D01*
X164707007Y-129039075D01*
X164592993Y-129104901D01*
X164499901Y-129197993D01*
X164434075Y-129312007D01*
X164417037Y-129375591D01*
X163784728Y-128743282D01*
X163784727Y-128743282D01*
X163745380Y-128797439D01*
X163648905Y-128986781D01*
X163591656Y-129162974D01*
X163552218Y-129220649D01*
X163487859Y-129247847D01*
X163419013Y-129235932D01*
X163367537Y-129188688D01*
X163359164Y-129172107D01*
X163290943Y-129007405D01*
X163175975Y-128835342D01*
X163029657Y-128689024D01*
X162901941Y-128603688D01*
X162857598Y-128574059D01*
X162666420Y-128494870D01*
X162666412Y-128494868D01*
X162463469Y-128454500D01*
X162463465Y-128454500D01*
X162256535Y-128454500D01*
X162256530Y-128454500D01*
X162053587Y-128494868D01*
X162053579Y-128494870D01*
X161862403Y-128574058D01*
X161690342Y-128689024D01*
X161544024Y-128835342D01*
X161429058Y-129007403D01*
X161349870Y-129198579D01*
X161349868Y-129198587D01*
X161309500Y-129401530D01*
X161309500Y-129608469D01*
X161349868Y-129811412D01*
X161349871Y-129811424D01*
X161389448Y-129906971D01*
X161396917Y-129976440D01*
X161365642Y-130038919D01*
X161362568Y-130042104D01*
X161062615Y-130342057D01*
X161001292Y-130375542D01*
X160931600Y-130370558D01*
X160875667Y-130328686D01*
X160851250Y-130263222D01*
X160857893Y-130213420D01*
X160867614Y-130185638D01*
X160870500Y-130154867D01*
X160870500Y-128855132D01*
X160867614Y-128824360D01*
X160867614Y-128824358D01*
X160822263Y-128694756D01*
X160822263Y-128694755D01*
X160740725Y-128584275D01*
X160630245Y-128502737D01*
X160630243Y-128502736D01*
X160500640Y-128457385D01*
X160469868Y-128454500D01*
X160469864Y-128454500D01*
X159170136Y-128454500D01*
X159170132Y-128454500D01*
X159139360Y-128457385D01*
X159139358Y-128457385D01*
X159009756Y-128502736D01*
X158899275Y-128584275D01*
X158817736Y-128694756D01*
X158772385Y-128824358D01*
X158772385Y-128824360D01*
X158769500Y-128855132D01*
X158769500Y-130154867D01*
X158772385Y-130185639D01*
X158772385Y-130185641D01*
X158817736Y-130315243D01*
X158817737Y-130315245D01*
X158899275Y-130425725D01*
X159009755Y-130507263D01*
X159032235Y-130515129D01*
X159139359Y-130552614D01*
X159170132Y-130555500D01*
X159170136Y-130555500D01*
X160469868Y-130555500D01*
X160494484Y-130553191D01*
X160500639Y-130552614D01*
X160528420Y-130542892D01*
X160598198Y-130539330D01*
X160658826Y-130574058D01*
X160691054Y-130636051D01*
X160684650Y-130705627D01*
X160657057Y-130747615D01*
X156071492Y-135333181D01*
X156010169Y-135366666D01*
X155983811Y-135369500D01*
X140137199Y-135369500D01*
X140070160Y-135349815D01*
X140024405Y-135297011D01*
X140014461Y-135227853D01*
X140043486Y-135164297D01*
X140051791Y-135156471D01*
X140051567Y-135156247D01*
X140097422Y-135110392D01*
X140150500Y-135057314D01*
X140216392Y-134943186D01*
X140250500Y-134815892D01*
X140250500Y-134684108D01*
X140216392Y-134556814D01*
X140150500Y-134442686D01*
X140057314Y-134349500D01*
X140000250Y-134316554D01*
X139943187Y-134283608D01*
X139851477Y-134259035D01*
X139815892Y-134249500D01*
X139684108Y-134249500D01*
X139556812Y-134283608D01*
X139442686Y-134349500D01*
X139442683Y-134349502D01*
X139404005Y-134388181D01*
X139342682Y-134421666D01*
X139316324Y-134424500D01*
X135433676Y-134424500D01*
X135366637Y-134404815D01*
X135345995Y-134388181D01*
X135307316Y-134349502D01*
X135307314Y-134349500D01*
X135250250Y-134316554D01*
X135193187Y-134283608D01*
X135101477Y-134259035D01*
X135065892Y-134249500D01*
X134934108Y-134249500D01*
X134806812Y-134283608D01*
X134692686Y-134349500D01*
X134692683Y-134349502D01*
X134599502Y-134442683D01*
X134599500Y-134442686D01*
X134533608Y-134556812D01*
X134503572Y-134668912D01*
X134499500Y-134684108D01*
X134499500Y-134815892D01*
X134516554Y-134879539D01*
X134533608Y-134943187D01*
X134555069Y-134980357D01*
X134599500Y-135057314D01*
X134599502Y-135057316D01*
X134698433Y-135156247D01*
X134696418Y-135158261D01*
X134729487Y-135203543D01*
X134733647Y-135273289D01*
X134699440Y-135334212D01*
X134637725Y-135366969D01*
X134612801Y-135369500D01*
X120150098Y-135369500D01*
X120083059Y-135349815D01*
X120062417Y-135333181D01*
X118884491Y-134155255D01*
X117687613Y-132958378D01*
X117654129Y-132897056D01*
X117659113Y-132827364D01*
X117700985Y-132771431D01*
X117766449Y-132747014D01*
X117813609Y-132752766D01*
X117874875Y-132772673D01*
X118044254Y-132799500D01*
X118044255Y-132799500D01*
X118215745Y-132799500D01*
X118215746Y-132799500D01*
X118385125Y-132772673D01*
X118548223Y-132719679D01*
X118701022Y-132641824D01*
X118839762Y-132541024D01*
X118961024Y-132419762D01*
X119061824Y-132281022D01*
X119139679Y-132128223D01*
X119192673Y-131965125D01*
X119219500Y-131795746D01*
X119219500Y-131624254D01*
X119580500Y-131624254D01*
X119580500Y-131795745D01*
X119607326Y-131965122D01*
X119607327Y-131965125D01*
X119660321Y-132128223D01*
X119718901Y-132243193D01*
X119738178Y-132281025D01*
X119838970Y-132419755D01*
X119838974Y-132419760D01*
X119960239Y-132541025D01*
X119960244Y-132541029D01*
X120081251Y-132628945D01*
X120098978Y-132641824D01*
X120251777Y-132719679D01*
X120414875Y-132772673D01*
X120584254Y-132799500D01*
X120584255Y-132799500D01*
X120755745Y-132799500D01*
X120755746Y-132799500D01*
X120925125Y-132772673D01*
X121088223Y-132719679D01*
X121241022Y-132641824D01*
X121379762Y-132541024D01*
X121501024Y-132419762D01*
X121601824Y-132281022D01*
X121679679Y-132128223D01*
X121732673Y-131965125D01*
X121759500Y-131795746D01*
X121759500Y-131624254D01*
X122120500Y-131624254D01*
X122120500Y-131795745D01*
X122147326Y-131965122D01*
X122147327Y-131965125D01*
X122200321Y-132128223D01*
X122258901Y-132243193D01*
X122278178Y-132281025D01*
X122378970Y-132419755D01*
X122378974Y-132419760D01*
X122500239Y-132541025D01*
X122500244Y-132541029D01*
X122621251Y-132628945D01*
X122638978Y-132641824D01*
X122791777Y-132719679D01*
X122954875Y-132772673D01*
X123124254Y-132799500D01*
X123124255Y-132799500D01*
X123295745Y-132799500D01*
X123295746Y-132799500D01*
X123465125Y-132772673D01*
X123628223Y-132719679D01*
X123781022Y-132641824D01*
X123919762Y-132541024D01*
X124041024Y-132419762D01*
X124141824Y-132281022D01*
X124219679Y-132128223D01*
X124272673Y-131965125D01*
X124299500Y-131795746D01*
X124299500Y-131624254D01*
X124660500Y-131624254D01*
X124660500Y-131795745D01*
X124687326Y-131965122D01*
X124687327Y-131965125D01*
X124740321Y-132128223D01*
X124798901Y-132243193D01*
X124818178Y-132281025D01*
X124918970Y-132419755D01*
X124918974Y-132419760D01*
X125040239Y-132541025D01*
X125040244Y-132541029D01*
X125161251Y-132628945D01*
X125178978Y-132641824D01*
X125331777Y-132719679D01*
X125494875Y-132772673D01*
X125664254Y-132799500D01*
X125664255Y-132799500D01*
X125835745Y-132799500D01*
X125835746Y-132799500D01*
X126005125Y-132772673D01*
X126168223Y-132719679D01*
X126321022Y-132641824D01*
X126459762Y-132541024D01*
X126581024Y-132419762D01*
X126681824Y-132281022D01*
X126759679Y-132128223D01*
X126812673Y-131965125D01*
X126839500Y-131795746D01*
X126839500Y-131624254D01*
X127200500Y-131624254D01*
X127200500Y-131795745D01*
X127227326Y-131965122D01*
X127227327Y-131965125D01*
X127280321Y-132128223D01*
X127338901Y-132243193D01*
X127358178Y-132281025D01*
X127458970Y-132419755D01*
X127458974Y-132419760D01*
X127580239Y-132541025D01*
X127580244Y-132541029D01*
X127701251Y-132628945D01*
X127718978Y-132641824D01*
X127871777Y-132719679D01*
X128034875Y-132772673D01*
X128204254Y-132799500D01*
X128204255Y-132799500D01*
X128375745Y-132799500D01*
X128375746Y-132799500D01*
X128545125Y-132772673D01*
X128708223Y-132719679D01*
X128861022Y-132641824D01*
X128999762Y-132541024D01*
X129121024Y-132419762D01*
X129221824Y-132281022D01*
X129299679Y-132128223D01*
X129352673Y-131965125D01*
X129379500Y-131795746D01*
X129379500Y-131624254D01*
X129740500Y-131624254D01*
X129740500Y-131795745D01*
X129767326Y-131965122D01*
X129767327Y-131965125D01*
X129820321Y-132128223D01*
X129878901Y-132243193D01*
X129898178Y-132281025D01*
X129998970Y-132419755D01*
X129998974Y-132419760D01*
X130120239Y-132541025D01*
X130120244Y-132541029D01*
X130241251Y-132628945D01*
X130258978Y-132641824D01*
X130411777Y-132719679D01*
X130574875Y-132772673D01*
X130744254Y-132799500D01*
X130744255Y-132799500D01*
X130915745Y-132799500D01*
X130915746Y-132799500D01*
X131085125Y-132772673D01*
X131248223Y-132719679D01*
X131401022Y-132641824D01*
X131539762Y-132541024D01*
X131661024Y-132419762D01*
X131761824Y-132281022D01*
X131839679Y-132128223D01*
X131892673Y-131965125D01*
X131919500Y-131795746D01*
X131919500Y-131624254D01*
X132280500Y-131624254D01*
X132280500Y-131795745D01*
X132307326Y-131965122D01*
X132307327Y-131965125D01*
X132360321Y-132128223D01*
X132418901Y-132243193D01*
X132438178Y-132281025D01*
X132538970Y-132419755D01*
X132538974Y-132419760D01*
X132660239Y-132541025D01*
X132660244Y-132541029D01*
X132781251Y-132628945D01*
X132798978Y-132641824D01*
X132951777Y-132719679D01*
X133114875Y-132772673D01*
X133284254Y-132799500D01*
X133284255Y-132799500D01*
X133455745Y-132799500D01*
X133455746Y-132799500D01*
X133625125Y-132772673D01*
X133788223Y-132719679D01*
X133941022Y-132641824D01*
X134079762Y-132541024D01*
X134201024Y-132419762D01*
X134301824Y-132281022D01*
X134379679Y-132128223D01*
X134432673Y-131965125D01*
X134459500Y-131795746D01*
X134459500Y-131624254D01*
X134820500Y-131624254D01*
X134820500Y-131795745D01*
X134847326Y-131965122D01*
X134847327Y-131965125D01*
X134900321Y-132128223D01*
X134958901Y-132243193D01*
X134978178Y-132281025D01*
X135078970Y-132419755D01*
X135078974Y-132419760D01*
X135200239Y-132541025D01*
X135200244Y-132541029D01*
X135321251Y-132628945D01*
X135338978Y-132641824D01*
X135491777Y-132719679D01*
X135654875Y-132772673D01*
X135824254Y-132799500D01*
X135824255Y-132799500D01*
X135995745Y-132799500D01*
X135995746Y-132799500D01*
X136165125Y-132772673D01*
X136328223Y-132719679D01*
X136481022Y-132641824D01*
X136619762Y-132541024D01*
X136741024Y-132419762D01*
X136841824Y-132281022D01*
X136919679Y-132128223D01*
X136972673Y-131965125D01*
X136999500Y-131795746D01*
X136999500Y-131624254D01*
X137360500Y-131624254D01*
X137360500Y-131795745D01*
X137387326Y-131965122D01*
X137387327Y-131965125D01*
X137440321Y-132128223D01*
X137498901Y-132243193D01*
X137518178Y-132281025D01*
X137618970Y-132419755D01*
X137618974Y-132419760D01*
X137740239Y-132541025D01*
X137740244Y-132541029D01*
X137861251Y-132628945D01*
X137878978Y-132641824D01*
X138031777Y-132719679D01*
X138194875Y-132772673D01*
X138364254Y-132799500D01*
X138364255Y-132799500D01*
X138535745Y-132799500D01*
X138535746Y-132799500D01*
X138705125Y-132772673D01*
X138868223Y-132719679D01*
X139021022Y-132641824D01*
X139159762Y-132541024D01*
X139281024Y-132419762D01*
X139381824Y-132281022D01*
X139459679Y-132128223D01*
X139512673Y-131965125D01*
X139539500Y-131795746D01*
X139539500Y-131624254D01*
X139900500Y-131624254D01*
X139900500Y-131795745D01*
X139927326Y-131965122D01*
X139927327Y-131965125D01*
X139980321Y-132128223D01*
X140038901Y-132243193D01*
X140058178Y-132281025D01*
X140158970Y-132419755D01*
X140158974Y-132419760D01*
X140280239Y-132541025D01*
X140280244Y-132541029D01*
X140401251Y-132628945D01*
X140418978Y-132641824D01*
X140571777Y-132719679D01*
X140734875Y-132772673D01*
X140904254Y-132799500D01*
X140904255Y-132799500D01*
X141075745Y-132799500D01*
X141075746Y-132799500D01*
X141245125Y-132772673D01*
X141408223Y-132719679D01*
X141561022Y-132641824D01*
X141699762Y-132541024D01*
X141821024Y-132419762D01*
X141921824Y-132281022D01*
X141999679Y-132128223D01*
X142052673Y-131965125D01*
X142079500Y-131795746D01*
X142079500Y-131624254D01*
X142440500Y-131624254D01*
X142440500Y-131795745D01*
X142467326Y-131965122D01*
X142467327Y-131965125D01*
X142520321Y-132128223D01*
X142578901Y-132243193D01*
X142598178Y-132281025D01*
X142698970Y-132419755D01*
X142698974Y-132419760D01*
X142820239Y-132541025D01*
X142820244Y-132541029D01*
X142941251Y-132628945D01*
X142958978Y-132641824D01*
X143111777Y-132719679D01*
X143274875Y-132772673D01*
X143444254Y-132799500D01*
X143444255Y-132799500D01*
X143615745Y-132799500D01*
X143615746Y-132799500D01*
X143785125Y-132772673D01*
X143948223Y-132719679D01*
X144101022Y-132641824D01*
X144239762Y-132541024D01*
X144361024Y-132419762D01*
X144461824Y-132281022D01*
X144529392Y-132148411D01*
X144577366Y-132097615D01*
X144645187Y-132080820D01*
X144711322Y-132103357D01*
X144754774Y-132158072D01*
X144757808Y-132166388D01*
X144782761Y-132243188D01*
X144782762Y-132243191D01*
X144882020Y-132437993D01*
X144882021Y-132437995D01*
X144926806Y-132499638D01*
X144926807Y-132499638D01*
X145580504Y-131845941D01*
X145596619Y-131906081D01*
X145663498Y-132021920D01*
X145758080Y-132116502D01*
X145873919Y-132183381D01*
X145934057Y-132199494D01*
X145280360Y-132853191D01*
X145342008Y-132897980D01*
X145536808Y-132997237D01*
X145536811Y-132997238D01*
X145744740Y-133064797D01*
X145960684Y-133099000D01*
X146179316Y-133099000D01*
X146395259Y-133064797D01*
X146603188Y-132997238D01*
X146603191Y-132997237D01*
X146797995Y-132897978D01*
X146859638Y-132853191D01*
X146859639Y-132853191D01*
X146205942Y-132199495D01*
X146266081Y-132183381D01*
X146381920Y-132116502D01*
X146476502Y-132021920D01*
X146543381Y-131906081D01*
X146559494Y-131845942D01*
X147213191Y-132499639D01*
X147213191Y-132499638D01*
X147257978Y-132437995D01*
X147357235Y-132243193D01*
X147382190Y-132166389D01*
X147421627Y-132108713D01*
X147485985Y-132081514D01*
X147554832Y-132093428D01*
X147606308Y-132140671D01*
X147610607Y-132148411D01*
X147678178Y-132281025D01*
X147778970Y-132419755D01*
X147778974Y-132419760D01*
X147900239Y-132541025D01*
X147900244Y-132541029D01*
X148021251Y-132628945D01*
X148038978Y-132641824D01*
X148191777Y-132719679D01*
X148354875Y-132772673D01*
X148524254Y-132799500D01*
X148524255Y-132799500D01*
X148695745Y-132799500D01*
X148695746Y-132799500D01*
X148865125Y-132772673D01*
X149028223Y-132719679D01*
X149181022Y-132641824D01*
X149319762Y-132541024D01*
X149441024Y-132419762D01*
X149541824Y-132281022D01*
X149619679Y-132128223D01*
X149672673Y-131965125D01*
X149699500Y-131795746D01*
X149699500Y-131745317D01*
X150074000Y-131745317D01*
X150074000Y-131914682D01*
X150100495Y-132081965D01*
X150100495Y-132081968D01*
X150152830Y-132243038D01*
X150180604Y-132297547D01*
X150229722Y-132393947D01*
X150329273Y-132530967D01*
X150449033Y-132650727D01*
X150586053Y-132750278D01*
X150728873Y-132823048D01*
X150736961Y-132827169D01*
X150898032Y-132879504D01*
X150898033Y-132879504D01*
X150898036Y-132879505D01*
X151065317Y-132906000D01*
X151065318Y-132906000D01*
X151234682Y-132906000D01*
X151234683Y-132906000D01*
X151401964Y-132879505D01*
X151401967Y-132879504D01*
X151401968Y-132879504D01*
X151563038Y-132827169D01*
X151563038Y-132827168D01*
X151563041Y-132827168D01*
X151713947Y-132750278D01*
X151850967Y-132650727D01*
X151970727Y-132530967D01*
X152070278Y-132393947D01*
X152147168Y-132243041D01*
X152199505Y-132081964D01*
X152226000Y-131914683D01*
X152226000Y-131745317D01*
X152199505Y-131578036D01*
X152199504Y-131578032D01*
X152199504Y-131578031D01*
X152147169Y-131416961D01*
X152137549Y-131398080D01*
X152070278Y-131266053D01*
X151970727Y-131129033D01*
X151850967Y-131009273D01*
X151713947Y-130909722D01*
X151668905Y-130886772D01*
X151563038Y-130832830D01*
X151401967Y-130780495D01*
X151276503Y-130760623D01*
X151234683Y-130754000D01*
X151065317Y-130754000D01*
X151009556Y-130762831D01*
X150898034Y-130780495D01*
X150898031Y-130780495D01*
X150736961Y-130832830D01*
X150586052Y-130909722D01*
X150563696Y-130925965D01*
X150449033Y-131009273D01*
X150449031Y-131009275D01*
X150449030Y-131009275D01*
X150329275Y-131129030D01*
X150329275Y-131129031D01*
X150329273Y-131129033D01*
X150322048Y-131138978D01*
X150229722Y-131266052D01*
X150152830Y-131416961D01*
X150100495Y-131578031D01*
X150100495Y-131578034D01*
X150074000Y-131745317D01*
X149699500Y-131745317D01*
X149699500Y-131624254D01*
X149672673Y-131454875D01*
X149619679Y-131291777D01*
X149541824Y-131138978D01*
X149506603Y-131090500D01*
X149441029Y-131000244D01*
X149441025Y-131000239D01*
X149319760Y-130878974D01*
X149319755Y-130878970D01*
X149181025Y-130778178D01*
X149181024Y-130778177D01*
X149181022Y-130778176D01*
X149028223Y-130700321D01*
X148865125Y-130647327D01*
X148865123Y-130647326D01*
X148865122Y-130647326D01*
X148735009Y-130626718D01*
X148695746Y-130620500D01*
X148524254Y-130620500D01*
X148492379Y-130625548D01*
X148354877Y-130647326D01*
X148191774Y-130700322D01*
X148038974Y-130778178D01*
X147900244Y-130878970D01*
X147900239Y-130878974D01*
X147778974Y-131000239D01*
X147778970Y-131000244D01*
X147678175Y-131138978D01*
X147678174Y-131138979D01*
X147610606Y-131271588D01*
X147562632Y-131322384D01*
X147494811Y-131339179D01*
X147428676Y-131316641D01*
X147385225Y-131261926D01*
X147382191Y-131253610D01*
X147357239Y-131176814D01*
X147357237Y-131176808D01*
X147257980Y-130982008D01*
X147213191Y-130920360D01*
X146559494Y-131574057D01*
X146543381Y-131513919D01*
X146476502Y-131398080D01*
X146381920Y-131303498D01*
X146266081Y-131236619D01*
X146205940Y-131220504D01*
X146859638Y-130566807D01*
X146859638Y-130566806D01*
X146797995Y-130522021D01*
X146797993Y-130522020D01*
X146603191Y-130422762D01*
X146603188Y-130422761D01*
X146395259Y-130355202D01*
X146179316Y-130321000D01*
X145960684Y-130321000D01*
X145744740Y-130355202D01*
X145536811Y-130422761D01*
X145536808Y-130422762D01*
X145342001Y-130522023D01*
X145280360Y-130566806D01*
X145280360Y-130566807D01*
X145934057Y-131220504D01*
X145873919Y-131236619D01*
X145758080Y-131303498D01*
X145663498Y-131398080D01*
X145596619Y-131513919D01*
X145580504Y-131574057D01*
X144926807Y-130920360D01*
X144926806Y-130920360D01*
X144882023Y-130982001D01*
X144782762Y-131176808D01*
X144782761Y-131176811D01*
X144757808Y-131253611D01*
X144718370Y-131311287D01*
X144654012Y-131338485D01*
X144585165Y-131326570D01*
X144533690Y-131279326D01*
X144529392Y-131271588D01*
X144511938Y-131237332D01*
X144461824Y-131138978D01*
X144461822Y-131138975D01*
X144461821Y-131138973D01*
X144361029Y-131000244D01*
X144361025Y-131000239D01*
X144239760Y-130878974D01*
X144239755Y-130878970D01*
X144101025Y-130778178D01*
X144101024Y-130778177D01*
X144101022Y-130778176D01*
X143948223Y-130700321D01*
X143785125Y-130647327D01*
X143785123Y-130647326D01*
X143785122Y-130647326D01*
X143655009Y-130626718D01*
X143615746Y-130620500D01*
X143444254Y-130620500D01*
X143412379Y-130625548D01*
X143274877Y-130647326D01*
X143111774Y-130700322D01*
X142958974Y-130778178D01*
X142820244Y-130878970D01*
X142820239Y-130878974D01*
X142698974Y-131000239D01*
X142698970Y-131000244D01*
X142598178Y-131138974D01*
X142520322Y-131291774D01*
X142467326Y-131454877D01*
X142440500Y-131624254D01*
X142079500Y-131624254D01*
X142052673Y-131454875D01*
X141999679Y-131291777D01*
X141921824Y-131138978D01*
X141886603Y-131090500D01*
X141821029Y-131000244D01*
X141821025Y-131000239D01*
X141699760Y-130878974D01*
X141699755Y-130878970D01*
X141561025Y-130778178D01*
X141561024Y-130778177D01*
X141561022Y-130778176D01*
X141408223Y-130700321D01*
X141245125Y-130647327D01*
X141245123Y-130647326D01*
X141245122Y-130647326D01*
X141115009Y-130626718D01*
X141075746Y-130620500D01*
X140904254Y-130620500D01*
X140872379Y-130625548D01*
X140734877Y-130647326D01*
X140571774Y-130700322D01*
X140418974Y-130778178D01*
X140280244Y-130878970D01*
X140280239Y-130878974D01*
X140158974Y-131000239D01*
X140158970Y-131000244D01*
X140058178Y-131138974D01*
X139980322Y-131291774D01*
X139927326Y-131454877D01*
X139900500Y-131624254D01*
X139539500Y-131624254D01*
X139512673Y-131454875D01*
X139459679Y-131291777D01*
X139381824Y-131138978D01*
X139346603Y-131090500D01*
X139281029Y-131000244D01*
X139281025Y-131000239D01*
X139159760Y-130878974D01*
X139159755Y-130878970D01*
X139021025Y-130778178D01*
X139021024Y-130778177D01*
X139021022Y-130778176D01*
X138868223Y-130700321D01*
X138705125Y-130647327D01*
X138705123Y-130647326D01*
X138705122Y-130647326D01*
X138575009Y-130626718D01*
X138535746Y-130620500D01*
X138364254Y-130620500D01*
X138332379Y-130625548D01*
X138194877Y-130647326D01*
X138031774Y-130700322D01*
X137878974Y-130778178D01*
X137740244Y-130878970D01*
X137740239Y-130878974D01*
X137618974Y-131000239D01*
X137618970Y-131000244D01*
X137518178Y-131138974D01*
X137440322Y-131291774D01*
X137387326Y-131454877D01*
X137360500Y-131624254D01*
X136999500Y-131624254D01*
X136972673Y-131454875D01*
X136919679Y-131291777D01*
X136841824Y-131138978D01*
X136806603Y-131090500D01*
X136741029Y-131000244D01*
X136741025Y-131000239D01*
X136619760Y-130878974D01*
X136619755Y-130878970D01*
X136481025Y-130778178D01*
X136481024Y-130778177D01*
X136481022Y-130778176D01*
X136328223Y-130700321D01*
X136165125Y-130647327D01*
X136165123Y-130647326D01*
X136165122Y-130647326D01*
X136035009Y-130626718D01*
X135995746Y-130620500D01*
X135824254Y-130620500D01*
X135792379Y-130625548D01*
X135654877Y-130647326D01*
X135491774Y-130700322D01*
X135338974Y-130778178D01*
X135200244Y-130878970D01*
X135200239Y-130878974D01*
X135078974Y-131000239D01*
X135078970Y-131000244D01*
X134978178Y-131138974D01*
X134900322Y-131291774D01*
X134847326Y-131454877D01*
X134820500Y-131624254D01*
X134459500Y-131624254D01*
X134432673Y-131454875D01*
X134379679Y-131291777D01*
X134301824Y-131138978D01*
X134266603Y-131090500D01*
X134201029Y-131000244D01*
X134201025Y-131000239D01*
X134079760Y-130878974D01*
X134079755Y-130878970D01*
X133941025Y-130778178D01*
X133941024Y-130778177D01*
X133941022Y-130778176D01*
X133788223Y-130700321D01*
X133625125Y-130647327D01*
X133625123Y-130647326D01*
X133625122Y-130647326D01*
X133495009Y-130626718D01*
X133455746Y-130620500D01*
X133284254Y-130620500D01*
X133252379Y-130625548D01*
X133114877Y-130647326D01*
X132951774Y-130700322D01*
X132798974Y-130778178D01*
X132660244Y-130878970D01*
X132660239Y-130878974D01*
X132538974Y-131000239D01*
X132538970Y-131000244D01*
X132438178Y-131138974D01*
X132360322Y-131291774D01*
X132307326Y-131454877D01*
X132280500Y-131624254D01*
X131919500Y-131624254D01*
X131892673Y-131454875D01*
X131839679Y-131291777D01*
X131761824Y-131138978D01*
X131726603Y-131090500D01*
X131661029Y-131000244D01*
X131661025Y-131000239D01*
X131539760Y-130878974D01*
X131539755Y-130878970D01*
X131401025Y-130778178D01*
X131401024Y-130778177D01*
X131401022Y-130778176D01*
X131248223Y-130700321D01*
X131085125Y-130647327D01*
X131085123Y-130647326D01*
X131085122Y-130647326D01*
X130955009Y-130626718D01*
X130915746Y-130620500D01*
X130744254Y-130620500D01*
X130712379Y-130625548D01*
X130574877Y-130647326D01*
X130411774Y-130700322D01*
X130258974Y-130778178D01*
X130120244Y-130878970D01*
X130120239Y-130878974D01*
X129998974Y-131000239D01*
X129998970Y-131000244D01*
X129898178Y-131138974D01*
X129820322Y-131291774D01*
X129767326Y-131454877D01*
X129740500Y-131624254D01*
X129379500Y-131624254D01*
X129352673Y-131454875D01*
X129299679Y-131291777D01*
X129221824Y-131138978D01*
X129186603Y-131090500D01*
X129121029Y-131000244D01*
X129121025Y-131000239D01*
X128999760Y-130878974D01*
X128999755Y-130878970D01*
X128861025Y-130778178D01*
X128861024Y-130778177D01*
X128861022Y-130778176D01*
X128708223Y-130700321D01*
X128545125Y-130647327D01*
X128545123Y-130647326D01*
X128545122Y-130647326D01*
X128415009Y-130626718D01*
X128375746Y-130620500D01*
X128204254Y-130620500D01*
X128172379Y-130625548D01*
X128034877Y-130647326D01*
X127871774Y-130700322D01*
X127718974Y-130778178D01*
X127580244Y-130878970D01*
X127580239Y-130878974D01*
X127458974Y-131000239D01*
X127458970Y-131000244D01*
X127358178Y-131138974D01*
X127280322Y-131291774D01*
X127227326Y-131454877D01*
X127200500Y-131624254D01*
X126839500Y-131624254D01*
X126812673Y-131454875D01*
X126759679Y-131291777D01*
X126681824Y-131138978D01*
X126646603Y-131090500D01*
X126581029Y-131000244D01*
X126581025Y-131000239D01*
X126459760Y-130878974D01*
X126459755Y-130878970D01*
X126321025Y-130778178D01*
X126321024Y-130778177D01*
X126321022Y-130778176D01*
X126168223Y-130700321D01*
X126005125Y-130647327D01*
X126005123Y-130647326D01*
X126005122Y-130647326D01*
X125875009Y-130626718D01*
X125835746Y-130620500D01*
X125664254Y-130620500D01*
X125632379Y-130625548D01*
X125494877Y-130647326D01*
X125331774Y-130700322D01*
X125178974Y-130778178D01*
X125040244Y-130878970D01*
X125040239Y-130878974D01*
X124918974Y-131000239D01*
X124918970Y-131000244D01*
X124818178Y-131138974D01*
X124740322Y-131291774D01*
X124687326Y-131454877D01*
X124660500Y-131624254D01*
X124299500Y-131624254D01*
X124272673Y-131454875D01*
X124219679Y-131291777D01*
X124141824Y-131138978D01*
X124106603Y-131090500D01*
X124041029Y-131000244D01*
X124041025Y-131000239D01*
X123919760Y-130878974D01*
X123919755Y-130878970D01*
X123781025Y-130778178D01*
X123781024Y-130778177D01*
X123781022Y-130778176D01*
X123628223Y-130700321D01*
X123465125Y-130647327D01*
X123465123Y-130647326D01*
X123465122Y-130647326D01*
X123335009Y-130626718D01*
X123295746Y-130620500D01*
X123124254Y-130620500D01*
X123092379Y-130625548D01*
X122954877Y-130647326D01*
X122791774Y-130700322D01*
X122638974Y-130778178D01*
X122500244Y-130878970D01*
X122500239Y-130878974D01*
X122378974Y-131000239D01*
X122378970Y-131000244D01*
X122278178Y-131138974D01*
X122200322Y-131291774D01*
X122147326Y-131454877D01*
X122120500Y-131624254D01*
X121759500Y-131624254D01*
X121732673Y-131454875D01*
X121679679Y-131291777D01*
X121601824Y-131138978D01*
X121566603Y-131090500D01*
X121501029Y-131000244D01*
X121501025Y-131000239D01*
X121379760Y-130878974D01*
X121379755Y-130878970D01*
X121241025Y-130778178D01*
X121241024Y-130778177D01*
X121241022Y-130778176D01*
X121088223Y-130700321D01*
X120925125Y-130647327D01*
X120925123Y-130647326D01*
X120925122Y-130647326D01*
X120795009Y-130626718D01*
X120755746Y-130620500D01*
X120584254Y-130620500D01*
X120552379Y-130625548D01*
X120414877Y-130647326D01*
X120251774Y-130700322D01*
X120098974Y-130778178D01*
X119960244Y-130878970D01*
X119960239Y-130878974D01*
X119838974Y-131000239D01*
X119838970Y-131000244D01*
X119738178Y-131138974D01*
X119660322Y-131291774D01*
X119607326Y-131454877D01*
X119580500Y-131624254D01*
X119219500Y-131624254D01*
X119192673Y-131454875D01*
X119139679Y-131291777D01*
X119061824Y-131138978D01*
X119026603Y-131090500D01*
X118961029Y-131000244D01*
X118961025Y-131000239D01*
X118839760Y-130878974D01*
X118839755Y-130878970D01*
X118701025Y-130778178D01*
X118701024Y-130778177D01*
X118701022Y-130778176D01*
X118548223Y-130700321D01*
X118385125Y-130647327D01*
X118385123Y-130647326D01*
X118385122Y-130647326D01*
X118255009Y-130626718D01*
X118215746Y-130620500D01*
X118044254Y-130620500D01*
X118012379Y-130625548D01*
X117874877Y-130647326D01*
X117711774Y-130700322D01*
X117558974Y-130778178D01*
X117420244Y-130878970D01*
X117420239Y-130878974D01*
X117298974Y-131000239D01*
X117298970Y-131000244D01*
X117198178Y-131138974D01*
X117120322Y-131291774D01*
X117067326Y-131454877D01*
X117040500Y-131624254D01*
X117040500Y-131795745D01*
X117067326Y-131965122D01*
X117087232Y-132026386D01*
X117089227Y-132096227D01*
X117053146Y-132156060D01*
X116990445Y-132186888D01*
X116921031Y-132178923D01*
X116881620Y-132152385D01*
X116703048Y-131973813D01*
X116669563Y-131912490D01*
X116668256Y-131866733D01*
X116679500Y-131795744D01*
X116679500Y-131624254D01*
X116663094Y-131520669D01*
X116652673Y-131454875D01*
X116599679Y-131291777D01*
X116521824Y-131138978D01*
X116486603Y-131090500D01*
X116421029Y-131000244D01*
X116421025Y-131000239D01*
X116299760Y-130878974D01*
X116299755Y-130878970D01*
X116161025Y-130778178D01*
X116161024Y-130778177D01*
X116161022Y-130778176D01*
X116008223Y-130700321D01*
X115845125Y-130647327D01*
X115845123Y-130647326D01*
X115845122Y-130647326D01*
X115715009Y-130626718D01*
X115675746Y-130620500D01*
X115504254Y-130620500D01*
X115472379Y-130625548D01*
X115334877Y-130647326D01*
X115171774Y-130700322D01*
X115018974Y-130778178D01*
X114880244Y-130878970D01*
X114880239Y-130878974D01*
X114758974Y-131000239D01*
X114758970Y-131000244D01*
X114658178Y-131138974D01*
X114580322Y-131291774D01*
X114527326Y-131454877D01*
X114500500Y-131624254D01*
X114500500Y-131795745D01*
X114527326Y-131965122D01*
X114527327Y-131965125D01*
X114580321Y-132128223D01*
X114638901Y-132243193D01*
X114658178Y-132281025D01*
X114758970Y-132419755D01*
X114758974Y-132419760D01*
X114880239Y-132541025D01*
X114880244Y-132541029D01*
X115001251Y-132628945D01*
X115018978Y-132641824D01*
X115171777Y-132719679D01*
X115334875Y-132772673D01*
X115504254Y-132799500D01*
X115504255Y-132799500D01*
X115675745Y-132799500D01*
X115675746Y-132799500D01*
X115746733Y-132788256D01*
X115816027Y-132797210D01*
X115853813Y-132823048D01*
X118188583Y-135157819D01*
X118222068Y-135219142D01*
X118217084Y-135288834D01*
X118175212Y-135344767D01*
X118109748Y-135369184D01*
X118100902Y-135369500D01*
X105160495Y-135369500D01*
X105093456Y-135349815D01*
X105047701Y-135297011D01*
X105037757Y-135227853D01*
X105066782Y-135164297D01*
X105072814Y-135157819D01*
X105198474Y-135032158D01*
X105198475Y-135032157D01*
X105198477Y-135032155D01*
X105313441Y-134860098D01*
X105392630Y-134668920D01*
X105433000Y-134465965D01*
X105433000Y-134259035D01*
X105392630Y-134056080D01*
X105313441Y-133864902D01*
X105198477Y-133692845D01*
X105198475Y-133692842D01*
X105052157Y-133546524D01*
X104966126Y-133489041D01*
X104880098Y-133431559D01*
X104861016Y-133423655D01*
X104688920Y-133352370D01*
X104688912Y-133352368D01*
X104485969Y-133312000D01*
X104485965Y-133312000D01*
X104279035Y-133312000D01*
X104279030Y-133312000D01*
X104076087Y-133352368D01*
X104076079Y-133352370D01*
X103884903Y-133431558D01*
X103712842Y-133546524D01*
X103566524Y-133692842D01*
X103451558Y-133864903D01*
X103372370Y-134056079D01*
X103372368Y-134056087D01*
X103332000Y-134259030D01*
X103332000Y-134465969D01*
X103372368Y-134668912D01*
X103372370Y-134668920D01*
X103451558Y-134860096D01*
X103566524Y-135032157D01*
X103692186Y-135157819D01*
X103725671Y-135219142D01*
X103720687Y-135288834D01*
X103678815Y-135344767D01*
X103613351Y-135369184D01*
X103604505Y-135369500D01*
X102620495Y-135369500D01*
X102553456Y-135349815D01*
X102507701Y-135297011D01*
X102497757Y-135227853D01*
X102526782Y-135164297D01*
X102532814Y-135157819D01*
X102658474Y-135032158D01*
X102658475Y-135032157D01*
X102658477Y-135032155D01*
X102773441Y-134860098D01*
X102852630Y-134668920D01*
X102893000Y-134465965D01*
X102893000Y-134259035D01*
X102852630Y-134056080D01*
X102773441Y-133864902D01*
X102658477Y-133692845D01*
X102658475Y-133692842D01*
X102512157Y-133546524D01*
X102426126Y-133489041D01*
X102340098Y-133431559D01*
X102321016Y-133423655D01*
X102148920Y-133352370D01*
X102148912Y-133352368D01*
X101945969Y-133312000D01*
X101945965Y-133312000D01*
X101739035Y-133312000D01*
X101739030Y-133312000D01*
X101536087Y-133352368D01*
X101536079Y-133352370D01*
X101344903Y-133431558D01*
X101172842Y-133546524D01*
X101026524Y-133692842D01*
X100911558Y-133864903D01*
X100832370Y-134056079D01*
X100832368Y-134056087D01*
X100792000Y-134259030D01*
X100792000Y-134465969D01*
X100832368Y-134668912D01*
X100832370Y-134668920D01*
X100911558Y-134860096D01*
X101026524Y-135032157D01*
X101152186Y-135157819D01*
X101185671Y-135219142D01*
X101180687Y-135288834D01*
X101138815Y-135344767D01*
X101073351Y-135369184D01*
X101064505Y-135369500D01*
X100080495Y-135369500D01*
X100013456Y-135349815D01*
X99967701Y-135297011D01*
X99957757Y-135227853D01*
X99986782Y-135164297D01*
X99992814Y-135157819D01*
X100118474Y-135032158D01*
X100118475Y-135032157D01*
X100118477Y-135032155D01*
X100233441Y-134860098D01*
X100312630Y-134668920D01*
X100353000Y-134465965D01*
X100353000Y-134259035D01*
X100312630Y-134056080D01*
X100233441Y-133864902D01*
X100118477Y-133692845D01*
X100118475Y-133692842D01*
X99972157Y-133546524D01*
X99886126Y-133489041D01*
X99800098Y-133431559D01*
X99781016Y-133423655D01*
X99608920Y-133352370D01*
X99608912Y-133352368D01*
X99405969Y-133312000D01*
X99405965Y-133312000D01*
X99199035Y-133312000D01*
X99199030Y-133312000D01*
X98996087Y-133352368D01*
X98996079Y-133352370D01*
X98804903Y-133431558D01*
X98632842Y-133546524D01*
X98486524Y-133692842D01*
X98371558Y-133864903D01*
X98292370Y-134056079D01*
X98292368Y-134056087D01*
X98252000Y-134259030D01*
X98252000Y-134465969D01*
X98292368Y-134668912D01*
X98292370Y-134668920D01*
X98371558Y-134860096D01*
X98486524Y-135032157D01*
X98612186Y-135157819D01*
X98645671Y-135219142D01*
X98640687Y-135288834D01*
X98598815Y-135344767D01*
X98533351Y-135369184D01*
X98524505Y-135369500D01*
X97540495Y-135369500D01*
X97473456Y-135349815D01*
X97427701Y-135297011D01*
X97417757Y-135227853D01*
X97446782Y-135164297D01*
X97452814Y-135157819D01*
X97578474Y-135032158D01*
X97578475Y-135032157D01*
X97578477Y-135032155D01*
X97693441Y-134860098D01*
X97772630Y-134668920D01*
X97813000Y-134465965D01*
X97813000Y-134259035D01*
X97772630Y-134056080D01*
X97693441Y-133864902D01*
X97578477Y-133692845D01*
X97578475Y-133692842D01*
X97432157Y-133546524D01*
X97346126Y-133489041D01*
X97260098Y-133431559D01*
X97241016Y-133423655D01*
X97068920Y-133352370D01*
X97068912Y-133352368D01*
X96865969Y-133312000D01*
X96865965Y-133312000D01*
X96659035Y-133312000D01*
X96659030Y-133312000D01*
X96456087Y-133352368D01*
X96456079Y-133352370D01*
X96264903Y-133431558D01*
X96092842Y-133546524D01*
X95946524Y-133692842D01*
X95831558Y-133864903D01*
X95752370Y-134056079D01*
X95752368Y-134056087D01*
X95712000Y-134259030D01*
X95712000Y-134465969D01*
X95752368Y-134668912D01*
X95752370Y-134668920D01*
X95831558Y-134860096D01*
X95946524Y-135032157D01*
X96072186Y-135157819D01*
X96105671Y-135219142D01*
X96100687Y-135288834D01*
X96058815Y-135344767D01*
X95993351Y-135369184D01*
X95984505Y-135369500D01*
X95000495Y-135369500D01*
X94933456Y-135349815D01*
X94887701Y-135297011D01*
X94877757Y-135227853D01*
X94906782Y-135164297D01*
X94912814Y-135157819D01*
X95038474Y-135032158D01*
X95038475Y-135032157D01*
X95038477Y-135032155D01*
X95153441Y-134860098D01*
X95232630Y-134668920D01*
X95273000Y-134465965D01*
X95273000Y-134259035D01*
X95232630Y-134056080D01*
X95153441Y-133864902D01*
X95038477Y-133692845D01*
X95038475Y-133692842D01*
X94892157Y-133546524D01*
X94806126Y-133489041D01*
X94720098Y-133431559D01*
X94701016Y-133423655D01*
X94528920Y-133352370D01*
X94528912Y-133352368D01*
X94325969Y-133312000D01*
X94325965Y-133312000D01*
X94119035Y-133312000D01*
X94119030Y-133312000D01*
X93916087Y-133352368D01*
X93916079Y-133352370D01*
X93724903Y-133431558D01*
X93552842Y-133546524D01*
X93406524Y-133692842D01*
X93291558Y-133864903D01*
X93212370Y-134056079D01*
X93212368Y-134056087D01*
X93172000Y-134259030D01*
X93172000Y-134465969D01*
X93212368Y-134668912D01*
X93212370Y-134668920D01*
X93291558Y-134860096D01*
X93406524Y-135032157D01*
X93532186Y-135157819D01*
X93565671Y-135219142D01*
X93560687Y-135288834D01*
X93518815Y-135344767D01*
X93453351Y-135369184D01*
X93444505Y-135369500D01*
X92460495Y-135369500D01*
X92393456Y-135349815D01*
X92347701Y-135297011D01*
X92337757Y-135227853D01*
X92366782Y-135164297D01*
X92372814Y-135157819D01*
X92498474Y-135032158D01*
X92498475Y-135032157D01*
X92498477Y-135032155D01*
X92613441Y-134860098D01*
X92692630Y-134668920D01*
X92733000Y-134465965D01*
X92733000Y-134259035D01*
X92692630Y-134056080D01*
X92613441Y-133864902D01*
X92498477Y-133692845D01*
X92498475Y-133692842D01*
X92352157Y-133546524D01*
X92266126Y-133489041D01*
X92180098Y-133431559D01*
X92161016Y-133423655D01*
X91988920Y-133352370D01*
X91988912Y-133352368D01*
X91785969Y-133312000D01*
X91785965Y-133312000D01*
X91579035Y-133312000D01*
X91579030Y-133312000D01*
X91376087Y-133352368D01*
X91376079Y-133352370D01*
X91184903Y-133431558D01*
X91012842Y-133546524D01*
X90866524Y-133692842D01*
X90751558Y-133864903D01*
X90672370Y-134056079D01*
X90672368Y-134056087D01*
X90632000Y-134259030D01*
X90632000Y-134465969D01*
X90672368Y-134668912D01*
X90672370Y-134668920D01*
X90751558Y-134860096D01*
X90866524Y-135032157D01*
X90992186Y-135157819D01*
X91025671Y-135219142D01*
X91020687Y-135288834D01*
X90978815Y-135344767D01*
X90913351Y-135369184D01*
X90904505Y-135369500D01*
X89920495Y-135369500D01*
X89853456Y-135349815D01*
X89807701Y-135297011D01*
X89797757Y-135227853D01*
X89826782Y-135164297D01*
X89832814Y-135157819D01*
X89958474Y-135032158D01*
X89958475Y-135032157D01*
X89958477Y-135032155D01*
X90073441Y-134860098D01*
X90152630Y-134668920D01*
X90193000Y-134465965D01*
X90193000Y-134259035D01*
X90152630Y-134056080D01*
X90123686Y-133986203D01*
X90113051Y-133960528D01*
X90105582Y-133891058D01*
X90136857Y-133828579D01*
X90139903Y-133825421D01*
X92220007Y-131745317D01*
X109434000Y-131745317D01*
X109434000Y-131914682D01*
X109460495Y-132081965D01*
X109460495Y-132081968D01*
X109512830Y-132243038D01*
X109540604Y-132297547D01*
X109589722Y-132393947D01*
X109689273Y-132530967D01*
X109809033Y-132650727D01*
X109946053Y-132750278D01*
X110088873Y-132823048D01*
X110096961Y-132827169D01*
X110258032Y-132879504D01*
X110258033Y-132879504D01*
X110258036Y-132879505D01*
X110425317Y-132906000D01*
X110425318Y-132906000D01*
X110594682Y-132906000D01*
X110594683Y-132906000D01*
X110761964Y-132879505D01*
X110761967Y-132879504D01*
X110761968Y-132879504D01*
X110923038Y-132827169D01*
X110923038Y-132827168D01*
X110923041Y-132827168D01*
X111073947Y-132750278D01*
X111210967Y-132650727D01*
X111330727Y-132530967D01*
X111430278Y-132393947D01*
X111507168Y-132243041D01*
X111559505Y-132081964D01*
X111586000Y-131914683D01*
X111586000Y-131745317D01*
X111566825Y-131624254D01*
X111960500Y-131624254D01*
X111960500Y-131795745D01*
X111987326Y-131965122D01*
X111987327Y-131965125D01*
X112040321Y-132128223D01*
X112098901Y-132243193D01*
X112118178Y-132281025D01*
X112218970Y-132419755D01*
X112218974Y-132419760D01*
X112340239Y-132541025D01*
X112340244Y-132541029D01*
X112461251Y-132628945D01*
X112478978Y-132641824D01*
X112631777Y-132719679D01*
X112794875Y-132772673D01*
X112964254Y-132799500D01*
X112964255Y-132799500D01*
X113135745Y-132799500D01*
X113135746Y-132799500D01*
X113305125Y-132772673D01*
X113468223Y-132719679D01*
X113621022Y-132641824D01*
X113759762Y-132541024D01*
X113881024Y-132419762D01*
X113981824Y-132281022D01*
X114059679Y-132128223D01*
X114112673Y-131965125D01*
X114139500Y-131795746D01*
X114139500Y-131624254D01*
X114112673Y-131454875D01*
X114059679Y-131291777D01*
X113981824Y-131138978D01*
X113946603Y-131090500D01*
X113881029Y-131000244D01*
X113881025Y-131000239D01*
X113759760Y-130878974D01*
X113759755Y-130878970D01*
X113621025Y-130778178D01*
X113621024Y-130778177D01*
X113621022Y-130778176D01*
X113468223Y-130700321D01*
X113305125Y-130647327D01*
X113305123Y-130647326D01*
X113305122Y-130647326D01*
X113175009Y-130626718D01*
X113135746Y-130620500D01*
X112964254Y-130620500D01*
X112932379Y-130625548D01*
X112794877Y-130647326D01*
X112631774Y-130700322D01*
X112478974Y-130778178D01*
X112340244Y-130878970D01*
X112340239Y-130878974D01*
X112218974Y-131000239D01*
X112218970Y-131000244D01*
X112118178Y-131138974D01*
X112040322Y-131291774D01*
X111987326Y-131454877D01*
X111960500Y-131624254D01*
X111566825Y-131624254D01*
X111559505Y-131578036D01*
X111559504Y-131578032D01*
X111559504Y-131578031D01*
X111507169Y-131416961D01*
X111497549Y-131398080D01*
X111430278Y-131266053D01*
X111330727Y-131129033D01*
X111210967Y-131009273D01*
X111073947Y-130909722D01*
X111028905Y-130886772D01*
X110923038Y-130832830D01*
X110761967Y-130780495D01*
X110636503Y-130760623D01*
X110594683Y-130754000D01*
X110425317Y-130754000D01*
X110369556Y-130762831D01*
X110258034Y-130780495D01*
X110258031Y-130780495D01*
X110096961Y-130832830D01*
X109946052Y-130909722D01*
X109923696Y-130925965D01*
X109809033Y-131009273D01*
X109809031Y-131009275D01*
X109809030Y-131009275D01*
X109689275Y-131129030D01*
X109689275Y-131129031D01*
X109689273Y-131129033D01*
X109682048Y-131138978D01*
X109589722Y-131266052D01*
X109512830Y-131416961D01*
X109460495Y-131578031D01*
X109460495Y-131578034D01*
X109434000Y-131745317D01*
X92220007Y-131745317D01*
X92444652Y-131520672D01*
X92444657Y-131520669D01*
X92454860Y-131510465D01*
X92454862Y-131510465D01*
X92515465Y-131449862D01*
X92515468Y-131449856D01*
X92520415Y-131443411D01*
X92520691Y-131443623D01*
X92533837Y-131426488D01*
X93598508Y-130361819D01*
X93659831Y-130328334D01*
X93686189Y-130325500D01*
X99887036Y-130325500D01*
X99954075Y-130345185D01*
X99966935Y-130355548D01*
X99966941Y-130355542D01*
X99973382Y-130360484D01*
X99973387Y-130360489D01*
X100076114Y-130419799D01*
X100190691Y-130450500D01*
X100190694Y-130450500D01*
X100309306Y-130450500D01*
X100309309Y-130450500D01*
X100423886Y-130419799D01*
X100526613Y-130360489D01*
X100610489Y-130276613D01*
X100669799Y-130173886D01*
X100700500Y-130059309D01*
X100700500Y-129940691D01*
X100669799Y-129826114D01*
X100610489Y-129723387D01*
X100526613Y-129639511D01*
X100423886Y-129580201D01*
X100309309Y-129549500D01*
X100190691Y-129549500D01*
X100076114Y-129580201D01*
X100076112Y-129580201D01*
X100076112Y-129580202D01*
X99973387Y-129639511D01*
X99966941Y-129644458D01*
X99965842Y-129643026D01*
X99913394Y-129671666D01*
X99887036Y-129674500D01*
X93457147Y-129674500D01*
X93374359Y-129696682D01*
X93300138Y-129739535D01*
X93300135Y-129739537D01*
X91994538Y-131045134D01*
X91989587Y-131051587D01*
X91989311Y-131051375D01*
X91976161Y-131068511D01*
X89679603Y-133365068D01*
X89618280Y-133398553D01*
X89548588Y-133393569D01*
X89544481Y-133391952D01*
X89448920Y-133352370D01*
X89448912Y-133352368D01*
X89245969Y-133312000D01*
X89245965Y-133312000D01*
X89039035Y-133312000D01*
X89039030Y-133312000D01*
X88836087Y-133352368D01*
X88836079Y-133352370D01*
X88644903Y-133431558D01*
X88472842Y-133546524D01*
X88326524Y-133692842D01*
X88211557Y-133864903D01*
X88143335Y-134029608D01*
X88099494Y-134084011D01*
X88033200Y-134106076D01*
X87965500Y-134088797D01*
X87917890Y-134037659D01*
X87910843Y-134020473D01*
X87853595Y-133844282D01*
X87757124Y-133654949D01*
X87717770Y-133600782D01*
X87717769Y-133600782D01*
X87085462Y-134233089D01*
X87068425Y-134169507D01*
X87002599Y-134055493D01*
X86909507Y-133962401D01*
X86795493Y-133896575D01*
X86731909Y-133879537D01*
X87364216Y-133247228D01*
X87310050Y-133207875D01*
X87120717Y-133111404D01*
X86918629Y-133045742D01*
X86708746Y-133012500D01*
X86496254Y-133012500D01*
X86286372Y-133045742D01*
X86286369Y-133045742D01*
X86084282Y-133111404D01*
X85894939Y-133207880D01*
X85840782Y-133247227D01*
X85840782Y-133247228D01*
X86473091Y-133879537D01*
X86409507Y-133896575D01*
X86295493Y-133962401D01*
X86202401Y-134055493D01*
X86136575Y-134169507D01*
X86119537Y-134233091D01*
X85487228Y-133600782D01*
X85487227Y-133600782D01*
X85447880Y-133654939D01*
X85349194Y-133848621D01*
X85348178Y-133848103D01*
X85307712Y-133898313D01*
X85241416Y-133920372D01*
X85173718Y-133903088D01*
X85126112Y-133851947D01*
X85113000Y-133796451D01*
X85113000Y-133708230D01*
X85110146Y-133677800D01*
X85110146Y-133677798D01*
X85065293Y-133549619D01*
X85065292Y-133549617D01*
X84984650Y-133440350D01*
X84984648Y-133440349D01*
X84984648Y-133440348D01*
X84922210Y-133394267D01*
X84922203Y-133394262D01*
X84875382Y-133359707D01*
X84875380Y-133359706D01*
X84747200Y-133314853D01*
X84716770Y-133312000D01*
X84716766Y-133312000D01*
X83408234Y-133312000D01*
X83408230Y-133312000D01*
X83377800Y-133314853D01*
X83377798Y-133314853D01*
X83249619Y-133359706D01*
X83249617Y-133359707D01*
X83140350Y-133440350D01*
X83059707Y-133549617D01*
X83059706Y-133549619D01*
X83014853Y-133677798D01*
X83014853Y-133677800D01*
X83012000Y-133708230D01*
X83012000Y-135016769D01*
X83014853Y-135047199D01*
X83014853Y-135047201D01*
X83059706Y-135175380D01*
X83064051Y-135183601D01*
X83061828Y-135184775D01*
X83081084Y-135237502D01*
X83065764Y-135305672D01*
X83016021Y-135354737D01*
X82957342Y-135369500D01*
X80058462Y-135369500D01*
X79991423Y-135349815D01*
X79945668Y-135297011D01*
X79935724Y-135227853D01*
X79935989Y-135226101D01*
X79950500Y-135134485D01*
X79950500Y-134945513D01*
X79920940Y-134758881D01*
X79891707Y-134668912D01*
X79862547Y-134579168D01*
X79862545Y-134579165D01*
X79862545Y-134579163D01*
X79797546Y-134451596D01*
X79776760Y-134410801D01*
X79665690Y-134257927D01*
X79532073Y-134124310D01*
X79379199Y-134013240D01*
X79326130Y-133986200D01*
X79210836Y-133927454D01*
X79115800Y-133896575D01*
X79089195Y-133887930D01*
X79031521Y-133848493D01*
X79004323Y-133784134D01*
X79016238Y-133715288D01*
X79063482Y-133663812D01*
X79089194Y-133652069D01*
X79210832Y-133612547D01*
X79379199Y-133526760D01*
X79532073Y-133415690D01*
X79665690Y-133282073D01*
X79776760Y-133129199D01*
X79862547Y-132960832D01*
X79920940Y-132781118D01*
X79925825Y-132750277D01*
X79950500Y-132594486D01*
X79950500Y-132405513D01*
X79920940Y-132218881D01*
X79891483Y-132128223D01*
X79862547Y-132039168D01*
X79862545Y-132039165D01*
X79862545Y-132039163D01*
X79817290Y-131950347D01*
X79776760Y-131870801D01*
X79665690Y-131717927D01*
X79532073Y-131584310D01*
X79379199Y-131473240D01*
X79210836Y-131387454D01*
X79031118Y-131329059D01*
X78844486Y-131299500D01*
X78844481Y-131299500D01*
X78155519Y-131299500D01*
X78155514Y-131299500D01*
X77968881Y-131329059D01*
X77789163Y-131387454D01*
X77620800Y-131473240D01*
X77569565Y-131510465D01*
X77467927Y-131584310D01*
X77467925Y-131584312D01*
X77467924Y-131584312D01*
X77334312Y-131717924D01*
X77334312Y-131717925D01*
X77334310Y-131717927D01*
X77291478Y-131776880D01*
X77223240Y-131870800D01*
X77137454Y-132039163D01*
X77079059Y-132218881D01*
X77049500Y-132405513D01*
X77049500Y-132594486D01*
X77079059Y-132781118D01*
X77137454Y-132960836D01*
X77200309Y-133084195D01*
X77223240Y-133129199D01*
X77334310Y-133282073D01*
X77467927Y-133415690D01*
X77620801Y-133526760D01*
X77670438Y-133552051D01*
X77789163Y-133612545D01*
X77789165Y-133612545D01*
X77789168Y-133612547D01*
X77878734Y-133641649D01*
X77910803Y-133652069D01*
X77968478Y-133691507D01*
X77995676Y-133755866D01*
X77983761Y-133824712D01*
X77936516Y-133876188D01*
X77910803Y-133887931D01*
X77789163Y-133927454D01*
X77620800Y-134013240D01*
X77598272Y-134029608D01*
X77467927Y-134124310D01*
X77467925Y-134124312D01*
X77467924Y-134124312D01*
X77334312Y-134257924D01*
X77334312Y-134257925D01*
X77334310Y-134257927D01*
X77306159Y-134296674D01*
X77223240Y-134410800D01*
X77137454Y-134579163D01*
X77079059Y-134758881D01*
X77049500Y-134945513D01*
X77049500Y-135134486D01*
X77079059Y-135321118D01*
X77137454Y-135500836D01*
X77212395Y-135647914D01*
X77223240Y-135669199D01*
X77334310Y-135822073D01*
X77467927Y-135955690D01*
X77620801Y-136066760D01*
X77700347Y-136107290D01*
X77789163Y-136152545D01*
X77789165Y-136152545D01*
X77789168Y-136152547D01*
X77856184Y-136174322D01*
X77968881Y-136210940D01*
X78155514Y-136240500D01*
X78799902Y-136240500D01*
X78829342Y-136249144D01*
X78859329Y-136255668D01*
X78864344Y-136259422D01*
X78866941Y-136260185D01*
X78887583Y-136276819D01*
X78998583Y-136387819D01*
X79032068Y-136449142D01*
X79027084Y-136518834D01*
X78985212Y-136574767D01*
X78919748Y-136599184D01*
X78910902Y-136599500D01*
X58138808Y-136599500D01*
X58076808Y-136582887D01*
X57993188Y-136534609D01*
X57993187Y-136534608D01*
X57993186Y-136534608D01*
X57865892Y-136500500D01*
X57734108Y-136500500D01*
X57606812Y-136534608D01*
X57492686Y-136600500D01*
X57492683Y-136600502D01*
X57399502Y-136693683D01*
X57399500Y-136693686D01*
X57333608Y-136807812D01*
X57299500Y-136935108D01*
X57299500Y-137066891D01*
X57320270Y-137144407D01*
X57318607Y-137214257D01*
X57279444Y-137272119D01*
X57215216Y-137299623D01*
X57200495Y-137300500D01*
X54312188Y-137300500D01*
X54245149Y-137280815D01*
X54224507Y-137264181D01*
X52769042Y-135808715D01*
X52735557Y-135747392D01*
X52740541Y-135677700D01*
X52750000Y-135664180D01*
X52750000Y-134580330D01*
X52769745Y-134600075D01*
X52855255Y-134649444D01*
X52950630Y-134675000D01*
X53049370Y-134675000D01*
X53144745Y-134649444D01*
X53230255Y-134600075D01*
X53250000Y-134580330D01*
X53250000Y-135649115D01*
X53257584Y-135647914D01*
X53422255Y-135594408D01*
X53576524Y-135515804D01*
X53716602Y-135414032D01*
X53839032Y-135291602D01*
X53940804Y-135151524D01*
X53993579Y-135047948D01*
X54041554Y-134997152D01*
X54109375Y-134980357D01*
X54175509Y-135002894D01*
X54218961Y-135057609D01*
X54221105Y-135063288D01*
X54247206Y-135137880D01*
X54247207Y-135137882D01*
X54327850Y-135247150D01*
X54437118Y-135327793D01*
X54479845Y-135342744D01*
X54565299Y-135372646D01*
X54595730Y-135375500D01*
X54595734Y-135375500D01*
X55404270Y-135375500D01*
X55434699Y-135372646D01*
X55434701Y-135372646D01*
X55501644Y-135349221D01*
X55562882Y-135327793D01*
X55672150Y-135247150D01*
X55752793Y-135137882D01*
X55776526Y-135070057D01*
X55797646Y-135009701D01*
X55797646Y-135009699D01*
X55800500Y-134979269D01*
X55800500Y-133620730D01*
X55797646Y-133590300D01*
X55797646Y-133590298D01*
X55752793Y-133462119D01*
X55752792Y-133462117D01*
X55742724Y-133448475D01*
X55672150Y-133352850D01*
X55562882Y-133272207D01*
X55562880Y-133272206D01*
X55434700Y-133227353D01*
X55404270Y-133224500D01*
X55404266Y-133224500D01*
X54595734Y-133224500D01*
X54595730Y-133224500D01*
X54565300Y-133227353D01*
X54565298Y-133227353D01*
X54437119Y-133272206D01*
X54437117Y-133272207D01*
X54327850Y-133352850D01*
X54247207Y-133462117D01*
X54221105Y-133536712D01*
X54180383Y-133593487D01*
X54115430Y-133619234D01*
X54046868Y-133605777D01*
X53996466Y-133557389D01*
X53993579Y-133552051D01*
X53940804Y-133448475D01*
X53839032Y-133308397D01*
X53716602Y-133185967D01*
X53576524Y-133084195D01*
X53422257Y-133005591D01*
X53257589Y-132952087D01*
X53257581Y-132952085D01*
X53250000Y-132950884D01*
X53250000Y-134019670D01*
X53230255Y-133999925D01*
X53144745Y-133950556D01*
X53049370Y-133925000D01*
X52950630Y-133925000D01*
X52855255Y-133950556D01*
X52769745Y-133999925D01*
X52750000Y-134019670D01*
X52750000Y-132950884D01*
X52749999Y-132950884D01*
X52742418Y-132952085D01*
X52742410Y-132952087D01*
X52577742Y-133005591D01*
X52423475Y-133084195D01*
X52283397Y-133185967D01*
X52160967Y-133308397D01*
X52059195Y-133448475D01*
X51980591Y-133602742D01*
X51957396Y-133674131D01*
X51917958Y-133731806D01*
X51853599Y-133759004D01*
X51784753Y-133747089D01*
X51733277Y-133699845D01*
X51724904Y-133683265D01*
X51709395Y-133645823D01*
X51709390Y-133645814D01*
X51621789Y-133514711D01*
X51621786Y-133514707D01*
X51510292Y-133403213D01*
X51510288Y-133403210D01*
X51379185Y-133315609D01*
X51379172Y-133315602D01*
X51233501Y-133255264D01*
X51233489Y-133255261D01*
X51078845Y-133224500D01*
X51078842Y-133224500D01*
X50921158Y-133224500D01*
X50921155Y-133224500D01*
X50766510Y-133255261D01*
X50766498Y-133255264D01*
X50620827Y-133315602D01*
X50620814Y-133315609D01*
X50489711Y-133403210D01*
X50489707Y-133403213D01*
X50378213Y-133514707D01*
X50378210Y-133514711D01*
X50290609Y-133645814D01*
X50290602Y-133645827D01*
X50230264Y-133791498D01*
X50230261Y-133791510D01*
X50199500Y-133946153D01*
X49800499Y-133946153D01*
X49769737Y-133791503D01*
X49735246Y-133708234D01*
X49709397Y-133645827D01*
X49709390Y-133645814D01*
X49621789Y-133514711D01*
X49621786Y-133514707D01*
X49510292Y-133403213D01*
X49510288Y-133403210D01*
X49379185Y-133315609D01*
X49379172Y-133315602D01*
X49233501Y-133255264D01*
X49233489Y-133255261D01*
X49078845Y-133224500D01*
X49078842Y-133224500D01*
X48921158Y-133224500D01*
X48921155Y-133224500D01*
X48766510Y-133255261D01*
X48766498Y-133255264D01*
X48620827Y-133315602D01*
X48620814Y-133315609D01*
X48489711Y-133403210D01*
X48489707Y-133403213D01*
X48378213Y-133514707D01*
X48378210Y-133514711D01*
X48290609Y-133645814D01*
X48290602Y-133645827D01*
X48230264Y-133791498D01*
X48230261Y-133791510D01*
X48199500Y-133946153D01*
X34643964Y-133946153D01*
X34493329Y-133893443D01*
X34493317Y-133893439D01*
X34219512Y-133830945D01*
X34219494Y-133830942D01*
X33940431Y-133799500D01*
X33940425Y-133799500D01*
X33659575Y-133799500D01*
X33659568Y-133799500D01*
X33380505Y-133830942D01*
X33380487Y-133830945D01*
X33106682Y-133893439D01*
X33106670Y-133893443D01*
X32841588Y-133986200D01*
X32588557Y-134108053D01*
X32350753Y-134257476D01*
X32131175Y-134432583D01*
X31962181Y-134601578D01*
X31900858Y-134635063D01*
X31831166Y-134630079D01*
X31775233Y-134588207D01*
X31750816Y-134522743D01*
X31750500Y-134513897D01*
X31750500Y-132405513D01*
X59269500Y-132405513D01*
X59269500Y-132594486D01*
X59299059Y-132781118D01*
X59357454Y-132960836D01*
X59420309Y-133084195D01*
X59443240Y-133129199D01*
X59554310Y-133282073D01*
X59687927Y-133415690D01*
X59840801Y-133526760D01*
X59890438Y-133552051D01*
X60009163Y-133612545D01*
X60009165Y-133612545D01*
X60009168Y-133612547D01*
X60098734Y-133641649D01*
X60130803Y-133652069D01*
X60188478Y-133691507D01*
X60215676Y-133755866D01*
X60203761Y-133824712D01*
X60156516Y-133876188D01*
X60130803Y-133887931D01*
X60009163Y-133927454D01*
X59840800Y-134013240D01*
X59818272Y-134029608D01*
X59687927Y-134124310D01*
X59687925Y-134124312D01*
X59687924Y-134124312D01*
X59554312Y-134257924D01*
X59554312Y-134257925D01*
X59554310Y-134257927D01*
X59526159Y-134296674D01*
X59443240Y-134410800D01*
X59357454Y-134579163D01*
X59299059Y-134758881D01*
X59269500Y-134945513D01*
X59269500Y-135134486D01*
X59299059Y-135321118D01*
X59357454Y-135500836D01*
X59432395Y-135647914D01*
X59443240Y-135669199D01*
X59554310Y-135822073D01*
X59687927Y-135955690D01*
X59840801Y-136066760D01*
X59920347Y-136107290D01*
X60009163Y-136152545D01*
X60009165Y-136152545D01*
X60009168Y-136152547D01*
X60076184Y-136174322D01*
X60188881Y-136210940D01*
X60375514Y-136240500D01*
X60375519Y-136240500D01*
X61064486Y-136240500D01*
X61251118Y-136210940D01*
X61430832Y-136152547D01*
X61599199Y-136066760D01*
X61752073Y-135955690D01*
X61885690Y-135822073D01*
X61996760Y-135669199D01*
X62082547Y-135500832D01*
X62140940Y-135321118D01*
X62146756Y-135284397D01*
X62170500Y-135134486D01*
X62170500Y-134945513D01*
X62140940Y-134758881D01*
X62111707Y-134668912D01*
X62082547Y-134579168D01*
X62082545Y-134579165D01*
X62082545Y-134579163D01*
X62017546Y-134451596D01*
X61996760Y-134410801D01*
X61885690Y-134257927D01*
X61752073Y-134124310D01*
X61599199Y-134013240D01*
X61546130Y-133986200D01*
X61430836Y-133927454D01*
X61335800Y-133896575D01*
X61309195Y-133887930D01*
X61251521Y-133848493D01*
X61224323Y-133784134D01*
X61236238Y-133715288D01*
X61283482Y-133663812D01*
X61309194Y-133652069D01*
X61430832Y-133612547D01*
X61599199Y-133526760D01*
X61752073Y-133415690D01*
X61885690Y-133282073D01*
X61996760Y-133129199D01*
X62082547Y-132960832D01*
X62140940Y-132781118D01*
X62145825Y-132750277D01*
X62170500Y-132594486D01*
X62170500Y-132405513D01*
X62140940Y-132218881D01*
X62111483Y-132128223D01*
X62082547Y-132039168D01*
X62082545Y-132039165D01*
X62082545Y-132039163D01*
X62037290Y-131950347D01*
X61996760Y-131870801D01*
X61885690Y-131717927D01*
X61752073Y-131584310D01*
X61599199Y-131473240D01*
X61430836Y-131387454D01*
X61251118Y-131329059D01*
X61064486Y-131299500D01*
X61064481Y-131299500D01*
X60375519Y-131299500D01*
X60375514Y-131299500D01*
X60188881Y-131329059D01*
X60009163Y-131387454D01*
X59840800Y-131473240D01*
X59789565Y-131510465D01*
X59687927Y-131584310D01*
X59687925Y-131584312D01*
X59687924Y-131584312D01*
X59554312Y-131717924D01*
X59554312Y-131717925D01*
X59554310Y-131717927D01*
X59511478Y-131776880D01*
X59443240Y-131870800D01*
X59357454Y-132039163D01*
X59299059Y-132218881D01*
X59269500Y-132405513D01*
X31750500Y-132405513D01*
X31750500Y-132146018D01*
X31770185Y-132078979D01*
X31822989Y-132033224D01*
X31892147Y-132023280D01*
X31955703Y-132052305D01*
X31971119Y-132069780D01*
X31971672Y-132069327D01*
X31975538Y-132074038D01*
X32100961Y-132199461D01*
X32100965Y-132199464D01*
X32248446Y-132298009D01*
X32248459Y-132298016D01*
X32371363Y-132348923D01*
X32412334Y-132365894D01*
X32412336Y-132365894D01*
X32412341Y-132365896D01*
X32586304Y-132400499D01*
X32586307Y-132400500D01*
X32586309Y-132400500D01*
X32763693Y-132400500D01*
X32763694Y-132400499D01*
X32821682Y-132388964D01*
X32937658Y-132365896D01*
X32937661Y-132365894D01*
X32937666Y-132365894D01*
X33101547Y-132298013D01*
X33101866Y-132297799D01*
X33102245Y-132297547D01*
X33102246Y-132297546D01*
X33102248Y-132297545D01*
X33183822Y-132243038D01*
X33249035Y-132199464D01*
X33374464Y-132074035D01*
X33473013Y-131926547D01*
X33540894Y-131762666D01*
X33575500Y-131588691D01*
X33575500Y-131411309D01*
X33575500Y-131411306D01*
X33575499Y-131411304D01*
X33540896Y-131237341D01*
X33540893Y-131237332D01*
X33473016Y-131073459D01*
X33473009Y-131073446D01*
X33374464Y-130925965D01*
X33374461Y-130925961D01*
X33249038Y-130800538D01*
X33249034Y-130800535D01*
X33101553Y-130701990D01*
X33101540Y-130701983D01*
X32937667Y-130634106D01*
X32937658Y-130634103D01*
X32763694Y-130599500D01*
X32763691Y-130599500D01*
X32586309Y-130599500D01*
X32586306Y-130599500D01*
X32412341Y-130634103D01*
X32412332Y-130634106D01*
X32248459Y-130701983D01*
X32248446Y-130701990D01*
X32100965Y-130800535D01*
X32100961Y-130800538D01*
X31975538Y-130925961D01*
X31971672Y-130930673D01*
X31969956Y-130929265D01*
X31923976Y-130967683D01*
X31854650Y-130976382D01*
X31791626Y-130946219D01*
X31754914Y-130886772D01*
X31750500Y-130853981D01*
X31750500Y-128372149D01*
X40724500Y-128372149D01*
X40724500Y-128627850D01*
X40733309Y-128694755D01*
X40757874Y-128881340D01*
X40824050Y-129128312D01*
X40824053Y-129128322D01*
X40921894Y-129364531D01*
X40921899Y-129364542D01*
X41049734Y-129585957D01*
X41049745Y-129585973D01*
X41205388Y-129788811D01*
X41205394Y-129788818D01*
X41386181Y-129969605D01*
X41386188Y-129969611D01*
X41456049Y-130023217D01*
X41589035Y-130125261D01*
X41602945Y-130133292D01*
X41810457Y-130253100D01*
X41810462Y-130253102D01*
X41810465Y-130253104D01*
X41843330Y-130266717D01*
X41993320Y-130328845D01*
X42046687Y-130350950D01*
X42293660Y-130417126D01*
X42547157Y-130450500D01*
X42547164Y-130450500D01*
X42802836Y-130450500D01*
X42802843Y-130450500D01*
X43056340Y-130417126D01*
X43303313Y-130350950D01*
X43539535Y-130253104D01*
X43760965Y-130125261D01*
X43963813Y-129969610D01*
X44144610Y-129788813D01*
X44300261Y-129585965D01*
X44428104Y-129364535D01*
X44428310Y-129364038D01*
X154429500Y-129364038D01*
X154429500Y-129615962D01*
X154460458Y-129811420D01*
X154468910Y-129864785D01*
X154546760Y-130104383D01*
X154601877Y-130212554D01*
X154654200Y-130315245D01*
X154661132Y-130328848D01*
X154809201Y-130532649D01*
X154809205Y-130532654D01*
X154987345Y-130710794D01*
X154987350Y-130710798D01*
X155140073Y-130821757D01*
X155191155Y-130858870D01*
X155334184Y-130931747D01*
X155415616Y-130973239D01*
X155415618Y-130973239D01*
X155415621Y-130973241D01*
X155655215Y-131051090D01*
X155904038Y-131090500D01*
X155904039Y-131090500D01*
X156155961Y-131090500D01*
X156155962Y-131090500D01*
X156404785Y-131051090D01*
X156644379Y-130973241D01*
X156868845Y-130858870D01*
X157072656Y-130710793D01*
X157250793Y-130532656D01*
X157398870Y-130328845D01*
X157513241Y-130104379D01*
X157591090Y-129864785D01*
X157630500Y-129615962D01*
X157630500Y-129364038D01*
X157591090Y-129115215D01*
X157513241Y-128875621D01*
X157513239Y-128875618D01*
X157513239Y-128875616D01*
X157437518Y-128727007D01*
X157398870Y-128651155D01*
X157342856Y-128574058D01*
X157250798Y-128447350D01*
X157250794Y-128447345D01*
X157072654Y-128269205D01*
X157072649Y-128269201D01*
X156868848Y-128121132D01*
X156868847Y-128121131D01*
X156868845Y-128121130D01*
X156798747Y-128085413D01*
X156644383Y-128006760D01*
X156404785Y-127928910D01*
X156155962Y-127889500D01*
X155904038Y-127889500D01*
X155779626Y-127909205D01*
X155655214Y-127928910D01*
X155415616Y-128006760D01*
X155191151Y-128121132D01*
X154987350Y-128269201D01*
X154987345Y-128269205D01*
X154809205Y-128447345D01*
X154809201Y-128447350D01*
X154661132Y-128651151D01*
X154546760Y-128875616D01*
X154468910Y-129115214D01*
X154437741Y-129312007D01*
X154429500Y-129364038D01*
X44428310Y-129364038D01*
X44511593Y-129162974D01*
X44525944Y-129128328D01*
X44525946Y-129128322D01*
X44525950Y-129128313D01*
X44592126Y-128881340D01*
X44625500Y-128627843D01*
X44625500Y-128372157D01*
X44592126Y-128118660D01*
X44525950Y-127871687D01*
X44428104Y-127635465D01*
X44428102Y-127635462D01*
X44428100Y-127635457D01*
X44300265Y-127414042D01*
X44300261Y-127414035D01*
X44144610Y-127211187D01*
X44144605Y-127211181D01*
X43963818Y-127030394D01*
X43963811Y-127030388D01*
X43760973Y-126874745D01*
X43760971Y-126874743D01*
X43760965Y-126874739D01*
X43760960Y-126874736D01*
X43760957Y-126874734D01*
X43539542Y-126746899D01*
X43539531Y-126746894D01*
X43303322Y-126649053D01*
X43303315Y-126649051D01*
X43303313Y-126649050D01*
X43056340Y-126582874D01*
X43000007Y-126575457D01*
X42802850Y-126549500D01*
X42802843Y-126549500D01*
X42547157Y-126549500D01*
X42547149Y-126549500D01*
X42321826Y-126579165D01*
X42293660Y-126582874D01*
X42046687Y-126649050D01*
X42046677Y-126649053D01*
X41810468Y-126746894D01*
X41810457Y-126746899D01*
X41589042Y-126874734D01*
X41589026Y-126874745D01*
X41386188Y-127030388D01*
X41386181Y-127030394D01*
X41205394Y-127211181D01*
X41205388Y-127211188D01*
X41049745Y-127414026D01*
X41049734Y-127414042D01*
X40921899Y-127635457D01*
X40921894Y-127635468D01*
X40824053Y-127871677D01*
X40824050Y-127871687D01*
X40787858Y-128006760D01*
X40757874Y-128118661D01*
X40724500Y-128372149D01*
X31750500Y-128372149D01*
X31750500Y-122454773D01*
X40425000Y-122454773D01*
X40425000Y-123250000D01*
X41756116Y-123250000D01*
X41725000Y-123406433D01*
X41725000Y-123593567D01*
X41756116Y-123750000D01*
X40425001Y-123750000D01*
X40425001Y-124545227D01*
X40435566Y-124679474D01*
X40491423Y-124901152D01*
X40585962Y-125109287D01*
X40585967Y-125109296D01*
X40716151Y-125297203D01*
X40877796Y-125458848D01*
X41065703Y-125589032D01*
X41065712Y-125589037D01*
X41273847Y-125683576D01*
X41495525Y-125739433D01*
X41629780Y-125749999D01*
X42424999Y-125749999D01*
X42425000Y-125749998D01*
X42425000Y-124418883D01*
X42581433Y-124450000D01*
X42768567Y-124450000D01*
X42925000Y-124418883D01*
X42925000Y-125749999D01*
X43720212Y-125749999D01*
X43720227Y-125749998D01*
X43854474Y-125739433D01*
X44076152Y-125683576D01*
X44284287Y-125589037D01*
X44284296Y-125589032D01*
X44472203Y-125458848D01*
X44633848Y-125297203D01*
X44764032Y-125109296D01*
X44764037Y-125109287D01*
X44858576Y-124901152D01*
X44897738Y-124745731D01*
X50849500Y-124745731D01*
X50849500Y-126754258D01*
X50852354Y-126784698D01*
X50852354Y-126784699D01*
X50897206Y-126912881D01*
X50897207Y-126912882D01*
X50977850Y-127022150D01*
X51087118Y-127102793D01*
X51215302Y-127147646D01*
X51215301Y-127147646D01*
X51219271Y-127148018D01*
X51245735Y-127150500D01*
X53254264Y-127150499D01*
X53284698Y-127147646D01*
X53412882Y-127102793D01*
X53522150Y-127022150D01*
X53602793Y-126912882D01*
X53647646Y-126784698D01*
X53650500Y-126754265D01*
X53650499Y-125639778D01*
X54349500Y-125639778D01*
X54349500Y-125860221D01*
X54383985Y-126077952D01*
X54452103Y-126287603D01*
X54452104Y-126287606D01*
X54552187Y-126484025D01*
X54681752Y-126662358D01*
X54681756Y-126662363D01*
X54837636Y-126818243D01*
X54837641Y-126818247D01*
X54993192Y-126931260D01*
X55015978Y-126947815D01*
X55144375Y-127013237D01*
X55212393Y-127047895D01*
X55212396Y-127047896D01*
X55317221Y-127081955D01*
X55422049Y-127116015D01*
X55639778Y-127150500D01*
X55639779Y-127150500D01*
X55860221Y-127150500D01*
X55860222Y-127150500D01*
X56077951Y-127116015D01*
X56287606Y-127047895D01*
X56484022Y-126947815D01*
X56662365Y-126818242D01*
X56818242Y-126662365D01*
X56947815Y-126484022D01*
X57047895Y-126287606D01*
X57116015Y-126077951D01*
X57150500Y-125860222D01*
X57150500Y-125639778D01*
X57116015Y-125422049D01*
X57075451Y-125297203D01*
X57047896Y-125212396D01*
X57047890Y-125212383D01*
X57015714Y-125149234D01*
X57015712Y-125149232D01*
X57005913Y-125130000D01*
X56947815Y-125015978D01*
X56864390Y-124901152D01*
X56818247Y-124837641D01*
X56818243Y-124837636D01*
X56662363Y-124681756D01*
X56662358Y-124681752D01*
X56484025Y-124552187D01*
X56484024Y-124552186D01*
X56484022Y-124552185D01*
X56404355Y-124511592D01*
X56287606Y-124452104D01*
X56287603Y-124452103D01*
X56077952Y-124383985D01*
X55878241Y-124352354D01*
X55860222Y-124349500D01*
X55639778Y-124349500D01*
X55621759Y-124352354D01*
X55422047Y-124383985D01*
X55212396Y-124452103D01*
X55212393Y-124452104D01*
X55015974Y-124552187D01*
X54837641Y-124681752D01*
X54837636Y-124681756D01*
X54681756Y-124837636D01*
X54681752Y-124837641D01*
X54552187Y-125015974D01*
X54452104Y-125212393D01*
X54452103Y-125212396D01*
X54383985Y-125422047D01*
X54349500Y-125639778D01*
X53650499Y-125639778D01*
X53650499Y-124745736D01*
X53647646Y-124715302D01*
X53602793Y-124587118D01*
X53522150Y-124477850D01*
X53412882Y-124397207D01*
X53412881Y-124397206D01*
X53284695Y-124352353D01*
X53284698Y-124352353D01*
X53254268Y-124349500D01*
X51245741Y-124349500D01*
X51215301Y-124352354D01*
X51215300Y-124352354D01*
X51087118Y-124397206D01*
X50977850Y-124477850D01*
X50897206Y-124587118D01*
X50852353Y-124715302D01*
X50849500Y-124745731D01*
X44897738Y-124745731D01*
X44906102Y-124712538D01*
X44906103Y-124712535D01*
X44914432Y-124679480D01*
X44914433Y-124679476D01*
X44924999Y-124545226D01*
X44925000Y-124545213D01*
X44925000Y-123750000D01*
X43593884Y-123750000D01*
X43625000Y-123593567D01*
X43625000Y-123406433D01*
X43593884Y-123250000D01*
X44924999Y-123250000D01*
X44924999Y-122454787D01*
X44924998Y-122454772D01*
X44914433Y-122320525D01*
X44873320Y-122157361D01*
X44858576Y-122098847D01*
X44854558Y-122090000D01*
X58990898Y-122090000D01*
X60171518Y-122090000D01*
X60160889Y-122108409D01*
X60120000Y-122261009D01*
X60120000Y-122418991D01*
X60160889Y-122571591D01*
X60171518Y-122590000D01*
X58990898Y-122590000D01*
X59006934Y-122691247D01*
X59079897Y-122915802D01*
X59187085Y-123126171D01*
X59325866Y-123317186D01*
X59492813Y-123484133D01*
X59492819Y-123484138D01*
X59527977Y-123509682D01*
X59570643Y-123565012D01*
X59576622Y-123634625D01*
X59544016Y-123696420D01*
X59527977Y-123710318D01*
X59492819Y-123735861D01*
X59492813Y-123735866D01*
X59325866Y-123902813D01*
X59187085Y-124093828D01*
X59079897Y-124304197D01*
X59006934Y-124528752D01*
X58990898Y-124630000D01*
X60171518Y-124630000D01*
X60160889Y-124648409D01*
X60120000Y-124801009D01*
X60120000Y-124958991D01*
X60160889Y-125111591D01*
X60171518Y-125130000D01*
X58990898Y-125130000D01*
X59006934Y-125231247D01*
X59079897Y-125455802D01*
X59187085Y-125666171D01*
X59325866Y-125857186D01*
X59492813Y-126024133D01*
X59683828Y-126162914D01*
X59894197Y-126270102D01*
X60118752Y-126343065D01*
X60118751Y-126343065D01*
X60351948Y-126380000D01*
X60470000Y-126380000D01*
X60470000Y-125428482D01*
X60488409Y-125439111D01*
X60641009Y-125480000D01*
X60798991Y-125480000D01*
X60951591Y-125439111D01*
X60970000Y-125428482D01*
X60970000Y-126380000D01*
X61088052Y-126380000D01*
X61321247Y-126343065D01*
X61545802Y-126270102D01*
X61756171Y-126162914D01*
X61947186Y-126024133D01*
X62114133Y-125857186D01*
X62252914Y-125666171D01*
X62360102Y-125455802D01*
X62433065Y-125231247D01*
X62449102Y-125130000D01*
X61268482Y-125130000D01*
X61279111Y-125111591D01*
X61320000Y-124958991D01*
X61320000Y-124801009D01*
X61279111Y-124648409D01*
X61268482Y-124630000D01*
X62449102Y-124630000D01*
X62433065Y-124528752D01*
X62360102Y-124304197D01*
X62252914Y-124093828D01*
X62114133Y-123902813D01*
X61947180Y-123735860D01*
X61912024Y-123710319D01*
X61869358Y-123654990D01*
X61863377Y-123585377D01*
X61895982Y-123523581D01*
X61912024Y-123509681D01*
X61947180Y-123484139D01*
X62114133Y-123317186D01*
X62252914Y-123126171D01*
X62360102Y-122915802D01*
X62433065Y-122691247D01*
X62449102Y-122590000D01*
X61268482Y-122590000D01*
X61279111Y-122571591D01*
X61320000Y-122418991D01*
X61320000Y-122261009D01*
X61279111Y-122108409D01*
X61268482Y-122090000D01*
X62449102Y-122090000D01*
X76770898Y-122090000D01*
X77951518Y-122090000D01*
X77940889Y-122108409D01*
X77900000Y-122261009D01*
X77900000Y-122418991D01*
X77940889Y-122571591D01*
X77951518Y-122590000D01*
X76770898Y-122590000D01*
X76786934Y-122691247D01*
X76859897Y-122915802D01*
X76967085Y-123126171D01*
X77105866Y-123317186D01*
X77272813Y-123484133D01*
X77272819Y-123484138D01*
X77307977Y-123509682D01*
X77350643Y-123565012D01*
X77356622Y-123634625D01*
X77324016Y-123696420D01*
X77307977Y-123710318D01*
X77272819Y-123735861D01*
X77272813Y-123735866D01*
X77105866Y-123902813D01*
X76967085Y-124093828D01*
X76859897Y-124304197D01*
X76786934Y-124528752D01*
X76770898Y-124630000D01*
X77951518Y-124630000D01*
X77940889Y-124648409D01*
X77900000Y-124801009D01*
X77900000Y-124958991D01*
X77940889Y-125111591D01*
X77951518Y-125130000D01*
X76770898Y-125130000D01*
X76786934Y-125231247D01*
X76859897Y-125455802D01*
X76967085Y-125666171D01*
X77105866Y-125857186D01*
X77272813Y-126024133D01*
X77463828Y-126162914D01*
X77674197Y-126270102D01*
X77898752Y-126343065D01*
X77898751Y-126343065D01*
X78131948Y-126380000D01*
X78250000Y-126380000D01*
X78250000Y-125428482D01*
X78268409Y-125439111D01*
X78421009Y-125480000D01*
X78578991Y-125480000D01*
X78731591Y-125439111D01*
X78750000Y-125428482D01*
X78750000Y-126380000D01*
X78868052Y-126380000D01*
X79101247Y-126343065D01*
X79325802Y-126270102D01*
X79536171Y-126162914D01*
X79727186Y-126024133D01*
X79894133Y-125857186D01*
X80032914Y-125666171D01*
X80140102Y-125455802D01*
X80213065Y-125231247D01*
X80229102Y-125130000D01*
X79048482Y-125130000D01*
X79059111Y-125111591D01*
X79100000Y-124958991D01*
X79100000Y-124801009D01*
X79059111Y-124648409D01*
X79048482Y-124630000D01*
X80229102Y-124630000D01*
X80213065Y-124528752D01*
X80140102Y-124304197D01*
X80032914Y-124093828D01*
X79894133Y-123902813D01*
X79727180Y-123735860D01*
X79692024Y-123710319D01*
X79649358Y-123654990D01*
X79643377Y-123585377D01*
X79675982Y-123523581D01*
X79692024Y-123509681D01*
X79727180Y-123484139D01*
X79894133Y-123317186D01*
X80032914Y-123126171D01*
X80140102Y-122915802D01*
X80213065Y-122691247D01*
X80229102Y-122590000D01*
X79048482Y-122590000D01*
X79059111Y-122571591D01*
X79100000Y-122418991D01*
X79100000Y-122261009D01*
X79059111Y-122108409D01*
X79048482Y-122090000D01*
X80229102Y-122090000D01*
X80213065Y-121988752D01*
X80140102Y-121764197D01*
X80032914Y-121553828D01*
X79894133Y-121362813D01*
X79727186Y-121195866D01*
X79536171Y-121057085D01*
X79325802Y-120949897D01*
X79101247Y-120876934D01*
X79101248Y-120876934D01*
X78868052Y-120840000D01*
X78750000Y-120840000D01*
X78750000Y-121791517D01*
X78731591Y-121780889D01*
X78578991Y-121740000D01*
X78421009Y-121740000D01*
X78268409Y-121780889D01*
X78250000Y-121791517D01*
X78250000Y-120840000D01*
X78131948Y-120840000D01*
X77898752Y-120876934D01*
X77674197Y-120949897D01*
X77463828Y-121057085D01*
X77272813Y-121195866D01*
X77105866Y-121362813D01*
X76967085Y-121553828D01*
X76859897Y-121764197D01*
X76786934Y-121988752D01*
X76770898Y-122090000D01*
X62449102Y-122090000D01*
X62433065Y-121988752D01*
X62360102Y-121764197D01*
X62252914Y-121553828D01*
X62114133Y-121362813D01*
X61947186Y-121195866D01*
X61756171Y-121057085D01*
X61545802Y-120949897D01*
X61321247Y-120876934D01*
X61321248Y-120876934D01*
X61088052Y-120840000D01*
X60970000Y-120840000D01*
X60970000Y-121791517D01*
X60951591Y-121780889D01*
X60798991Y-121740000D01*
X60641009Y-121740000D01*
X60488409Y-121780889D01*
X60470000Y-121791517D01*
X60470000Y-120840000D01*
X60351948Y-120840000D01*
X60118752Y-120876934D01*
X59894197Y-120949897D01*
X59683828Y-121057085D01*
X59492813Y-121195866D01*
X59325866Y-121362813D01*
X59187085Y-121553828D01*
X59079897Y-121764197D01*
X59006934Y-121988752D01*
X58990898Y-122090000D01*
X44854558Y-122090000D01*
X44764037Y-121890712D01*
X44764032Y-121890703D01*
X44633848Y-121702796D01*
X44472203Y-121541151D01*
X44284296Y-121410967D01*
X44284287Y-121410962D01*
X44076152Y-121316423D01*
X43854474Y-121260566D01*
X43720226Y-121250000D01*
X42925000Y-121250000D01*
X42925000Y-122581116D01*
X42768567Y-122550000D01*
X42581433Y-122550000D01*
X42425000Y-122581116D01*
X42425000Y-121250000D01*
X41629787Y-121250000D01*
X41629772Y-121250001D01*
X41495525Y-121260566D01*
X41273847Y-121316423D01*
X41065712Y-121410962D01*
X41065703Y-121410967D01*
X40877796Y-121541151D01*
X40716151Y-121702796D01*
X40585967Y-121890703D01*
X40585962Y-121890712D01*
X40491423Y-122098847D01*
X40435566Y-122320525D01*
X40425000Y-122454773D01*
X31750500Y-122454773D01*
X31750500Y-121146018D01*
X31770185Y-121078979D01*
X31822989Y-121033224D01*
X31892147Y-121023280D01*
X31955703Y-121052305D01*
X31971119Y-121069780D01*
X31971672Y-121069327D01*
X31975538Y-121074038D01*
X32100961Y-121199461D01*
X32100965Y-121199464D01*
X32248446Y-121298009D01*
X32248459Y-121298016D01*
X32371363Y-121348923D01*
X32412334Y-121365894D01*
X32412336Y-121365894D01*
X32412341Y-121365896D01*
X32586304Y-121400499D01*
X32586307Y-121400500D01*
X32586309Y-121400500D01*
X32763693Y-121400500D01*
X32763694Y-121400499D01*
X32821682Y-121388964D01*
X32937658Y-121365896D01*
X32937661Y-121365894D01*
X32937666Y-121365894D01*
X33101547Y-121298013D01*
X33249035Y-121199464D01*
X33374464Y-121074035D01*
X33473013Y-120926547D01*
X33540894Y-120762666D01*
X33575500Y-120588691D01*
X33575500Y-120411309D01*
X33575500Y-120411306D01*
X33575499Y-120411304D01*
X33540896Y-120237341D01*
X33540893Y-120237332D01*
X33473016Y-120073459D01*
X33473009Y-120073446D01*
X33374464Y-119925965D01*
X33374461Y-119925961D01*
X33249038Y-119800538D01*
X33249034Y-119800535D01*
X33101553Y-119701990D01*
X33101540Y-119701983D01*
X32937667Y-119634106D01*
X32937658Y-119634103D01*
X32763694Y-119599500D01*
X32763691Y-119599500D01*
X32586309Y-119599500D01*
X32586306Y-119599500D01*
X32412341Y-119634103D01*
X32412332Y-119634106D01*
X32248459Y-119701983D01*
X32248446Y-119701990D01*
X32100965Y-119800535D01*
X32100961Y-119800538D01*
X31975538Y-119925961D01*
X31971672Y-119930673D01*
X31969956Y-119929265D01*
X31923976Y-119967683D01*
X31854650Y-119976382D01*
X31791626Y-119946219D01*
X31754914Y-119886772D01*
X31750500Y-119853981D01*
X31750500Y-117880821D01*
X31770185Y-117813782D01*
X31822989Y-117768027D01*
X31892147Y-117758083D01*
X31951812Y-117783873D01*
X32150752Y-117942523D01*
X32369292Y-118079841D01*
X32388557Y-118091946D01*
X32432777Y-118113241D01*
X32641592Y-118213801D01*
X32840680Y-118283465D01*
X32906670Y-118306556D01*
X32906682Y-118306560D01*
X33180491Y-118369055D01*
X33180497Y-118369055D01*
X33180505Y-118369057D01*
X33335196Y-118386486D01*
X33459569Y-118400499D01*
X33459572Y-118400500D01*
X33459575Y-118400500D01*
X33740428Y-118400500D01*
X33740429Y-118400499D01*
X33883055Y-118384429D01*
X34019494Y-118369057D01*
X34019499Y-118369056D01*
X34019509Y-118369055D01*
X34293318Y-118306560D01*
X34558408Y-118213801D01*
X34811445Y-118091945D01*
X35049248Y-117942523D01*
X35268825Y-117767416D01*
X35467416Y-117568825D01*
X35642523Y-117349248D01*
X35791945Y-117111445D01*
X35913801Y-116858408D01*
X36006560Y-116593318D01*
X36069055Y-116319509D01*
X36069982Y-116311287D01*
X36100499Y-116040431D01*
X36100500Y-116040427D01*
X36100500Y-115759572D01*
X36100499Y-115759568D01*
X36097432Y-115732350D01*
X36081713Y-115592832D01*
X36069057Y-115480505D01*
X36069056Y-115480500D01*
X36069055Y-115480491D01*
X36041720Y-115360730D01*
X75449500Y-115360730D01*
X75449500Y-116719269D01*
X75452353Y-116749699D01*
X75452353Y-116749701D01*
X75495795Y-116873847D01*
X75497207Y-116877882D01*
X75577850Y-116987150D01*
X75687118Y-117067793D01*
X75724347Y-117080820D01*
X75815299Y-117112646D01*
X75845730Y-117115500D01*
X75845734Y-117115500D01*
X76654270Y-117115500D01*
X76684699Y-117112646D01*
X76684701Y-117112646D01*
X76748790Y-117090219D01*
X76812882Y-117067793D01*
X76922150Y-116987150D01*
X77002793Y-116877882D01*
X77028895Y-116803285D01*
X77069615Y-116746513D01*
X77134567Y-116720765D01*
X77203129Y-116734221D01*
X77253532Y-116782608D01*
X77256419Y-116787947D01*
X77309194Y-116891521D01*
X77410967Y-117031602D01*
X77533397Y-117154032D01*
X77673475Y-117255804D01*
X77827744Y-117334408D01*
X77992415Y-117387914D01*
X77992414Y-117387914D01*
X77999999Y-117389115D01*
X78000000Y-117389114D01*
X78000000Y-116320330D01*
X78019745Y-116340075D01*
X78105255Y-116389444D01*
X78200630Y-116415000D01*
X78299370Y-116415000D01*
X78394745Y-116389444D01*
X78480255Y-116340075D01*
X78500000Y-116320330D01*
X78500000Y-117389115D01*
X78507584Y-117387914D01*
X78672255Y-117334408D01*
X78826524Y-117255804D01*
X78966602Y-117154032D01*
X79089032Y-117031602D01*
X79190804Y-116891524D01*
X79269408Y-116737257D01*
X79322914Y-116572584D01*
X79333771Y-116504038D01*
X82489500Y-116504038D01*
X82489500Y-116755962D01*
X82513655Y-116908469D01*
X82528910Y-117004785D01*
X82606760Y-117244383D01*
X82652631Y-117334408D01*
X82706118Y-117439383D01*
X82721132Y-117468848D01*
X82869201Y-117672649D01*
X82869205Y-117672654D01*
X83047345Y-117850794D01*
X83047350Y-117850798D01*
X83112291Y-117897980D01*
X83251155Y-117998870D01*
X83380544Y-118064797D01*
X83475616Y-118113239D01*
X83475618Y-118113239D01*
X83475621Y-118113241D01*
X83715215Y-118191090D01*
X83964038Y-118230500D01*
X83964039Y-118230500D01*
X84215961Y-118230500D01*
X84215962Y-118230500D01*
X84464785Y-118191090D01*
X84704379Y-118113241D01*
X84928845Y-117998870D01*
X85132656Y-117850793D01*
X85310793Y-117672656D01*
X85458870Y-117468845D01*
X85573241Y-117244379D01*
X85651090Y-117004785D01*
X85690500Y-116755962D01*
X85690500Y-116504038D01*
X85685210Y-116470638D01*
X102784100Y-116470638D01*
X102784100Y-116722562D01*
X102808701Y-116877883D01*
X102823510Y-116971385D01*
X102901360Y-117210983D01*
X103015732Y-117435448D01*
X103163801Y-117639249D01*
X103163805Y-117639254D01*
X103341945Y-117817394D01*
X103341950Y-117817398D01*
X103514171Y-117942523D01*
X103545755Y-117965470D01*
X103688784Y-118038347D01*
X103770216Y-118079839D01*
X103770218Y-118079839D01*
X103770221Y-118079841D01*
X104009815Y-118157690D01*
X104258638Y-118197100D01*
X104258639Y-118197100D01*
X104510561Y-118197100D01*
X104510562Y-118197100D01*
X104759385Y-118157690D01*
X104998979Y-118079841D01*
X105223445Y-117965470D01*
X105427256Y-117817393D01*
X105605393Y-117639256D01*
X105753470Y-117435445D01*
X105867841Y-117210979D01*
X105945690Y-116971385D01*
X105985100Y-116722562D01*
X105985100Y-116505317D01*
X109434000Y-116505317D01*
X109434000Y-116674683D01*
X109445882Y-116749701D01*
X109460495Y-116841965D01*
X109460495Y-116841968D01*
X109512830Y-117003038D01*
X109568065Y-117111442D01*
X109589722Y-117153947D01*
X109689273Y-117290967D01*
X109809033Y-117410727D01*
X109946053Y-117510278D01*
X110006396Y-117541024D01*
X110096961Y-117587169D01*
X110258032Y-117639504D01*
X110258033Y-117639504D01*
X110258036Y-117639505D01*
X110425317Y-117666000D01*
X110425318Y-117666000D01*
X110594682Y-117666000D01*
X110594683Y-117666000D01*
X110761964Y-117639505D01*
X110761967Y-117639504D01*
X110761968Y-117639504D01*
X110923038Y-117587169D01*
X110923038Y-117587168D01*
X110923041Y-117587168D01*
X111073947Y-117510278D01*
X111210967Y-117410727D01*
X111330727Y-117290967D01*
X111430278Y-117153947D01*
X111507168Y-117003041D01*
X111519489Y-116965122D01*
X111559504Y-116841968D01*
X111559504Y-116841967D01*
X111559505Y-116841964D01*
X111586000Y-116674683D01*
X111586000Y-116624254D01*
X111960500Y-116624254D01*
X111960500Y-116795745D01*
X111987326Y-116965122D01*
X111987327Y-116965125D01*
X112040321Y-117128223D01*
X112099507Y-117244383D01*
X112118178Y-117281025D01*
X112218970Y-117419755D01*
X112218974Y-117419760D01*
X112340239Y-117541025D01*
X112340244Y-117541029D01*
X112403162Y-117586741D01*
X112478978Y-117641824D01*
X112631777Y-117719679D01*
X112794875Y-117772673D01*
X112964254Y-117799500D01*
X112964255Y-117799500D01*
X113135745Y-117799500D01*
X113135746Y-117799500D01*
X113305125Y-117772673D01*
X113468223Y-117719679D01*
X113621022Y-117641824D01*
X113759762Y-117541024D01*
X113881024Y-117419762D01*
X113981824Y-117281022D01*
X114059679Y-117128223D01*
X114112673Y-116965125D01*
X114139500Y-116795746D01*
X114139500Y-116624254D01*
X114500500Y-116624254D01*
X114500500Y-116795745D01*
X114527326Y-116965122D01*
X114527327Y-116965125D01*
X114580321Y-117128223D01*
X114639507Y-117244383D01*
X114658178Y-117281025D01*
X114758970Y-117419755D01*
X114758974Y-117419760D01*
X114880239Y-117541025D01*
X114880244Y-117541029D01*
X114943162Y-117586741D01*
X115018978Y-117641824D01*
X115171777Y-117719679D01*
X115334875Y-117772673D01*
X115504254Y-117799500D01*
X115504255Y-117799500D01*
X115675745Y-117799500D01*
X115675746Y-117799500D01*
X115845125Y-117772673D01*
X116008223Y-117719679D01*
X116161022Y-117641824D01*
X116299762Y-117541024D01*
X116421024Y-117419762D01*
X116521824Y-117281022D01*
X116599679Y-117128223D01*
X116652673Y-116965125D01*
X116679500Y-116795746D01*
X116679500Y-116624254D01*
X117040500Y-116624254D01*
X117040500Y-116795745D01*
X117067326Y-116965122D01*
X117067327Y-116965125D01*
X117120321Y-117128223D01*
X117179507Y-117244383D01*
X117198178Y-117281025D01*
X117298970Y-117419755D01*
X117298974Y-117419760D01*
X117420239Y-117541025D01*
X117420244Y-117541029D01*
X117483162Y-117586741D01*
X117558978Y-117641824D01*
X117711777Y-117719679D01*
X117874875Y-117772673D01*
X118044254Y-117799500D01*
X118044255Y-117799500D01*
X118215745Y-117799500D01*
X118215746Y-117799500D01*
X118385125Y-117772673D01*
X118548223Y-117719679D01*
X118701022Y-117641824D01*
X118839762Y-117541024D01*
X118961024Y-117419762D01*
X119061824Y-117281022D01*
X119139679Y-117128223D01*
X119192673Y-116965125D01*
X119219500Y-116795746D01*
X119219500Y-116624254D01*
X119580500Y-116624254D01*
X119580500Y-116795745D01*
X119607326Y-116965122D01*
X119607327Y-116965125D01*
X119660321Y-117128223D01*
X119719507Y-117244383D01*
X119738178Y-117281025D01*
X119838970Y-117419755D01*
X119838974Y-117419760D01*
X119960239Y-117541025D01*
X119960244Y-117541029D01*
X120023162Y-117586741D01*
X120098978Y-117641824D01*
X120251777Y-117719679D01*
X120414875Y-117772673D01*
X120584254Y-117799500D01*
X120584255Y-117799500D01*
X120755745Y-117799500D01*
X120755746Y-117799500D01*
X120925125Y-117772673D01*
X121088223Y-117719679D01*
X121241022Y-117641824D01*
X121379762Y-117541024D01*
X121501024Y-117419762D01*
X121601824Y-117281022D01*
X121679679Y-117128223D01*
X121732673Y-116965125D01*
X121759500Y-116795746D01*
X121759500Y-116624254D01*
X122120500Y-116624254D01*
X122120500Y-116795745D01*
X122147326Y-116965122D01*
X122147327Y-116965125D01*
X122200321Y-117128223D01*
X122259507Y-117244383D01*
X122278178Y-117281025D01*
X122378970Y-117419755D01*
X122378974Y-117419760D01*
X122500239Y-117541025D01*
X122500244Y-117541029D01*
X122563162Y-117586741D01*
X122638978Y-117641824D01*
X122791777Y-117719679D01*
X122954875Y-117772673D01*
X123124254Y-117799500D01*
X123124255Y-117799500D01*
X123295745Y-117799500D01*
X123295746Y-117799500D01*
X123465125Y-117772673D01*
X123628223Y-117719679D01*
X123781022Y-117641824D01*
X123919762Y-117541024D01*
X124041024Y-117419762D01*
X124141824Y-117281022D01*
X124219679Y-117128223D01*
X124272673Y-116965125D01*
X124299500Y-116795746D01*
X124299500Y-116624254D01*
X124660500Y-116624254D01*
X124660500Y-116795745D01*
X124687326Y-116965122D01*
X124687327Y-116965125D01*
X124740321Y-117128223D01*
X124799507Y-117244383D01*
X124818178Y-117281025D01*
X124918970Y-117419755D01*
X124918974Y-117419760D01*
X125040239Y-117541025D01*
X125040244Y-117541029D01*
X125103162Y-117586741D01*
X125178978Y-117641824D01*
X125331777Y-117719679D01*
X125494875Y-117772673D01*
X125664254Y-117799500D01*
X125664255Y-117799500D01*
X125835745Y-117799500D01*
X125835746Y-117799500D01*
X126005125Y-117772673D01*
X126168223Y-117719679D01*
X126321022Y-117641824D01*
X126459762Y-117541024D01*
X126581024Y-117419762D01*
X126681824Y-117281022D01*
X126759679Y-117128223D01*
X126812673Y-116965125D01*
X126839500Y-116795746D01*
X126839500Y-116624254D01*
X127200500Y-116624254D01*
X127200500Y-116795745D01*
X127227326Y-116965122D01*
X127227327Y-116965125D01*
X127280321Y-117128223D01*
X127339507Y-117244383D01*
X127358178Y-117281025D01*
X127458970Y-117419755D01*
X127458974Y-117419760D01*
X127580239Y-117541025D01*
X127580244Y-117541029D01*
X127643162Y-117586741D01*
X127718978Y-117641824D01*
X127871777Y-117719679D01*
X128034875Y-117772673D01*
X128204254Y-117799500D01*
X128204255Y-117799500D01*
X128375745Y-117799500D01*
X128375746Y-117799500D01*
X128545125Y-117772673D01*
X128708223Y-117719679D01*
X128861022Y-117641824D01*
X128999762Y-117541024D01*
X129121024Y-117419762D01*
X129221824Y-117281022D01*
X129299679Y-117128223D01*
X129352673Y-116965125D01*
X129379500Y-116795746D01*
X129379500Y-116624254D01*
X129740500Y-116624254D01*
X129740500Y-116795745D01*
X129767326Y-116965122D01*
X129767327Y-116965125D01*
X129820321Y-117128223D01*
X129879507Y-117244383D01*
X129898178Y-117281025D01*
X129998970Y-117419755D01*
X129998974Y-117419760D01*
X130120239Y-117541025D01*
X130120244Y-117541029D01*
X130183162Y-117586741D01*
X130258978Y-117641824D01*
X130411777Y-117719679D01*
X130574875Y-117772673D01*
X130744254Y-117799500D01*
X130744255Y-117799500D01*
X130915745Y-117799500D01*
X130915746Y-117799500D01*
X131085125Y-117772673D01*
X131248223Y-117719679D01*
X131401022Y-117641824D01*
X131539762Y-117541024D01*
X131661024Y-117419762D01*
X131761824Y-117281022D01*
X131839679Y-117128223D01*
X131892673Y-116965125D01*
X131919500Y-116795746D01*
X131919500Y-116624254D01*
X132280500Y-116624254D01*
X132280500Y-116795745D01*
X132307326Y-116965122D01*
X132307327Y-116965125D01*
X132360321Y-117128223D01*
X132419507Y-117244383D01*
X132438178Y-117281025D01*
X132538970Y-117419755D01*
X132538974Y-117419760D01*
X132660239Y-117541025D01*
X132660244Y-117541029D01*
X132723162Y-117586741D01*
X132798978Y-117641824D01*
X132951777Y-117719679D01*
X133114875Y-117772673D01*
X133284254Y-117799500D01*
X133284255Y-117799500D01*
X133455745Y-117799500D01*
X133455746Y-117799500D01*
X133625125Y-117772673D01*
X133788223Y-117719679D01*
X133941022Y-117641824D01*
X134079762Y-117541024D01*
X134201024Y-117419762D01*
X134301824Y-117281022D01*
X134379679Y-117128223D01*
X134432673Y-116965125D01*
X134459500Y-116795746D01*
X134459500Y-116624254D01*
X134820500Y-116624254D01*
X134820500Y-116795745D01*
X134847326Y-116965122D01*
X134847327Y-116965125D01*
X134900321Y-117128223D01*
X134959507Y-117244383D01*
X134978178Y-117281025D01*
X135078970Y-117419755D01*
X135078974Y-117419760D01*
X135200239Y-117541025D01*
X135200244Y-117541029D01*
X135263162Y-117586741D01*
X135338978Y-117641824D01*
X135491777Y-117719679D01*
X135654875Y-117772673D01*
X135824254Y-117799500D01*
X135824255Y-117799500D01*
X135995745Y-117799500D01*
X135995746Y-117799500D01*
X136165125Y-117772673D01*
X136328223Y-117719679D01*
X136481022Y-117641824D01*
X136619762Y-117541024D01*
X136741024Y-117419762D01*
X136841824Y-117281022D01*
X136919679Y-117128223D01*
X136972673Y-116965125D01*
X136999500Y-116795746D01*
X136999500Y-116624254D01*
X137360500Y-116624254D01*
X137360500Y-116795745D01*
X137387326Y-116965122D01*
X137387327Y-116965125D01*
X137440321Y-117128223D01*
X137499507Y-117244383D01*
X137518178Y-117281025D01*
X137618970Y-117419755D01*
X137618974Y-117419760D01*
X137740239Y-117541025D01*
X137740244Y-117541029D01*
X137803162Y-117586741D01*
X137878978Y-117641824D01*
X138031777Y-117719679D01*
X138194875Y-117772673D01*
X138364254Y-117799500D01*
X138364255Y-117799500D01*
X138535745Y-117799500D01*
X138535746Y-117799500D01*
X138705125Y-117772673D01*
X138868223Y-117719679D01*
X139021022Y-117641824D01*
X139159762Y-117541024D01*
X139281024Y-117419762D01*
X139381824Y-117281022D01*
X139449392Y-117148411D01*
X139497366Y-117097615D01*
X139565187Y-117080820D01*
X139631322Y-117103357D01*
X139674774Y-117158072D01*
X139677808Y-117166388D01*
X139702761Y-117243188D01*
X139702762Y-117243191D01*
X139802020Y-117437993D01*
X139802021Y-117437995D01*
X139846806Y-117499638D01*
X139846807Y-117499638D01*
X140500504Y-116845941D01*
X140516619Y-116906081D01*
X140583498Y-117021920D01*
X140678080Y-117116502D01*
X140793919Y-117183381D01*
X140854057Y-117199494D01*
X140200360Y-117853191D01*
X140262008Y-117897980D01*
X140456808Y-117997237D01*
X140456811Y-117997238D01*
X140664740Y-118064797D01*
X140880684Y-118099000D01*
X141099316Y-118099000D01*
X141315259Y-118064797D01*
X141523188Y-117997238D01*
X141523191Y-117997237D01*
X141717995Y-117897978D01*
X141779638Y-117853191D01*
X141779639Y-117853191D01*
X141125942Y-117199495D01*
X141186081Y-117183381D01*
X141301920Y-117116502D01*
X141396502Y-117021920D01*
X141463381Y-116906081D01*
X141479494Y-116845942D01*
X142133191Y-117499639D01*
X142133191Y-117499638D01*
X142177978Y-117437995D01*
X142277235Y-117243193D01*
X142302190Y-117166389D01*
X142341627Y-117108713D01*
X142405985Y-117081514D01*
X142474832Y-117093428D01*
X142526308Y-117140671D01*
X142530607Y-117148411D01*
X142545956Y-117178534D01*
X142579507Y-117244383D01*
X142598178Y-117281025D01*
X142698970Y-117419755D01*
X142698974Y-117419760D01*
X142820239Y-117541025D01*
X142820244Y-117541029D01*
X142883162Y-117586741D01*
X142958978Y-117641824D01*
X143111777Y-117719679D01*
X143274875Y-117772673D01*
X143444254Y-117799500D01*
X143444255Y-117799500D01*
X143615745Y-117799500D01*
X143615746Y-117799500D01*
X143785125Y-117772673D01*
X143948223Y-117719679D01*
X144101022Y-117641824D01*
X144239762Y-117541024D01*
X144361024Y-117419762D01*
X144461824Y-117281022D01*
X144539679Y-117128223D01*
X144592673Y-116965125D01*
X144619500Y-116795746D01*
X144619500Y-116624254D01*
X144980500Y-116624254D01*
X144980500Y-116795745D01*
X145007326Y-116965122D01*
X145007327Y-116965125D01*
X145060321Y-117128223D01*
X145119507Y-117244383D01*
X145138178Y-117281025D01*
X145238970Y-117419755D01*
X145238974Y-117419760D01*
X145360239Y-117541025D01*
X145360244Y-117541029D01*
X145423162Y-117586741D01*
X145498978Y-117641824D01*
X145651777Y-117719679D01*
X145814875Y-117772673D01*
X145984254Y-117799500D01*
X145984255Y-117799500D01*
X146155745Y-117799500D01*
X146155746Y-117799500D01*
X146325125Y-117772673D01*
X146488223Y-117719679D01*
X146641022Y-117641824D01*
X146779762Y-117541024D01*
X146901024Y-117419762D01*
X147001824Y-117281022D01*
X147079679Y-117128223D01*
X147132673Y-116965125D01*
X147159500Y-116795746D01*
X147159500Y-116624254D01*
X147520500Y-116624254D01*
X147520500Y-116795745D01*
X147547326Y-116965122D01*
X147547327Y-116965125D01*
X147600321Y-117128223D01*
X147659507Y-117244383D01*
X147678178Y-117281025D01*
X147778970Y-117419755D01*
X147778974Y-117419760D01*
X147900239Y-117541025D01*
X147900244Y-117541029D01*
X147963162Y-117586741D01*
X148038978Y-117641824D01*
X148191777Y-117719679D01*
X148354875Y-117772673D01*
X148524254Y-117799500D01*
X148524255Y-117799500D01*
X148695745Y-117799500D01*
X148695746Y-117799500D01*
X148865125Y-117772673D01*
X149028223Y-117719679D01*
X149181022Y-117641824D01*
X149319762Y-117541024D01*
X149441024Y-117419762D01*
X149541824Y-117281022D01*
X149619679Y-117128223D01*
X149672673Y-116965125D01*
X149699500Y-116795746D01*
X149699500Y-116624254D01*
X149680662Y-116505317D01*
X150074000Y-116505317D01*
X150074000Y-116674683D01*
X150085882Y-116749701D01*
X150100495Y-116841965D01*
X150100495Y-116841968D01*
X150152830Y-117003038D01*
X150208065Y-117111442D01*
X150229722Y-117153947D01*
X150329273Y-117290967D01*
X150449033Y-117410727D01*
X150586053Y-117510278D01*
X150646396Y-117541024D01*
X150736961Y-117587169D01*
X150898032Y-117639504D01*
X150898033Y-117639504D01*
X150898036Y-117639505D01*
X151065317Y-117666000D01*
X151065318Y-117666000D01*
X151234682Y-117666000D01*
X151234683Y-117666000D01*
X151401964Y-117639505D01*
X151401967Y-117639504D01*
X151401968Y-117639504D01*
X151563038Y-117587169D01*
X151563038Y-117587168D01*
X151563041Y-117587168D01*
X151713947Y-117510278D01*
X151850967Y-117410727D01*
X151970727Y-117290967D01*
X152070278Y-117153947D01*
X152147168Y-117003041D01*
X152159489Y-116965122D01*
X152199504Y-116841968D01*
X152199504Y-116841967D01*
X152199505Y-116841964D01*
X152222143Y-116699038D01*
X154399500Y-116699038D01*
X154399500Y-116950962D01*
X154425719Y-117116502D01*
X154438910Y-117199785D01*
X154516760Y-117439383D01*
X154568550Y-117541025D01*
X154619908Y-117641821D01*
X154631132Y-117663848D01*
X154779201Y-117867649D01*
X154779205Y-117867654D01*
X154957345Y-118045794D01*
X154957350Y-118045798D01*
X155092336Y-118143870D01*
X155161155Y-118193870D01*
X155304184Y-118266747D01*
X155385616Y-118308239D01*
X155385618Y-118308239D01*
X155385621Y-118308241D01*
X155625215Y-118386090D01*
X155874038Y-118425500D01*
X155874039Y-118425500D01*
X156125961Y-118425500D01*
X156125962Y-118425500D01*
X156374785Y-118386090D01*
X156614379Y-118308241D01*
X156838845Y-118193870D01*
X157042656Y-118045793D01*
X157220793Y-117867656D01*
X157368870Y-117663845D01*
X157483241Y-117439379D01*
X157561090Y-117199785D01*
X157600500Y-116950962D01*
X157600500Y-116701530D01*
X158769500Y-116701530D01*
X158769500Y-116908469D01*
X158809868Y-117111412D01*
X158809870Y-117111420D01*
X158881917Y-117285357D01*
X158889059Y-117302598D01*
X158891006Y-117305512D01*
X159004024Y-117474657D01*
X159150342Y-117620975D01*
X159150345Y-117620977D01*
X159322402Y-117735941D01*
X159513580Y-117815130D01*
X159704927Y-117853191D01*
X159716530Y-117855499D01*
X159716534Y-117855500D01*
X159716535Y-117855500D01*
X159923466Y-117855500D01*
X159923467Y-117855499D01*
X160126420Y-117815130D01*
X160317598Y-117735941D01*
X160489655Y-117620977D01*
X160635977Y-117474655D01*
X160750941Y-117302598D01*
X160830130Y-117111420D01*
X160870500Y-116908465D01*
X160870500Y-116701535D01*
X160870499Y-116701530D01*
X161309500Y-116701530D01*
X161309500Y-116908469D01*
X161349868Y-117111412D01*
X161349870Y-117111420D01*
X161421917Y-117285357D01*
X161429059Y-117302598D01*
X161431006Y-117305512D01*
X161544024Y-117474657D01*
X161690342Y-117620975D01*
X161690345Y-117620977D01*
X161862402Y-117735941D01*
X162053580Y-117815130D01*
X162244927Y-117853191D01*
X162256530Y-117855499D01*
X162256534Y-117855500D01*
X162256535Y-117855500D01*
X162463466Y-117855500D01*
X162463467Y-117855499D01*
X162666420Y-117815130D01*
X162857598Y-117735941D01*
X163029655Y-117620977D01*
X163175977Y-117474655D01*
X163290941Y-117302598D01*
X163370130Y-117111420D01*
X163410500Y-116908465D01*
X163410500Y-116701535D01*
X163410499Y-116701530D01*
X163849500Y-116701530D01*
X163849500Y-116908469D01*
X163889868Y-117111412D01*
X163889870Y-117111420D01*
X163961917Y-117285357D01*
X163969059Y-117302598D01*
X163971006Y-117305512D01*
X164084024Y-117474657D01*
X164230342Y-117620975D01*
X164230345Y-117620977D01*
X164402402Y-117735941D01*
X164593580Y-117815130D01*
X164784927Y-117853191D01*
X164796530Y-117855499D01*
X164796534Y-117855500D01*
X164796535Y-117855500D01*
X165003466Y-117855500D01*
X165003467Y-117855499D01*
X165206420Y-117815130D01*
X165397598Y-117735941D01*
X165569655Y-117620977D01*
X165715977Y-117474655D01*
X165830941Y-117302598D01*
X165910130Y-117111420D01*
X165950500Y-116908465D01*
X165950500Y-116701535D01*
X165950499Y-116701530D01*
X166389500Y-116701530D01*
X166389500Y-116908469D01*
X166429868Y-117111412D01*
X166429870Y-117111420D01*
X166501917Y-117285357D01*
X166509059Y-117302598D01*
X166511006Y-117305512D01*
X166624024Y-117474657D01*
X166770342Y-117620975D01*
X166770345Y-117620977D01*
X166942402Y-117735941D01*
X167133580Y-117815130D01*
X167324927Y-117853191D01*
X167336530Y-117855499D01*
X167336534Y-117855500D01*
X167336535Y-117855500D01*
X167543466Y-117855500D01*
X167543467Y-117855499D01*
X167746420Y-117815130D01*
X167937598Y-117735941D01*
X168109655Y-117620977D01*
X168255977Y-117474655D01*
X168370941Y-117302598D01*
X168450130Y-117111420D01*
X168490500Y-116908465D01*
X168490500Y-116701535D01*
X168490499Y-116701530D01*
X168929500Y-116701530D01*
X168929500Y-116908469D01*
X168969868Y-117111412D01*
X168969870Y-117111420D01*
X169041917Y-117285357D01*
X169049059Y-117302598D01*
X169051006Y-117305512D01*
X169164024Y-117474657D01*
X169310342Y-117620975D01*
X169310345Y-117620977D01*
X169482402Y-117735941D01*
X169673580Y-117815130D01*
X169864927Y-117853191D01*
X169876530Y-117855499D01*
X169876534Y-117855500D01*
X169876535Y-117855500D01*
X170083466Y-117855500D01*
X170083467Y-117855499D01*
X170286420Y-117815130D01*
X170477598Y-117735941D01*
X170649655Y-117620977D01*
X170795977Y-117474655D01*
X170910941Y-117302598D01*
X170990130Y-117111420D01*
X171030500Y-116908465D01*
X171030500Y-116701535D01*
X171030499Y-116701530D01*
X171469500Y-116701530D01*
X171469500Y-116908469D01*
X171509868Y-117111412D01*
X171509870Y-117111420D01*
X171581917Y-117285357D01*
X171589059Y-117302598D01*
X171591006Y-117305512D01*
X171704024Y-117474657D01*
X171850342Y-117620975D01*
X171850345Y-117620977D01*
X172022402Y-117735941D01*
X172213580Y-117815130D01*
X172404927Y-117853191D01*
X172416530Y-117855499D01*
X172416534Y-117855500D01*
X172416535Y-117855500D01*
X172623466Y-117855500D01*
X172623467Y-117855499D01*
X172826420Y-117815130D01*
X173017598Y-117735941D01*
X173189655Y-117620977D01*
X173335977Y-117474655D01*
X173450941Y-117302598D01*
X173530130Y-117111420D01*
X173570500Y-116908465D01*
X173570500Y-116701535D01*
X173565159Y-116674682D01*
X173563901Y-116668357D01*
X173560058Y-116649038D01*
X174699500Y-116649038D01*
X174699500Y-116900962D01*
X174733028Y-117112646D01*
X174738910Y-117149785D01*
X174816760Y-117389383D01*
X174894026Y-117541024D01*
X174917537Y-117587168D01*
X174931132Y-117613848D01*
X175079201Y-117817649D01*
X175079205Y-117817654D01*
X175257345Y-117995794D01*
X175257350Y-117995798D01*
X175418995Y-118113239D01*
X175461155Y-118143870D01*
X175604184Y-118216747D01*
X175685616Y-118258239D01*
X175685618Y-118258239D01*
X175685621Y-118258241D01*
X175925215Y-118336090D01*
X176174038Y-118375500D01*
X176174039Y-118375500D01*
X176425961Y-118375500D01*
X176425962Y-118375500D01*
X176674785Y-118336090D01*
X176914379Y-118258241D01*
X177138845Y-118143870D01*
X177342656Y-117995793D01*
X177520793Y-117817656D01*
X177668870Y-117613845D01*
X177783241Y-117389379D01*
X177861090Y-117149785D01*
X177900500Y-116900962D01*
X177900500Y-116649038D01*
X177898588Y-116636962D01*
X180775500Y-116636962D01*
X180775500Y-116863037D01*
X180797693Y-117031602D01*
X180805007Y-117087155D01*
X180846816Y-117243188D01*
X180858114Y-117285357D01*
X180863515Y-117305512D01*
X180950025Y-117514363D01*
X180950027Y-117514368D01*
X180950030Y-117514373D01*
X181063053Y-117710135D01*
X181200668Y-117889479D01*
X181200674Y-117889486D01*
X181360513Y-118049325D01*
X181360520Y-118049331D01*
X181539864Y-118186946D01*
X181735626Y-118299969D01*
X181735628Y-118299969D01*
X181735637Y-118299975D01*
X181944488Y-118386485D01*
X182162845Y-118444993D01*
X182386970Y-118474500D01*
X182386977Y-118474500D01*
X182613023Y-118474500D01*
X182613030Y-118474500D01*
X182837155Y-118444993D01*
X183055512Y-118386485D01*
X183264363Y-118299975D01*
X183460136Y-118186946D01*
X183639481Y-118049330D01*
X183799330Y-117889481D01*
X183936946Y-117710136D01*
X184049975Y-117514363D01*
X184136485Y-117305512D01*
X184194993Y-117087155D01*
X184224500Y-116863030D01*
X184224500Y-116636970D01*
X184224499Y-116636962D01*
X201095500Y-116636962D01*
X201095500Y-116863037D01*
X201117693Y-117031602D01*
X201125007Y-117087155D01*
X201166816Y-117243188D01*
X201178114Y-117285357D01*
X201183515Y-117305512D01*
X201270025Y-117514363D01*
X201270027Y-117514368D01*
X201270030Y-117514373D01*
X201383053Y-117710135D01*
X201520668Y-117889479D01*
X201520674Y-117889486D01*
X201680513Y-118049325D01*
X201680520Y-118049331D01*
X201859864Y-118186946D01*
X202055626Y-118299969D01*
X202055628Y-118299969D01*
X202055637Y-118299975D01*
X202264488Y-118386485D01*
X202482845Y-118444993D01*
X202706970Y-118474500D01*
X202706977Y-118474500D01*
X202933023Y-118474500D01*
X202933030Y-118474500D01*
X203157155Y-118444993D01*
X203375512Y-118386485D01*
X203584363Y-118299975D01*
X203780136Y-118186946D01*
X203959481Y-118049330D01*
X204119330Y-117889481D01*
X204256946Y-117710136D01*
X204369975Y-117514363D01*
X204456485Y-117305512D01*
X204514993Y-117087155D01*
X204544500Y-116863030D01*
X204544500Y-116636970D01*
X204514993Y-116412845D01*
X204456485Y-116194488D01*
X204369975Y-115985637D01*
X204341404Y-115936151D01*
X204256946Y-115789864D01*
X204119331Y-115610520D01*
X204119325Y-115610513D01*
X203959486Y-115450674D01*
X203959479Y-115450668D01*
X203780135Y-115313053D01*
X203584373Y-115200030D01*
X203584368Y-115200027D01*
X203584363Y-115200025D01*
X203375512Y-115113515D01*
X203157155Y-115055007D01*
X203106948Y-115048397D01*
X202933037Y-115025500D01*
X202933030Y-115025500D01*
X202706970Y-115025500D01*
X202706962Y-115025500D01*
X202493635Y-115053586D01*
X202482845Y-115055007D01*
X202430958Y-115068910D01*
X202264494Y-115113513D01*
X202264490Y-115113514D01*
X202264488Y-115113515D01*
X202055637Y-115200025D01*
X202055634Y-115200026D01*
X202055626Y-115200030D01*
X201859864Y-115313053D01*
X201680520Y-115450668D01*
X201680513Y-115450674D01*
X201520674Y-115610513D01*
X201520668Y-115610520D01*
X201383053Y-115789864D01*
X201270030Y-115985626D01*
X201270026Y-115985634D01*
X201270025Y-115985637D01*
X201190837Y-116176811D01*
X201183518Y-116194481D01*
X201183513Y-116194494D01*
X201144746Y-116339179D01*
X201128392Y-116400214D01*
X201125008Y-116412842D01*
X201125006Y-116412853D01*
X201095500Y-116636962D01*
X184224499Y-116636962D01*
X184194993Y-116412845D01*
X184136485Y-116194488D01*
X184049975Y-115985637D01*
X184021404Y-115936151D01*
X183936946Y-115789864D01*
X183799331Y-115610520D01*
X183799325Y-115610513D01*
X183639486Y-115450674D01*
X183639479Y-115450668D01*
X183460135Y-115313053D01*
X183264373Y-115200030D01*
X183264368Y-115200027D01*
X183264363Y-115200025D01*
X183055512Y-115113515D01*
X182837155Y-115055007D01*
X182786948Y-115048397D01*
X182613037Y-115025500D01*
X182613030Y-115025500D01*
X182386970Y-115025500D01*
X182386962Y-115025500D01*
X182173635Y-115053586D01*
X182162845Y-115055007D01*
X182110958Y-115068910D01*
X181944494Y-115113513D01*
X181944490Y-115113514D01*
X181944488Y-115113515D01*
X181735637Y-115200025D01*
X181735634Y-115200026D01*
X181735626Y-115200030D01*
X181539864Y-115313053D01*
X181360520Y-115450668D01*
X181360513Y-115450674D01*
X181200674Y-115610513D01*
X181200668Y-115610520D01*
X181063053Y-115789864D01*
X180950030Y-115985626D01*
X180950026Y-115985634D01*
X180950025Y-115985637D01*
X180870837Y-116176811D01*
X180863518Y-116194481D01*
X180863513Y-116194494D01*
X180824746Y-116339179D01*
X180808392Y-116400214D01*
X180805008Y-116412842D01*
X180805006Y-116412853D01*
X180775500Y-116636962D01*
X177898588Y-116636962D01*
X177896575Y-116624254D01*
X177861090Y-116400214D01*
X177816157Y-116261926D01*
X177783241Y-116160621D01*
X177783239Y-116160618D01*
X177783239Y-116160616D01*
X177714675Y-116026053D01*
X177668870Y-115936155D01*
X177649952Y-115910117D01*
X177520798Y-115732350D01*
X177520794Y-115732345D01*
X177342654Y-115554205D01*
X177342649Y-115554201D01*
X177138848Y-115406132D01*
X177138847Y-115406131D01*
X177138845Y-115406130D01*
X177049750Y-115360734D01*
X176914383Y-115291760D01*
X176674785Y-115213910D01*
X176425962Y-115174500D01*
X176174038Y-115174500D01*
X176085804Y-115188475D01*
X175925214Y-115213910D01*
X175685616Y-115291760D01*
X175461151Y-115406132D01*
X175257350Y-115554201D01*
X175257345Y-115554205D01*
X175079205Y-115732345D01*
X175079201Y-115732350D01*
X174931132Y-115936151D01*
X174816760Y-116160616D01*
X174738910Y-116400214D01*
X174703425Y-116624254D01*
X174699500Y-116649038D01*
X173560058Y-116649038D01*
X173531216Y-116504041D01*
X173530130Y-116498580D01*
X173450941Y-116307402D01*
X173335977Y-116135345D01*
X173335975Y-116135342D01*
X173189657Y-115989024D01*
X173040005Y-115889031D01*
X173017598Y-115874059D01*
X172826420Y-115794870D01*
X172826412Y-115794868D01*
X172623469Y-115754500D01*
X172623465Y-115754500D01*
X172416535Y-115754500D01*
X172416530Y-115754500D01*
X172213587Y-115794868D01*
X172213579Y-115794870D01*
X172022403Y-115874058D01*
X171850342Y-115989024D01*
X171704024Y-116135342D01*
X171589058Y-116307403D01*
X171509870Y-116498579D01*
X171509868Y-116498587D01*
X171469500Y-116701530D01*
X171030499Y-116701530D01*
X170990130Y-116498580D01*
X170910941Y-116307402D01*
X170795977Y-116135345D01*
X170795975Y-116135342D01*
X170649657Y-115989024D01*
X170500005Y-115889031D01*
X170477598Y-115874059D01*
X170286420Y-115794870D01*
X170286412Y-115794868D01*
X170083469Y-115754500D01*
X170083465Y-115754500D01*
X169876535Y-115754500D01*
X169876530Y-115754500D01*
X169673587Y-115794868D01*
X169673579Y-115794870D01*
X169482403Y-115874058D01*
X169310342Y-115989024D01*
X169164024Y-116135342D01*
X169049058Y-116307403D01*
X168969870Y-116498579D01*
X168969868Y-116498587D01*
X168929500Y-116701530D01*
X168490499Y-116701530D01*
X168450130Y-116498580D01*
X168370941Y-116307402D01*
X168255977Y-116135345D01*
X168255975Y-116135342D01*
X168109657Y-115989024D01*
X167960005Y-115889031D01*
X167937598Y-115874059D01*
X167746420Y-115794870D01*
X167746412Y-115794868D01*
X167543469Y-115754500D01*
X167543465Y-115754500D01*
X167336535Y-115754500D01*
X167336530Y-115754500D01*
X167133587Y-115794868D01*
X167133579Y-115794870D01*
X166942403Y-115874058D01*
X166770342Y-115989024D01*
X166624024Y-116135342D01*
X166509058Y-116307403D01*
X166429870Y-116498579D01*
X166429868Y-116498587D01*
X166389500Y-116701530D01*
X165950499Y-116701530D01*
X165910130Y-116498580D01*
X165830941Y-116307402D01*
X165715977Y-116135345D01*
X165715975Y-116135342D01*
X165569657Y-115989024D01*
X165420005Y-115889031D01*
X165397598Y-115874059D01*
X165206420Y-115794870D01*
X165206412Y-115794868D01*
X165003469Y-115754500D01*
X165003465Y-115754500D01*
X164796535Y-115754500D01*
X164796530Y-115754500D01*
X164593587Y-115794868D01*
X164593579Y-115794870D01*
X164402403Y-115874058D01*
X164230342Y-115989024D01*
X164084024Y-116135342D01*
X163969058Y-116307403D01*
X163889870Y-116498579D01*
X163889868Y-116498587D01*
X163849500Y-116701530D01*
X163410499Y-116701530D01*
X163370130Y-116498580D01*
X163290941Y-116307402D01*
X163175977Y-116135345D01*
X163175975Y-116135342D01*
X163029657Y-115989024D01*
X162880005Y-115889031D01*
X162857598Y-115874059D01*
X162666420Y-115794870D01*
X162666412Y-115794868D01*
X162463469Y-115754500D01*
X162463465Y-115754500D01*
X162256535Y-115754500D01*
X162256530Y-115754500D01*
X162053587Y-115794868D01*
X162053579Y-115794870D01*
X161862403Y-115874058D01*
X161690342Y-115989024D01*
X161544024Y-116135342D01*
X161429058Y-116307403D01*
X161349870Y-116498579D01*
X161349868Y-116498587D01*
X161309500Y-116701530D01*
X160870499Y-116701530D01*
X160830130Y-116498580D01*
X160750941Y-116307402D01*
X160635977Y-116135345D01*
X160635975Y-116135342D01*
X160489657Y-115989024D01*
X160340005Y-115889031D01*
X160317598Y-115874059D01*
X160126420Y-115794870D01*
X160126412Y-115794868D01*
X159923469Y-115754500D01*
X159923465Y-115754500D01*
X159716535Y-115754500D01*
X159716530Y-115754500D01*
X159513587Y-115794868D01*
X159513579Y-115794870D01*
X159322403Y-115874058D01*
X159150342Y-115989024D01*
X159004024Y-116135342D01*
X158889058Y-116307403D01*
X158809870Y-116498579D01*
X158809868Y-116498587D01*
X158769500Y-116701530D01*
X157600500Y-116701530D01*
X157600500Y-116699038D01*
X157561090Y-116450215D01*
X157483241Y-116210621D01*
X157483239Y-116210618D01*
X157483239Y-116210616D01*
X157441747Y-116129184D01*
X157368870Y-115986155D01*
X157321067Y-115920360D01*
X157220798Y-115782350D01*
X157220794Y-115782345D01*
X157042654Y-115604205D01*
X157042649Y-115604201D01*
X156838848Y-115456132D01*
X156838847Y-115456131D01*
X156838845Y-115456130D01*
X156768747Y-115420413D01*
X156614383Y-115341760D01*
X156374785Y-115263910D01*
X156125962Y-115224500D01*
X155874038Y-115224500D01*
X155749626Y-115244205D01*
X155625214Y-115263910D01*
X155385616Y-115341760D01*
X155161151Y-115456132D01*
X154957350Y-115604201D01*
X154957345Y-115604205D01*
X154779205Y-115782345D01*
X154779201Y-115782350D01*
X154631132Y-115986151D01*
X154516760Y-116210616D01*
X154438910Y-116450214D01*
X154416243Y-116593329D01*
X154399500Y-116699038D01*
X152222143Y-116699038D01*
X152226000Y-116674683D01*
X152226000Y-116505317D01*
X152199505Y-116338036D01*
X152199504Y-116338032D01*
X152199504Y-116338031D01*
X152147169Y-116176961D01*
X152102539Y-116089370D01*
X152070278Y-116026053D01*
X151970727Y-115889033D01*
X151850967Y-115769273D01*
X151713947Y-115669722D01*
X151563038Y-115592830D01*
X151401967Y-115540495D01*
X151276503Y-115520623D01*
X151234683Y-115514000D01*
X151065317Y-115514000D01*
X151014681Y-115522020D01*
X150898034Y-115540495D01*
X150898031Y-115540495D01*
X150736961Y-115592830D01*
X150586052Y-115669722D01*
X150510587Y-115724551D01*
X150449033Y-115769273D01*
X150449031Y-115769275D01*
X150449030Y-115769275D01*
X150329275Y-115889030D01*
X150329275Y-115889031D01*
X150329273Y-115889033D01*
X150306513Y-115920360D01*
X150229722Y-116026052D01*
X150152830Y-116176961D01*
X150100495Y-116338031D01*
X150100495Y-116338034D01*
X150082727Y-116450215D01*
X150074000Y-116505317D01*
X149680662Y-116505317D01*
X149672673Y-116454875D01*
X149619679Y-116291777D01*
X149541824Y-116138978D01*
X149470223Y-116040427D01*
X149441029Y-116000244D01*
X149441025Y-116000239D01*
X149319760Y-115878974D01*
X149319755Y-115878970D01*
X149181025Y-115778178D01*
X149181024Y-115778177D01*
X149181022Y-115778176D01*
X149028223Y-115700321D01*
X148865125Y-115647327D01*
X148865123Y-115647326D01*
X148865122Y-115647326D01*
X148735009Y-115626718D01*
X148695746Y-115620500D01*
X148524254Y-115620500D01*
X148492379Y-115625548D01*
X148354877Y-115647326D01*
X148191774Y-115700322D01*
X148038974Y-115778178D01*
X147900244Y-115878970D01*
X147900239Y-115878974D01*
X147778974Y-116000239D01*
X147778970Y-116000244D01*
X147678178Y-116138974D01*
X147600322Y-116291774D01*
X147547326Y-116454877D01*
X147520500Y-116624254D01*
X147159500Y-116624254D01*
X147132673Y-116454875D01*
X147079679Y-116291777D01*
X147001824Y-116138978D01*
X146930223Y-116040427D01*
X146901029Y-116000244D01*
X146901025Y-116000239D01*
X146779760Y-115878974D01*
X146779755Y-115878970D01*
X146641025Y-115778178D01*
X146641024Y-115778177D01*
X146641022Y-115778176D01*
X146488223Y-115700321D01*
X146325125Y-115647327D01*
X146325123Y-115647326D01*
X146325122Y-115647326D01*
X146195009Y-115626718D01*
X146155746Y-115620500D01*
X145984254Y-115620500D01*
X145952379Y-115625548D01*
X145814877Y-115647326D01*
X145651774Y-115700322D01*
X145498974Y-115778178D01*
X145360244Y-115878970D01*
X145360239Y-115878974D01*
X145238974Y-116000239D01*
X145238970Y-116000244D01*
X145138178Y-116138974D01*
X145060322Y-116291774D01*
X145007326Y-116454877D01*
X144980500Y-116624254D01*
X144619500Y-116624254D01*
X144592673Y-116454875D01*
X144539679Y-116291777D01*
X144461824Y-116138978D01*
X144390223Y-116040427D01*
X144361029Y-116000244D01*
X144361025Y-116000239D01*
X144239760Y-115878974D01*
X144239755Y-115878970D01*
X144101025Y-115778178D01*
X144101024Y-115778177D01*
X144101022Y-115778176D01*
X143948223Y-115700321D01*
X143785125Y-115647327D01*
X143785123Y-115647326D01*
X143785122Y-115647326D01*
X143655009Y-115626718D01*
X143615746Y-115620500D01*
X143444254Y-115620500D01*
X143412379Y-115625548D01*
X143274877Y-115647326D01*
X143111774Y-115700322D01*
X142958974Y-115778178D01*
X142820244Y-115878970D01*
X142820239Y-115878974D01*
X142698974Y-116000239D01*
X142698970Y-116000244D01*
X142598175Y-116138978D01*
X142598174Y-116138979D01*
X142530606Y-116271588D01*
X142482632Y-116322384D01*
X142414811Y-116339179D01*
X142348676Y-116316641D01*
X142305225Y-116261926D01*
X142302191Y-116253610D01*
X142277239Y-116176814D01*
X142277237Y-116176808D01*
X142177980Y-115982008D01*
X142133191Y-115920360D01*
X141479494Y-116574057D01*
X141463381Y-116513919D01*
X141396502Y-116398080D01*
X141301920Y-116303498D01*
X141186081Y-116236619D01*
X141125940Y-116220504D01*
X141779638Y-115566807D01*
X141779638Y-115566806D01*
X141717995Y-115522021D01*
X141717993Y-115522020D01*
X141523191Y-115422762D01*
X141523188Y-115422761D01*
X141315259Y-115355202D01*
X141099316Y-115321000D01*
X140880684Y-115321000D01*
X140664740Y-115355202D01*
X140456811Y-115422761D01*
X140456808Y-115422762D01*
X140262001Y-115522023D01*
X140200360Y-115566806D01*
X140200360Y-115566807D01*
X140854057Y-116220504D01*
X140793919Y-116236619D01*
X140678080Y-116303498D01*
X140583498Y-116398080D01*
X140516619Y-116513919D01*
X140500504Y-116574057D01*
X139846807Y-115920360D01*
X139846806Y-115920360D01*
X139802025Y-115981999D01*
X139702762Y-116176808D01*
X139702761Y-116176811D01*
X139677808Y-116253611D01*
X139638370Y-116311287D01*
X139574012Y-116338485D01*
X139505165Y-116326570D01*
X139453690Y-116279326D01*
X139449392Y-116271588D01*
X139440232Y-116253610D01*
X139381824Y-116138978D01*
X139381822Y-116138975D01*
X139381821Y-116138973D01*
X139281029Y-116000244D01*
X139281025Y-116000239D01*
X139159760Y-115878974D01*
X139159755Y-115878970D01*
X139021025Y-115778178D01*
X139021024Y-115778177D01*
X139021022Y-115778176D01*
X138868223Y-115700321D01*
X138705125Y-115647327D01*
X138705123Y-115647326D01*
X138705122Y-115647326D01*
X138575009Y-115626718D01*
X138535746Y-115620500D01*
X138364254Y-115620500D01*
X138332379Y-115625548D01*
X138194877Y-115647326D01*
X138031774Y-115700322D01*
X137878974Y-115778178D01*
X137740244Y-115878970D01*
X137740239Y-115878974D01*
X137618974Y-116000239D01*
X137618970Y-116000244D01*
X137518178Y-116138974D01*
X137440322Y-116291774D01*
X137387326Y-116454877D01*
X137360500Y-116624254D01*
X136999500Y-116624254D01*
X136972673Y-116454875D01*
X136919679Y-116291777D01*
X136841824Y-116138978D01*
X136770223Y-116040427D01*
X136741029Y-116000244D01*
X136741025Y-116000239D01*
X136619760Y-115878974D01*
X136619755Y-115878970D01*
X136481025Y-115778178D01*
X136481024Y-115778177D01*
X136481022Y-115778176D01*
X136328223Y-115700321D01*
X136165125Y-115647327D01*
X136165123Y-115647326D01*
X136165122Y-115647326D01*
X136035009Y-115626718D01*
X135995746Y-115620500D01*
X135824254Y-115620500D01*
X135792379Y-115625548D01*
X135654877Y-115647326D01*
X135491774Y-115700322D01*
X135338974Y-115778178D01*
X135200244Y-115878970D01*
X135200239Y-115878974D01*
X135078974Y-116000239D01*
X135078970Y-116000244D01*
X134978178Y-116138974D01*
X134900322Y-116291774D01*
X134847326Y-116454877D01*
X134820500Y-116624254D01*
X134459500Y-116624254D01*
X134432673Y-116454875D01*
X134379679Y-116291777D01*
X134301824Y-116138978D01*
X134230223Y-116040427D01*
X134201029Y-116000244D01*
X134201025Y-116000239D01*
X134079760Y-115878974D01*
X134079755Y-115878970D01*
X133941025Y-115778178D01*
X133941024Y-115778177D01*
X133941022Y-115778176D01*
X133788223Y-115700321D01*
X133625125Y-115647327D01*
X133625123Y-115647326D01*
X133625122Y-115647326D01*
X133495009Y-115626718D01*
X133455746Y-115620500D01*
X133284254Y-115620500D01*
X133252379Y-115625548D01*
X133114877Y-115647326D01*
X132951774Y-115700322D01*
X132798974Y-115778178D01*
X132660244Y-115878970D01*
X132660239Y-115878974D01*
X132538974Y-116000239D01*
X132538970Y-116000244D01*
X132438178Y-116138974D01*
X132360322Y-116291774D01*
X132307326Y-116454877D01*
X132280500Y-116624254D01*
X131919500Y-116624254D01*
X131892673Y-116454875D01*
X131839679Y-116291777D01*
X131761824Y-116138978D01*
X131690223Y-116040427D01*
X131661029Y-116000244D01*
X131661025Y-116000239D01*
X131539760Y-115878974D01*
X131539755Y-115878970D01*
X131401025Y-115778178D01*
X131401024Y-115778177D01*
X131401022Y-115778176D01*
X131248223Y-115700321D01*
X131085125Y-115647327D01*
X131085123Y-115647326D01*
X131085122Y-115647326D01*
X130955009Y-115626718D01*
X130915746Y-115620500D01*
X130744254Y-115620500D01*
X130712379Y-115625548D01*
X130574877Y-115647326D01*
X130411774Y-115700322D01*
X130258974Y-115778178D01*
X130120244Y-115878970D01*
X130120239Y-115878974D01*
X129998974Y-116000239D01*
X129998970Y-116000244D01*
X129898178Y-116138974D01*
X129820322Y-116291774D01*
X129767326Y-116454877D01*
X129740500Y-116624254D01*
X129379500Y-116624254D01*
X129352673Y-116454875D01*
X129299679Y-116291777D01*
X129221824Y-116138978D01*
X129150223Y-116040427D01*
X129121029Y-116000244D01*
X129121025Y-116000239D01*
X128999760Y-115878974D01*
X128999755Y-115878970D01*
X128861025Y-115778178D01*
X128861024Y-115778177D01*
X128861022Y-115778176D01*
X128708223Y-115700321D01*
X128545125Y-115647327D01*
X128545123Y-115647326D01*
X128545122Y-115647326D01*
X128415009Y-115626718D01*
X128375746Y-115620500D01*
X128204254Y-115620500D01*
X128172379Y-115625548D01*
X128034877Y-115647326D01*
X127871774Y-115700322D01*
X127718974Y-115778178D01*
X127580244Y-115878970D01*
X127580239Y-115878974D01*
X127458974Y-116000239D01*
X127458970Y-116000244D01*
X127358178Y-116138974D01*
X127280322Y-116291774D01*
X127227326Y-116454877D01*
X127200500Y-116624254D01*
X126839500Y-116624254D01*
X126812673Y-116454875D01*
X126759679Y-116291777D01*
X126681824Y-116138978D01*
X126610223Y-116040427D01*
X126581029Y-116000244D01*
X126581025Y-116000239D01*
X126459760Y-115878974D01*
X126459755Y-115878970D01*
X126321025Y-115778178D01*
X126321024Y-115778177D01*
X126321022Y-115778176D01*
X126168223Y-115700321D01*
X126005125Y-115647327D01*
X126005123Y-115647326D01*
X126005122Y-115647326D01*
X125875009Y-115626718D01*
X125835746Y-115620500D01*
X125664254Y-115620500D01*
X125632379Y-115625548D01*
X125494877Y-115647326D01*
X125331774Y-115700322D01*
X125178974Y-115778178D01*
X125040244Y-115878970D01*
X125040239Y-115878974D01*
X124918974Y-116000239D01*
X124918970Y-116000244D01*
X124818178Y-116138974D01*
X124740322Y-116291774D01*
X124687326Y-116454877D01*
X124660500Y-116624254D01*
X124299500Y-116624254D01*
X124272673Y-116454875D01*
X124219679Y-116291777D01*
X124141824Y-116138978D01*
X124070223Y-116040427D01*
X124041029Y-116000244D01*
X124041025Y-116000239D01*
X123919760Y-115878974D01*
X123919755Y-115878970D01*
X123781025Y-115778178D01*
X123781024Y-115778177D01*
X123781022Y-115778176D01*
X123628223Y-115700321D01*
X123465125Y-115647327D01*
X123465123Y-115647326D01*
X123465122Y-115647326D01*
X123335009Y-115626718D01*
X123295746Y-115620500D01*
X123124254Y-115620500D01*
X123092379Y-115625548D01*
X122954877Y-115647326D01*
X122791774Y-115700322D01*
X122638974Y-115778178D01*
X122500244Y-115878970D01*
X122500239Y-115878974D01*
X122378974Y-116000239D01*
X122378970Y-116000244D01*
X122278178Y-116138974D01*
X122200322Y-116291774D01*
X122147326Y-116454877D01*
X122120500Y-116624254D01*
X121759500Y-116624254D01*
X121732673Y-116454875D01*
X121679679Y-116291777D01*
X121601824Y-116138978D01*
X121530223Y-116040427D01*
X121501029Y-116000244D01*
X121501025Y-116000239D01*
X121379760Y-115878974D01*
X121379755Y-115878970D01*
X121241025Y-115778178D01*
X121241024Y-115778177D01*
X121241022Y-115778176D01*
X121088223Y-115700321D01*
X120925125Y-115647327D01*
X120925123Y-115647326D01*
X120925122Y-115647326D01*
X120795009Y-115626718D01*
X120755746Y-115620500D01*
X120584254Y-115620500D01*
X120552379Y-115625548D01*
X120414877Y-115647326D01*
X120251774Y-115700322D01*
X120098974Y-115778178D01*
X119960244Y-115878970D01*
X119960239Y-115878974D01*
X119838974Y-116000239D01*
X119838970Y-116000244D01*
X119738178Y-116138974D01*
X119660322Y-116291774D01*
X119607326Y-116454877D01*
X119580500Y-116624254D01*
X119219500Y-116624254D01*
X119192673Y-116454875D01*
X119139679Y-116291777D01*
X119061824Y-116138978D01*
X118990223Y-116040427D01*
X118961029Y-116000244D01*
X118961025Y-116000239D01*
X118839760Y-115878974D01*
X118839755Y-115878970D01*
X118701025Y-115778178D01*
X118701024Y-115778177D01*
X118701022Y-115778176D01*
X118548223Y-115700321D01*
X118385125Y-115647327D01*
X118385123Y-115647326D01*
X118385122Y-115647326D01*
X118255009Y-115626718D01*
X118215746Y-115620500D01*
X118044254Y-115620500D01*
X118012379Y-115625548D01*
X117874877Y-115647326D01*
X117711774Y-115700322D01*
X117558974Y-115778178D01*
X117420244Y-115878970D01*
X117420239Y-115878974D01*
X117298974Y-116000239D01*
X117298970Y-116000244D01*
X117198178Y-116138974D01*
X117120322Y-116291774D01*
X117067326Y-116454877D01*
X117040500Y-116624254D01*
X116679500Y-116624254D01*
X116652673Y-116454875D01*
X116599679Y-116291777D01*
X116521824Y-116138978D01*
X116450223Y-116040427D01*
X116421029Y-116000244D01*
X116421025Y-116000239D01*
X116299760Y-115878974D01*
X116299755Y-115878970D01*
X116161025Y-115778178D01*
X116161024Y-115778177D01*
X116161022Y-115778176D01*
X116008223Y-115700321D01*
X115845125Y-115647327D01*
X115845123Y-115647326D01*
X115845122Y-115647326D01*
X115715009Y-115626718D01*
X115675746Y-115620500D01*
X115504254Y-115620500D01*
X115472379Y-115625548D01*
X115334877Y-115647326D01*
X115171774Y-115700322D01*
X115018974Y-115778178D01*
X114880244Y-115878970D01*
X114880239Y-115878974D01*
X114758974Y-116000239D01*
X114758970Y-116000244D01*
X114658178Y-116138974D01*
X114580322Y-116291774D01*
X114527326Y-116454877D01*
X114500500Y-116624254D01*
X114139500Y-116624254D01*
X114112673Y-116454875D01*
X114059679Y-116291777D01*
X113981824Y-116138978D01*
X113910223Y-116040427D01*
X113881029Y-116000244D01*
X113881025Y-116000239D01*
X113759760Y-115878974D01*
X113759755Y-115878970D01*
X113621025Y-115778178D01*
X113621024Y-115778177D01*
X113621022Y-115778176D01*
X113468223Y-115700321D01*
X113305125Y-115647327D01*
X113305123Y-115647326D01*
X113305122Y-115647326D01*
X113175009Y-115626718D01*
X113135746Y-115620500D01*
X112964254Y-115620500D01*
X112932379Y-115625548D01*
X112794877Y-115647326D01*
X112631774Y-115700322D01*
X112478974Y-115778178D01*
X112340244Y-115878970D01*
X112340239Y-115878974D01*
X112218974Y-116000239D01*
X112218970Y-116000244D01*
X112118178Y-116138974D01*
X112040322Y-116291774D01*
X111987326Y-116454877D01*
X111960500Y-116624254D01*
X111586000Y-116624254D01*
X111586000Y-116505317D01*
X111559505Y-116338036D01*
X111559504Y-116338032D01*
X111559504Y-116338031D01*
X111507169Y-116176961D01*
X111462539Y-116089370D01*
X111430278Y-116026053D01*
X111330727Y-115889033D01*
X111210967Y-115769273D01*
X111073947Y-115669722D01*
X110923038Y-115592830D01*
X110761967Y-115540495D01*
X110636503Y-115520623D01*
X110594683Y-115514000D01*
X110425317Y-115514000D01*
X110374681Y-115522020D01*
X110258034Y-115540495D01*
X110258031Y-115540495D01*
X110096961Y-115592830D01*
X109946052Y-115669722D01*
X109870587Y-115724551D01*
X109809033Y-115769273D01*
X109809031Y-115769275D01*
X109809030Y-115769275D01*
X109689275Y-115889030D01*
X109689275Y-115889031D01*
X109689273Y-115889033D01*
X109666513Y-115920360D01*
X109589722Y-116026052D01*
X109512830Y-116176961D01*
X109460495Y-116338031D01*
X109460495Y-116338034D01*
X109442727Y-116450215D01*
X109434000Y-116505317D01*
X105985100Y-116505317D01*
X105985100Y-116470638D01*
X105945690Y-116221815D01*
X105867841Y-115982221D01*
X105867839Y-115982218D01*
X105867839Y-115982216D01*
X105779960Y-115809745D01*
X105753470Y-115757755D01*
X105695836Y-115678428D01*
X105605398Y-115553950D01*
X105605394Y-115553945D01*
X105427254Y-115375805D01*
X105427249Y-115375801D01*
X105223448Y-115227732D01*
X105223447Y-115227731D01*
X105223445Y-115227730D01*
X105146403Y-115188475D01*
X104998983Y-115113360D01*
X104759385Y-115035510D01*
X104510562Y-114996100D01*
X104258638Y-114996100D01*
X104156950Y-115012206D01*
X104009814Y-115035510D01*
X103770216Y-115113360D01*
X103545751Y-115227732D01*
X103341950Y-115375801D01*
X103341945Y-115375805D01*
X103163805Y-115553945D01*
X103163801Y-115553950D01*
X103015732Y-115757751D01*
X102901360Y-115982216D01*
X102823510Y-116221814D01*
X102805102Y-116338036D01*
X102784100Y-116470638D01*
X85685210Y-116470638D01*
X85664207Y-116338034D01*
X85651090Y-116255214D01*
X85612141Y-116135342D01*
X85573241Y-116015621D01*
X85573239Y-116015618D01*
X85573239Y-116015616D01*
X85524703Y-115920360D01*
X85458870Y-115791155D01*
X85416142Y-115732345D01*
X85310798Y-115587350D01*
X85310794Y-115587345D01*
X85132654Y-115409205D01*
X85132649Y-115409201D01*
X84928848Y-115261132D01*
X84928847Y-115261131D01*
X84928845Y-115261130D01*
X84858747Y-115225413D01*
X84704383Y-115146760D01*
X84464785Y-115068910D01*
X84377012Y-115055008D01*
X84215962Y-115029500D01*
X83964038Y-115029500D01*
X83926093Y-115035510D01*
X83715214Y-115068910D01*
X83475616Y-115146760D01*
X83251151Y-115261132D01*
X83047350Y-115409201D01*
X83047345Y-115409205D01*
X82869205Y-115587345D01*
X82869201Y-115587350D01*
X82721132Y-115791151D01*
X82606760Y-116015616D01*
X82528910Y-116255214D01*
X82523119Y-116291777D01*
X82489500Y-116504038D01*
X79333771Y-116504038D01*
X79337615Y-116479768D01*
X79350000Y-116401571D01*
X79350000Y-116290000D01*
X78530330Y-116290000D01*
X78550075Y-116270255D01*
X78599444Y-116184745D01*
X78625000Y-116089370D01*
X78625000Y-115990630D01*
X78599444Y-115895255D01*
X78550075Y-115809745D01*
X78530330Y-115790000D01*
X79350000Y-115790000D01*
X79350000Y-115678428D01*
X79322914Y-115507415D01*
X79269408Y-115342742D01*
X79190804Y-115188475D01*
X79089032Y-115048397D01*
X78966602Y-114925967D01*
X78826524Y-114824195D01*
X78672257Y-114745591D01*
X78507589Y-114692087D01*
X78507581Y-114692085D01*
X78500000Y-114690884D01*
X78500000Y-115759670D01*
X78480255Y-115739925D01*
X78394745Y-115690556D01*
X78299370Y-115665000D01*
X78200630Y-115665000D01*
X78105255Y-115690556D01*
X78019745Y-115739925D01*
X78000000Y-115759670D01*
X78000000Y-114690884D01*
X77999999Y-114690884D01*
X77992418Y-114692085D01*
X77992410Y-114692087D01*
X77827742Y-114745591D01*
X77673475Y-114824195D01*
X77533397Y-114925967D01*
X77410967Y-115048397D01*
X77309194Y-115188478D01*
X77256419Y-115292052D01*
X77208444Y-115342848D01*
X77140623Y-115359642D01*
X77074488Y-115337104D01*
X77031038Y-115282388D01*
X77028908Y-115276751D01*
X77002793Y-115202118D01*
X76922150Y-115092850D01*
X76812882Y-115012207D01*
X76812880Y-115012206D01*
X76684700Y-114967353D01*
X76654270Y-114964500D01*
X76654266Y-114964500D01*
X75845734Y-114964500D01*
X75845730Y-114964500D01*
X75815300Y-114967353D01*
X75815298Y-114967353D01*
X75687119Y-115012206D01*
X75687117Y-115012207D01*
X75577850Y-115092850D01*
X75497207Y-115202117D01*
X75497206Y-115202119D01*
X75452353Y-115330298D01*
X75452353Y-115330300D01*
X75449500Y-115360730D01*
X36041720Y-115360730D01*
X36006560Y-115206682D01*
X36004963Y-115202119D01*
X35983465Y-115140680D01*
X35913801Y-114941592D01*
X35791945Y-114688555D01*
X35642523Y-114450752D01*
X35467416Y-114231175D01*
X35448422Y-114212181D01*
X35414937Y-114150858D01*
X35419921Y-114081166D01*
X35461793Y-114025233D01*
X35527257Y-114000816D01*
X35536103Y-114000500D01*
X207563897Y-114000500D01*
X207630936Y-114020185D01*
G37*
%TD.AperFunction*%
%TD*%
M02*
