%TF.GenerationSoftware,KiCad,Pcbnew,9.0.6*%
%TF.CreationDate,2026-08-07T20:57:13+01:00*%
%TF.ProjectId,fc3,6663332e-6b69-4636-9164-5f7063625858,rev?*%
%TF.SameCoordinates,Original*%
%TF.FileFunction,Soldermask,Top*%
%TF.FilePolarity,Negative*%
%FSLAX46Y46*%
G04 Gerber Fmt 4.6, Leading zero omitted, Abs format (unit mm)*
G04 Created by KiCad (PCBNEW 9.0.6) date 2026-08-07 20:57:13*
%MOMM*%
%LPD*%
G01*
G04 APERTURE LIST*
G04 Aperture macros list*
%AMRoundRect*
0 Rectangle with rounded corners*
0 $1 Rounding radius*
0 $2 $3 $4 $5 $6 $7 $8 $9 X,Y pos of 4 corners*
0 Add a 4 corners polygon primitive as box body*
4,1,4,$2,$3,$4,$5,$6,$7,$8,$9,$2,$3,0*
0 Add four circle primitives for the rounded corners*
1,1,$1+$1,$2,$3*
1,1,$1+$1,$4,$5*
1,1,$1+$1,$6,$7*
1,1,$1+$1,$8,$9*
0 Add four rect primitives between the rounded corners*
20,1,$1+$1,$2,$3,$4,$5,0*
20,1,$1+$1,$4,$5,$6,$7,0*
20,1,$1+$1,$6,$7,$8,$9,0*
20,1,$1+$1,$8,$9,$2,$3,0*%
G04 Aperture macros list end*
%ADD10C,2.540000*%
%ADD11C,1.700000*%
%ADD12C,2.700000*%
%ADD13RoundRect,0.250000X0.350000X0.625000X-0.350000X0.625000X-0.350000X-0.625000X0.350000X-0.625000X0*%
%ADD14O,1.200000X1.750000*%
%ADD15C,1.651000*%
%ADD16C,1.982000*%
%ADD17RoundRect,0.250000X-0.350000X-0.625000X0.350000X-0.625000X0.350000X0.625000X-0.350000X0.625000X0*%
%ADD18O,2.500000X2.000000*%
%ADD19RoundRect,0.250001X-0.949999X-0.949999X0.949999X-0.949999X0.949999X0.949999X-0.949999X0.949999X0*%
%ADD20C,2.400000*%
%ADD21RoundRect,0.255000X-0.595000X-0.595000X0.595000X-0.595000X0.595000X0.595000X-0.595000X0.595000X0*%
%ADD22RoundRect,0.250000X-0.600000X-0.600000X0.600000X-0.600000X0.600000X0.600000X-0.600000X0.600000X0*%
%ADD23C,1.400000*%
%ADD24RoundRect,0.770000X0.980000X-0.980000X0.980000X0.980000X-0.980000X0.980000X-0.980000X-0.980000X0*%
%ADD25C,3.500000*%
G04 APERTURE END LIST*
D10*
%TO.C,U4*%
X182500000Y-116750000D03*
X202820000Y-116750000D03*
D11*
X183470000Y-128920000D03*
X186010000Y-128920000D03*
X188550000Y-128920000D03*
X191090000Y-128920000D03*
X193630000Y-128920000D03*
X196170000Y-128920000D03*
X198710000Y-128920000D03*
X201250000Y-128920000D03*
%TD*%
D12*
%TO.C,*%
X176330000Y-129515000D03*
%TD*%
%TO.C,*%
X156000000Y-116825000D03*
%TD*%
D13*
%TO.C,I2*%
X55000000Y-134300000D03*
D14*
X53000000Y-134300000D03*
X51000000Y-134300000D03*
X49000000Y-134300000D03*
%TD*%
D15*
%TO.C,U1*%
X110510000Y-131830000D03*
X151150000Y-131830000D03*
X110510000Y-116590000D03*
X151150000Y-116590000D03*
D16*
X113050000Y-131710000D03*
X115590000Y-131710000D03*
X118130000Y-131710000D03*
X120670000Y-131710000D03*
X123210000Y-131710000D03*
X125750000Y-131710000D03*
X128290000Y-131710000D03*
X130830000Y-131710000D03*
X133370000Y-131710000D03*
X135910000Y-131710000D03*
X138450000Y-131710000D03*
X140990000Y-131710000D03*
X143530000Y-131710000D03*
X146070000Y-131710000D03*
X148610000Y-131710000D03*
X148610000Y-116710000D03*
X146070000Y-116710000D03*
X143530000Y-116710000D03*
X140990000Y-116710000D03*
X138450000Y-116710000D03*
X135910000Y-116710000D03*
X133370000Y-116710000D03*
X130830000Y-116710000D03*
X128290000Y-116710000D03*
X125750000Y-116710000D03*
X123210000Y-116710000D03*
X120670000Y-116710000D03*
X118130000Y-116710000D03*
X115590000Y-116710000D03*
X113050000Y-116710000D03*
%TD*%
D17*
%TO.C,1.5A\u002C3.3V1*%
X76250000Y-116040000D03*
D14*
X78250000Y-116040000D03*
%TD*%
D18*
%TO.C,U2*%
X78500000Y-122340000D03*
X78500000Y-124880000D03*
X78500000Y-132500000D03*
X78500000Y-135040000D03*
X60720000Y-135040000D03*
X60720000Y-132500000D03*
X60720000Y-124880000D03*
X60720000Y-122340000D03*
%TD*%
D19*
%TO.C,S1*%
X52250000Y-125750000D03*
D20*
X55750000Y-125750000D03*
%TD*%
D21*
%TO.C,U5*%
X159820000Y-129505000D03*
D11*
X162360000Y-129505000D03*
X164900000Y-129505000D03*
X167440000Y-129505000D03*
X169980000Y-129505000D03*
X172520000Y-129505000D03*
X159820000Y-116805000D03*
X162360000Y-116805000D03*
X164900000Y-116805000D03*
X167440000Y-116805000D03*
X169980000Y-116805000D03*
X172520000Y-116805000D03*
%TD*%
D22*
%TO.C,Ur2*%
X84062500Y-134362500D03*
D11*
X86602500Y-134362500D03*
X89142500Y-134362500D03*
X91682500Y-134362500D03*
X94222500Y-134362500D03*
X96762500Y-134362500D03*
X99302500Y-134362500D03*
X101842500Y-134362500D03*
X104382500Y-134362500D03*
%TD*%
D12*
%TO.C,*%
X156030000Y-129490000D03*
%TD*%
%TO.C,*%
X104384600Y-116596600D03*
%TD*%
D23*
%TO.C,J1*%
X32675000Y-131500000D03*
X32675000Y-120500000D03*
D24*
X42675000Y-123500000D03*
D25*
X42675000Y-128500000D03*
%TD*%
D12*
%TO.C,*%
X84090000Y-116630000D03*
%TD*%
%TO.C,*%
X176300000Y-116775000D03*
%TD*%
M02*
